G75*
%MOMM*%
%OFA0B0*%
%FSLAX33Y33*%
%IPPOS*%
%LPD*%
%AMOC8*
5,1,8,0,0,1.08239X$1,22.5*
%
%ADD10C,0.000*%
%ADD11C,0.203*%
D10*
X02354Y00354D02*
X113354Y00354D01*
X113441Y00356D01*
X113528Y00362D01*
X113615Y00371D01*
X113701Y00384D01*
X113787Y00401D01*
X113872Y00422D01*
X113955Y00447D01*
X114038Y00475D01*
X114119Y00506D01*
X114199Y00541D01*
X114277Y00580D01*
X114354Y00622D01*
X114429Y00667D01*
X114501Y00716D01*
X114572Y00767D01*
X114640Y00822D01*
X114705Y00879D01*
X114768Y00940D01*
X114829Y01003D01*
X114886Y01068D01*
X114941Y01136D01*
X114992Y01207D01*
X115041Y01279D01*
X115086Y01354D01*
X115128Y01431D01*
X115167Y01509D01*
X115202Y01589D01*
X115233Y01670D01*
X115261Y01753D01*
X115286Y01836D01*
X115307Y01921D01*
X115324Y02007D01*
X115337Y02093D01*
X115346Y02180D01*
X115352Y02267D01*
X115354Y02354D01*
X115354Y58354D01*
X115352Y58441D01*
X115346Y58528D01*
X115337Y58615D01*
X115324Y58701D01*
X115307Y58787D01*
X115286Y58872D01*
X115261Y58955D01*
X115233Y59038D01*
X115202Y59119D01*
X115167Y59199D01*
X115128Y59277D01*
X115086Y59354D01*
X115041Y59429D01*
X114992Y59501D01*
X114941Y59572D01*
X114886Y59640D01*
X114829Y59705D01*
X114768Y59768D01*
X114705Y59829D01*
X114640Y59886D01*
X114572Y59941D01*
X114501Y59992D01*
X114429Y60041D01*
X114354Y60086D01*
X114277Y60128D01*
X114199Y60167D01*
X114119Y60202D01*
X114038Y60233D01*
X113955Y60261D01*
X113872Y60286D01*
X113787Y60307D01*
X113701Y60324D01*
X113615Y60337D01*
X113528Y60346D01*
X113441Y60352D01*
X113354Y60354D01*
X02354Y60354D01*
X02267Y60352D01*
X02180Y60346D01*
X02093Y60337D01*
X02007Y60324D01*
X01921Y60307D01*
X01836Y60286D01*
X01753Y60261D01*
X01670Y60233D01*
X01589Y60202D01*
X01509Y60167D01*
X01431Y60128D01*
X01354Y60086D01*
X01279Y60041D01*
X01207Y59992D01*
X01136Y59941D01*
X01068Y59886D01*
X01003Y59829D01*
X00940Y59768D01*
X00879Y59705D01*
X00822Y59640D01*
X00767Y59572D01*
X00716Y59501D01*
X00667Y59429D01*
X00622Y59354D01*
X00580Y59277D01*
X00541Y59199D01*
X00506Y59119D01*
X00475Y59038D01*
X00447Y58955D01*
X00422Y58872D01*
X00401Y58787D01*
X00384Y58701D01*
X00371Y58615D01*
X00362Y58528D01*
X00356Y58441D01*
X00354Y58354D01*
X00354Y02354D01*
X00356Y02267D01*
X00362Y02180D01*
X00371Y02093D01*
X00384Y02007D01*
X00401Y01921D01*
X00422Y01836D01*
X00447Y01753D01*
X00475Y01670D01*
X00506Y01589D01*
X00541Y01509D01*
X00580Y01431D01*
X00622Y01354D01*
X00667Y01279D01*
X00716Y01207D01*
X00767Y01136D01*
X00822Y01068D01*
X00879Y01003D01*
X00940Y00940D01*
X01003Y00879D01*
X01068Y00822D01*
X01136Y00767D01*
X01207Y00716D01*
X01279Y00667D01*
X01354Y00622D01*
X01431Y00580D01*
X01509Y00541D01*
X01589Y00506D01*
X01670Y00475D01*
X01753Y00447D01*
X01836Y00422D01*
X01921Y00401D01*
X02007Y00384D01*
X02093Y00371D01*
X02180Y00362D01*
X02267Y00356D01*
X02354Y00354D01*
X02254Y03854D02*
X02256Y03934D01*
X02262Y04013D01*
X02272Y04092D01*
X02286Y04171D01*
X02303Y04249D01*
X02325Y04326D01*
X02350Y04401D01*
X02380Y04475D01*
X02412Y04548D01*
X02449Y04619D01*
X02489Y04688D01*
X02532Y04755D01*
X02579Y04820D01*
X02628Y04882D01*
X02681Y04942D01*
X02737Y04999D01*
X02795Y05054D01*
X02856Y05105D01*
X02920Y05153D01*
X02986Y05198D01*
X03054Y05240D01*
X03124Y05278D01*
X03196Y05312D01*
X03269Y05343D01*
X03344Y05371D01*
X03421Y05394D01*
X03498Y05414D01*
X03576Y05430D01*
X03655Y05442D01*
X03734Y05450D01*
X03814Y05454D01*
X03894Y05454D01*
X03974Y05450D01*
X04053Y05442D01*
X04132Y05430D01*
X04210Y05414D01*
X04287Y05394D01*
X04364Y05371D01*
X04439Y05343D01*
X04512Y05312D01*
X04584Y05278D01*
X04654Y05240D01*
X04722Y05198D01*
X04788Y05153D01*
X04852Y05105D01*
X04913Y05054D01*
X04971Y04999D01*
X05027Y04942D01*
X05080Y04882D01*
X05129Y04820D01*
X05176Y04755D01*
X05219Y04688D01*
X05259Y04619D01*
X05296Y04548D01*
X05328Y04475D01*
X05358Y04401D01*
X05383Y04326D01*
X05405Y04249D01*
X05422Y04171D01*
X05436Y04092D01*
X05446Y04013D01*
X05452Y03934D01*
X05454Y03854D01*
X05452Y03774D01*
X05446Y03695D01*
X05436Y03616D01*
X05422Y03537D01*
X05405Y03459D01*
X05383Y03382D01*
X05358Y03307D01*
X05328Y03233D01*
X05296Y03160D01*
X05259Y03089D01*
X05219Y03020D01*
X05176Y02953D01*
X05129Y02888D01*
X05080Y02826D01*
X05027Y02766D01*
X04971Y02709D01*
X04913Y02654D01*
X04852Y02603D01*
X04788Y02555D01*
X04722Y02510D01*
X04654Y02468D01*
X04584Y02430D01*
X04512Y02396D01*
X04439Y02365D01*
X04364Y02337D01*
X04287Y02314D01*
X04210Y02294D01*
X04132Y02278D01*
X04053Y02266D01*
X03974Y02258D01*
X03894Y02254D01*
X03814Y02254D01*
X03734Y02258D01*
X03655Y02266D01*
X03576Y02278D01*
X03498Y02294D01*
X03421Y02314D01*
X03344Y02337D01*
X03269Y02365D01*
X03196Y02396D01*
X03124Y02430D01*
X03054Y02468D01*
X02986Y02510D01*
X02920Y02555D01*
X02856Y02603D01*
X02795Y02654D01*
X02737Y02709D01*
X02681Y02766D01*
X02628Y02826D01*
X02579Y02888D01*
X02532Y02953D01*
X02489Y03020D01*
X02449Y03089D01*
X02412Y03160D01*
X02380Y03233D01*
X02350Y03307D01*
X02325Y03382D01*
X02303Y03459D01*
X02286Y03537D01*
X02272Y03616D01*
X02262Y03695D01*
X02256Y03774D01*
X02254Y03854D01*
X02254Y28354D02*
X02256Y28434D01*
X02262Y28513D01*
X02272Y28592D01*
X02286Y28671D01*
X02303Y28749D01*
X02325Y28826D01*
X02350Y28901D01*
X02380Y28975D01*
X02412Y29048D01*
X02449Y29119D01*
X02489Y29188D01*
X02532Y29255D01*
X02579Y29320D01*
X02628Y29382D01*
X02681Y29442D01*
X02737Y29499D01*
X02795Y29554D01*
X02856Y29605D01*
X02920Y29653D01*
X02986Y29698D01*
X03054Y29740D01*
X03124Y29778D01*
X03196Y29812D01*
X03269Y29843D01*
X03344Y29871D01*
X03421Y29894D01*
X03498Y29914D01*
X03576Y29930D01*
X03655Y29942D01*
X03734Y29950D01*
X03814Y29954D01*
X03894Y29954D01*
X03974Y29950D01*
X04053Y29942D01*
X04132Y29930D01*
X04210Y29914D01*
X04287Y29894D01*
X04364Y29871D01*
X04439Y29843D01*
X04512Y29812D01*
X04584Y29778D01*
X04654Y29740D01*
X04722Y29698D01*
X04788Y29653D01*
X04852Y29605D01*
X04913Y29554D01*
X04971Y29499D01*
X05027Y29442D01*
X05080Y29382D01*
X05129Y29320D01*
X05176Y29255D01*
X05219Y29188D01*
X05259Y29119D01*
X05296Y29048D01*
X05328Y28975D01*
X05358Y28901D01*
X05383Y28826D01*
X05405Y28749D01*
X05422Y28671D01*
X05436Y28592D01*
X05446Y28513D01*
X05452Y28434D01*
X05454Y28354D01*
X05452Y28274D01*
X05446Y28195D01*
X05436Y28116D01*
X05422Y28037D01*
X05405Y27959D01*
X05383Y27882D01*
X05358Y27807D01*
X05328Y27733D01*
X05296Y27660D01*
X05259Y27589D01*
X05219Y27520D01*
X05176Y27453D01*
X05129Y27388D01*
X05080Y27326D01*
X05027Y27266D01*
X04971Y27209D01*
X04913Y27154D01*
X04852Y27103D01*
X04788Y27055D01*
X04722Y27010D01*
X04654Y26968D01*
X04584Y26930D01*
X04512Y26896D01*
X04439Y26865D01*
X04364Y26837D01*
X04287Y26814D01*
X04210Y26794D01*
X04132Y26778D01*
X04053Y26766D01*
X03974Y26758D01*
X03894Y26754D01*
X03814Y26754D01*
X03734Y26758D01*
X03655Y26766D01*
X03576Y26778D01*
X03498Y26794D01*
X03421Y26814D01*
X03344Y26837D01*
X03269Y26865D01*
X03196Y26896D01*
X03124Y26930D01*
X03054Y26968D01*
X02986Y27010D01*
X02920Y27055D01*
X02856Y27103D01*
X02795Y27154D01*
X02737Y27209D01*
X02681Y27266D01*
X02628Y27326D01*
X02579Y27388D01*
X02532Y27453D01*
X02489Y27520D01*
X02449Y27589D01*
X02412Y27660D01*
X02380Y27733D01*
X02350Y27807D01*
X02325Y27882D01*
X02303Y27959D01*
X02286Y28037D01*
X02272Y28116D01*
X02262Y28195D01*
X02256Y28274D01*
X02254Y28354D01*
X06554Y37404D02*
X06556Y37460D01*
X06562Y37517D01*
X06572Y37572D01*
X06586Y37627D01*
X06603Y37681D01*
X06625Y37733D01*
X06650Y37783D01*
X06678Y37832D01*
X06710Y37879D01*
X06745Y37923D01*
X06783Y37965D01*
X06824Y38004D01*
X06868Y38039D01*
X06914Y38072D01*
X06962Y38101D01*
X07012Y38127D01*
X07064Y38150D01*
X07118Y38168D01*
X07172Y38183D01*
X07227Y38194D01*
X07283Y38201D01*
X07340Y38204D01*
X07396Y38203D01*
X07453Y38198D01*
X07508Y38189D01*
X07563Y38176D01*
X07617Y38159D01*
X07670Y38139D01*
X07721Y38115D01*
X07770Y38087D01*
X07817Y38056D01*
X07862Y38022D01*
X07905Y37984D01*
X07944Y37944D01*
X07981Y37901D01*
X08014Y37856D01*
X08044Y37808D01*
X08071Y37758D01*
X08094Y37707D01*
X08114Y37654D01*
X08130Y37600D01*
X08142Y37544D01*
X08150Y37489D01*
X08154Y37432D01*
X08154Y37376D01*
X08150Y37319D01*
X08142Y37264D01*
X08130Y37208D01*
X08114Y37154D01*
X08094Y37101D01*
X08071Y37050D01*
X08044Y37000D01*
X08014Y36952D01*
X07981Y36907D01*
X07944Y36864D01*
X07905Y36824D01*
X07862Y36786D01*
X07817Y36752D01*
X07770Y36721D01*
X07721Y36693D01*
X07670Y36669D01*
X07617Y36649D01*
X07563Y36632D01*
X07508Y36619D01*
X07453Y36610D01*
X07396Y36605D01*
X07340Y36604D01*
X07283Y36607D01*
X07227Y36614D01*
X07172Y36625D01*
X07118Y36640D01*
X07064Y36658D01*
X07012Y36681D01*
X06962Y36707D01*
X06914Y36736D01*
X06868Y36769D01*
X06824Y36804D01*
X06783Y36843D01*
X06745Y36885D01*
X06710Y36929D01*
X06678Y36976D01*
X06650Y37025D01*
X06625Y37075D01*
X06603Y37127D01*
X06586Y37181D01*
X06572Y37236D01*
X06562Y37291D01*
X06556Y37348D01*
X06554Y37404D01*
X27804Y37404D02*
X27806Y37451D01*
X27812Y37497D01*
X27822Y37543D01*
X27835Y37587D01*
X27853Y37631D01*
X27874Y37672D01*
X27898Y37712D01*
X27926Y37750D01*
X27957Y37785D01*
X27991Y37817D01*
X28027Y37846D01*
X28066Y37872D01*
X28106Y37895D01*
X28149Y37914D01*
X28193Y37930D01*
X28238Y37942D01*
X28284Y37950D01*
X28331Y37954D01*
X28377Y37954D01*
X28424Y37950D01*
X28470Y37942D01*
X28515Y37930D01*
X28559Y37914D01*
X28602Y37895D01*
X28642Y37872D01*
X28681Y37846D01*
X28717Y37817D01*
X28751Y37785D01*
X28782Y37750D01*
X28810Y37712D01*
X28834Y37672D01*
X28855Y37631D01*
X28873Y37587D01*
X28886Y37543D01*
X28896Y37497D01*
X28902Y37451D01*
X28904Y37404D01*
X28902Y37357D01*
X28896Y37311D01*
X28886Y37265D01*
X28873Y37221D01*
X28855Y37177D01*
X28834Y37136D01*
X28810Y37096D01*
X28782Y37058D01*
X28751Y37023D01*
X28717Y36991D01*
X28681Y36962D01*
X28642Y36936D01*
X28602Y36913D01*
X28559Y36894D01*
X28515Y36878D01*
X28470Y36866D01*
X28424Y36858D01*
X28377Y36854D01*
X28331Y36854D01*
X28284Y36858D01*
X28238Y36866D01*
X28193Y36878D01*
X28149Y36894D01*
X28106Y36913D01*
X28066Y36936D01*
X28027Y36962D01*
X27991Y36991D01*
X27957Y37023D01*
X27926Y37058D01*
X27898Y37096D01*
X27874Y37136D01*
X27853Y37177D01*
X27835Y37221D01*
X27822Y37265D01*
X27812Y37311D01*
X27806Y37357D01*
X27804Y37404D01*
X108054Y49854D02*
X108056Y49910D01*
X108062Y49967D01*
X108072Y50022D01*
X108086Y50077D01*
X108103Y50131D01*
X108125Y50183D01*
X108150Y50233D01*
X108178Y50282D01*
X108210Y50329D01*
X108245Y50373D01*
X108283Y50415D01*
X108324Y50454D01*
X108368Y50489D01*
X108414Y50522D01*
X108462Y50551D01*
X108512Y50577D01*
X108564Y50600D01*
X108618Y50618D01*
X108672Y50633D01*
X108727Y50644D01*
X108783Y50651D01*
X108840Y50654D01*
X108896Y50653D01*
X108953Y50648D01*
X109008Y50639D01*
X109063Y50626D01*
X109117Y50609D01*
X109170Y50589D01*
X109221Y50565D01*
X109270Y50537D01*
X109317Y50506D01*
X109362Y50472D01*
X109405Y50434D01*
X109444Y50394D01*
X109481Y50351D01*
X109514Y50306D01*
X109544Y50258D01*
X109571Y50208D01*
X109594Y50157D01*
X109614Y50104D01*
X109630Y50050D01*
X109642Y49994D01*
X109650Y49939D01*
X109654Y49882D01*
X109654Y49826D01*
X109650Y49769D01*
X109642Y49714D01*
X109630Y49658D01*
X109614Y49604D01*
X109594Y49551D01*
X109571Y49500D01*
X109544Y49450D01*
X109514Y49402D01*
X109481Y49357D01*
X109444Y49314D01*
X109405Y49274D01*
X109362Y49236D01*
X109317Y49202D01*
X109270Y49171D01*
X109221Y49143D01*
X109170Y49119D01*
X109117Y49099D01*
X109063Y49082D01*
X109008Y49069D01*
X108953Y49060D01*
X108896Y49055D01*
X108840Y49054D01*
X108783Y49057D01*
X108727Y49064D01*
X108672Y49075D01*
X108618Y49090D01*
X108564Y49108D01*
X108512Y49131D01*
X108462Y49157D01*
X108414Y49186D01*
X108368Y49219D01*
X108324Y49254D01*
X108283Y49293D01*
X108245Y49335D01*
X108210Y49379D01*
X108178Y49426D01*
X108150Y49475D01*
X108125Y49525D01*
X108103Y49577D01*
X108086Y49631D01*
X108072Y49686D01*
X108062Y49741D01*
X108056Y49798D01*
X108054Y49854D01*
X108054Y56854D02*
X108056Y56910D01*
X108062Y56967D01*
X108072Y57022D01*
X108086Y57077D01*
X108103Y57131D01*
X108125Y57183D01*
X108150Y57233D01*
X108178Y57282D01*
X108210Y57329D01*
X108245Y57373D01*
X108283Y57415D01*
X108324Y57454D01*
X108368Y57489D01*
X108414Y57522D01*
X108462Y57551D01*
X108512Y57577D01*
X108564Y57600D01*
X108618Y57618D01*
X108672Y57633D01*
X108727Y57644D01*
X108783Y57651D01*
X108840Y57654D01*
X108896Y57653D01*
X108953Y57648D01*
X109008Y57639D01*
X109063Y57626D01*
X109117Y57609D01*
X109170Y57589D01*
X109221Y57565D01*
X109270Y57537D01*
X109317Y57506D01*
X109362Y57472D01*
X109405Y57434D01*
X109444Y57394D01*
X109481Y57351D01*
X109514Y57306D01*
X109544Y57258D01*
X109571Y57208D01*
X109594Y57157D01*
X109614Y57104D01*
X109630Y57050D01*
X109642Y56994D01*
X109650Y56939D01*
X109654Y56882D01*
X109654Y56826D01*
X109650Y56769D01*
X109642Y56714D01*
X109630Y56658D01*
X109614Y56604D01*
X109594Y56551D01*
X109571Y56500D01*
X109544Y56450D01*
X109514Y56402D01*
X109481Y56357D01*
X109444Y56314D01*
X109405Y56274D01*
X109362Y56236D01*
X109317Y56202D01*
X109270Y56171D01*
X109221Y56143D01*
X109170Y56119D01*
X109117Y56099D01*
X109063Y56082D01*
X109008Y56069D01*
X108953Y56060D01*
X108896Y56055D01*
X108840Y56054D01*
X108783Y56057D01*
X108727Y56064D01*
X108672Y56075D01*
X108618Y56090D01*
X108564Y56108D01*
X108512Y56131D01*
X108462Y56157D01*
X108414Y56186D01*
X108368Y56219D01*
X108324Y56254D01*
X108283Y56293D01*
X108245Y56335D01*
X108210Y56379D01*
X108178Y56426D01*
X108150Y56475D01*
X108125Y56525D01*
X108103Y56577D01*
X108086Y56631D01*
X108072Y56686D01*
X108062Y56741D01*
X108056Y56798D01*
X108054Y56854D01*
X110254Y39854D02*
X110256Y39934D01*
X110262Y40013D01*
X110272Y40092D01*
X110286Y40171D01*
X110303Y40249D01*
X110325Y40326D01*
X110350Y40401D01*
X110380Y40475D01*
X110412Y40548D01*
X110449Y40619D01*
X110489Y40688D01*
X110532Y40755D01*
X110579Y40820D01*
X110628Y40882D01*
X110681Y40942D01*
X110737Y40999D01*
X110795Y41054D01*
X110856Y41105D01*
X110920Y41153D01*
X110986Y41198D01*
X111054Y41240D01*
X111124Y41278D01*
X111196Y41312D01*
X111269Y41343D01*
X111344Y41371D01*
X111421Y41394D01*
X111498Y41414D01*
X111576Y41430D01*
X111655Y41442D01*
X111734Y41450D01*
X111814Y41454D01*
X111894Y41454D01*
X111974Y41450D01*
X112053Y41442D01*
X112132Y41430D01*
X112210Y41414D01*
X112287Y41394D01*
X112364Y41371D01*
X112439Y41343D01*
X112512Y41312D01*
X112584Y41278D01*
X112654Y41240D01*
X112722Y41198D01*
X112788Y41153D01*
X112852Y41105D01*
X112913Y41054D01*
X112971Y40999D01*
X113027Y40942D01*
X113080Y40882D01*
X113129Y40820D01*
X113176Y40755D01*
X113219Y40688D01*
X113259Y40619D01*
X113296Y40548D01*
X113328Y40475D01*
X113358Y40401D01*
X113383Y40326D01*
X113405Y40249D01*
X113422Y40171D01*
X113436Y40092D01*
X113446Y40013D01*
X113452Y39934D01*
X113454Y39854D01*
X113452Y39774D01*
X113446Y39695D01*
X113436Y39616D01*
X113422Y39537D01*
X113405Y39459D01*
X113383Y39382D01*
X113358Y39307D01*
X113328Y39233D01*
X113296Y39160D01*
X113259Y39089D01*
X113219Y39020D01*
X113176Y38953D01*
X113129Y38888D01*
X113080Y38826D01*
X113027Y38766D01*
X112971Y38709D01*
X112913Y38654D01*
X112852Y38603D01*
X112788Y38555D01*
X112722Y38510D01*
X112654Y38468D01*
X112584Y38430D01*
X112512Y38396D01*
X112439Y38365D01*
X112364Y38337D01*
X112287Y38314D01*
X112210Y38294D01*
X112132Y38278D01*
X112053Y38266D01*
X111974Y38258D01*
X111894Y38254D01*
X111814Y38254D01*
X111734Y38258D01*
X111655Y38266D01*
X111576Y38278D01*
X111498Y38294D01*
X111421Y38314D01*
X111344Y38337D01*
X111269Y38365D01*
X111196Y38396D01*
X111124Y38430D01*
X111054Y38468D01*
X110986Y38510D01*
X110920Y38555D01*
X110856Y38603D01*
X110795Y38654D01*
X110737Y38709D01*
X110681Y38766D01*
X110628Y38826D01*
X110579Y38888D01*
X110532Y38953D01*
X110489Y39020D01*
X110449Y39089D01*
X110412Y39160D01*
X110380Y39233D01*
X110350Y39307D01*
X110325Y39382D01*
X110303Y39459D01*
X110286Y39537D01*
X110272Y39616D01*
X110262Y39695D01*
X110256Y39774D01*
X110254Y39854D01*
X110254Y03854D02*
X110256Y03934D01*
X110262Y04013D01*
X110272Y04092D01*
X110286Y04171D01*
X110303Y04249D01*
X110325Y04326D01*
X110350Y04401D01*
X110380Y04475D01*
X110412Y04548D01*
X110449Y04619D01*
X110489Y04688D01*
X110532Y04755D01*
X110579Y04820D01*
X110628Y04882D01*
X110681Y04942D01*
X110737Y04999D01*
X110795Y05054D01*
X110856Y05105D01*
X110920Y05153D01*
X110986Y05198D01*
X111054Y05240D01*
X111124Y05278D01*
X111196Y05312D01*
X111269Y05343D01*
X111344Y05371D01*
X111421Y05394D01*
X111498Y05414D01*
X111576Y05430D01*
X111655Y05442D01*
X111734Y05450D01*
X111814Y05454D01*
X111894Y05454D01*
X111974Y05450D01*
X112053Y05442D01*
X112132Y05430D01*
X112210Y05414D01*
X112287Y05394D01*
X112364Y05371D01*
X112439Y05343D01*
X112512Y05312D01*
X112584Y05278D01*
X112654Y05240D01*
X112722Y05198D01*
X112788Y05153D01*
X112852Y05105D01*
X112913Y05054D01*
X112971Y04999D01*
X113027Y04942D01*
X113080Y04882D01*
X113129Y04820D01*
X113176Y04755D01*
X113219Y04688D01*
X113259Y04619D01*
X113296Y04548D01*
X113328Y04475D01*
X113358Y04401D01*
X113383Y04326D01*
X113405Y04249D01*
X113422Y04171D01*
X113436Y04092D01*
X113446Y04013D01*
X113452Y03934D01*
X113454Y03854D01*
X113452Y03774D01*
X113446Y03695D01*
X113436Y03616D01*
X113422Y03537D01*
X113405Y03459D01*
X113383Y03382D01*
X113358Y03307D01*
X113328Y03233D01*
X113296Y03160D01*
X113259Y03089D01*
X113219Y03020D01*
X113176Y02953D01*
X113129Y02888D01*
X113080Y02826D01*
X113027Y02766D01*
X112971Y02709D01*
X112913Y02654D01*
X112852Y02603D01*
X112788Y02555D01*
X112722Y02510D01*
X112654Y02468D01*
X112584Y02430D01*
X112512Y02396D01*
X112439Y02365D01*
X112364Y02337D01*
X112287Y02314D01*
X112210Y02294D01*
X112132Y02278D01*
X112053Y02266D01*
X111974Y02258D01*
X111894Y02254D01*
X111814Y02254D01*
X111734Y02258D01*
X111655Y02266D01*
X111576Y02278D01*
X111498Y02294D01*
X111421Y02314D01*
X111344Y02337D01*
X111269Y02365D01*
X111196Y02396D01*
X111124Y02430D01*
X111054Y02468D01*
X110986Y02510D01*
X110920Y02555D01*
X110856Y02603D01*
X110795Y02654D01*
X110737Y02709D01*
X110681Y02766D01*
X110628Y02826D01*
X110579Y02888D01*
X110532Y02953D01*
X110489Y03020D01*
X110449Y03089D01*
X110412Y03160D01*
X110380Y03233D01*
X110350Y03307D01*
X110325Y03382D01*
X110303Y03459D01*
X110286Y03537D01*
X110272Y03616D01*
X110262Y03695D01*
X110256Y03774D01*
X110254Y03854D01*
D11*
X95185Y07988D02*
X94786Y07988D01*
X94520Y07722D01*
X94387Y07722D01*
X94786Y07988D02*
X94520Y08253D01*
X94387Y08253D01*
X94520Y08642D02*
X94387Y08775D01*
X94387Y09174D01*
X95185Y09174D01*
X95185Y08775D01*
X95052Y08642D01*
X94520Y08642D01*
X94520Y09563D02*
X94786Y09563D01*
X94919Y09696D01*
X94919Y10095D01*
X95185Y10095D02*
X94387Y10095D01*
X94387Y09696D01*
X94520Y09563D01*
X94919Y09829D02*
X95185Y09563D01*
X92645Y09563D02*
X92113Y09563D01*
X91847Y09829D01*
X92113Y10095D01*
X92645Y10095D01*
X92246Y10095D02*
X92246Y09563D01*
X91980Y09174D02*
X91847Y09041D01*
X91847Y08775D01*
X91980Y08642D01*
X92512Y09174D01*
X92645Y09041D01*
X92645Y08775D01*
X92512Y08642D01*
X91980Y08642D01*
X91980Y09174D02*
X92512Y09174D01*
X90105Y09174D02*
X89573Y08642D01*
X89440Y08642D01*
X89307Y08775D01*
X89307Y09041D01*
X89440Y09174D01*
X89573Y09563D02*
X90105Y09563D01*
X90105Y09174D02*
X90105Y08642D01*
X89706Y09563D02*
X89706Y10095D01*
X89573Y10095D02*
X89307Y09829D01*
X89573Y09563D01*
X89573Y10095D02*
X90105Y10095D01*
X90105Y11754D02*
X90105Y12286D01*
X90105Y12020D02*
X89307Y12020D01*
X89573Y12286D01*
X89573Y12675D02*
X90105Y12675D01*
X89706Y12675D02*
X89706Y13206D01*
X89573Y13206D02*
X89307Y12941D01*
X89573Y12675D01*
X89573Y13206D02*
X90105Y13206D01*
X91847Y13206D02*
X91980Y13206D01*
X92246Y12941D01*
X92645Y12941D01*
X92246Y12941D02*
X91980Y12675D01*
X91847Y12675D01*
X91980Y12286D02*
X91847Y12153D01*
X91847Y11887D01*
X91980Y11754D01*
X92113Y11754D01*
X92645Y12286D01*
X92645Y11754D01*
X94387Y11887D02*
X94387Y12286D01*
X95185Y12286D01*
X95185Y11887D01*
X95052Y11754D01*
X94520Y11754D01*
X94387Y11887D01*
X94387Y12675D02*
X95185Y12675D01*
X94387Y13206D01*
X95185Y13206D01*
X95052Y13596D02*
X94786Y13596D01*
X94786Y13861D01*
X94520Y13596D02*
X94387Y13729D01*
X94387Y13994D01*
X94520Y14127D01*
X95052Y14127D01*
X95185Y13994D01*
X95185Y13729D01*
X95052Y13596D01*
X92645Y13596D02*
X91847Y13596D01*
X92246Y13596D02*
X92246Y14127D01*
X92246Y14516D02*
X92379Y14649D01*
X92379Y15048D01*
X92645Y15048D02*
X91847Y15048D01*
X91847Y14649D01*
X91980Y14516D01*
X92246Y14516D01*
X92645Y14127D02*
X91847Y14127D01*
X87565Y14127D02*
X86767Y14127D01*
X86767Y13729D01*
X86900Y13596D01*
X87166Y13596D01*
X87299Y13729D01*
X87299Y14127D01*
X87299Y13861D02*
X87565Y13596D01*
X87432Y13206D02*
X87565Y13074D01*
X87565Y12808D01*
X87432Y12675D01*
X86900Y12675D01*
X86767Y12808D01*
X86767Y13074D01*
X86900Y13206D01*
X87432Y13206D01*
X87299Y12941D02*
X87565Y12675D01*
X87299Y12286D02*
X87299Y11754D01*
X87033Y11754D02*
X87033Y11887D01*
X87033Y12286D01*
X86767Y12153D02*
X87565Y12153D01*
X87565Y11887D02*
X86767Y11887D01*
X85025Y11887D02*
X84227Y11887D01*
X84227Y12153D02*
X85025Y12153D01*
X84759Y12286D02*
X84759Y11754D01*
X84493Y11754D02*
X84493Y11887D01*
X84493Y12286D01*
X84360Y12675D02*
X84227Y12808D01*
X84227Y13074D01*
X84360Y13206D01*
X84493Y13206D01*
X84626Y13074D01*
X84626Y12808D01*
X84759Y12675D01*
X84892Y12675D01*
X85025Y12808D01*
X85025Y13074D01*
X84892Y13206D01*
X85025Y13596D02*
X85025Y14127D01*
X84227Y14127D01*
X84227Y13596D01*
X84626Y13861D02*
X84626Y14127D01*
X84626Y14516D02*
X84759Y14649D01*
X84759Y15048D01*
X84759Y14782D02*
X85025Y14516D01*
X84626Y14516D02*
X84360Y14516D01*
X84227Y14649D01*
X84227Y15048D01*
X85025Y15048D01*
X86767Y14741D02*
X86767Y14475D01*
X86767Y14608D02*
X87565Y14608D01*
X87565Y14741D02*
X87565Y14475D01*
X82485Y13206D02*
X82485Y12808D01*
X82352Y12675D01*
X81820Y12675D01*
X81687Y12808D01*
X81687Y13206D01*
X82485Y13206D01*
X82352Y12286D02*
X81820Y12286D01*
X81687Y12153D01*
X81687Y11887D01*
X81820Y11754D01*
X82352Y12286D01*
X82485Y12153D01*
X82485Y11887D01*
X82352Y11754D01*
X81820Y11754D01*
X79945Y11754D02*
X79945Y12286D01*
X79413Y11754D01*
X79280Y11754D01*
X79147Y11887D01*
X79147Y12153D01*
X79280Y12286D01*
X79280Y12675D02*
X79147Y12808D01*
X79147Y13206D01*
X79945Y13206D01*
X79945Y12808D01*
X79812Y12675D01*
X79280Y12675D01*
X77405Y12808D02*
X77272Y12675D01*
X76740Y12675D01*
X76607Y12808D01*
X76607Y13206D01*
X77405Y13206D01*
X77405Y12808D01*
X77006Y12286D02*
X77006Y11754D01*
X76607Y11887D02*
X77006Y12286D01*
X77405Y11887D02*
X76607Y11887D01*
X74865Y11887D02*
X74732Y11754D01*
X74599Y11754D01*
X74466Y11887D01*
X74466Y12286D01*
X74732Y12286D01*
X74865Y12153D01*
X74865Y11887D01*
X74466Y12286D02*
X74200Y12020D01*
X74067Y11754D01*
X74200Y12675D02*
X74067Y12808D01*
X74067Y13206D01*
X74865Y13206D01*
X74865Y12808D01*
X74732Y12675D01*
X74200Y12675D01*
X72325Y12675D02*
X71527Y12675D01*
X71527Y12286D02*
X71527Y11887D01*
X71660Y11754D01*
X72192Y11754D01*
X72325Y11887D01*
X72325Y12286D01*
X71527Y12286D01*
X72325Y12675D02*
X71527Y13206D01*
X72325Y13206D01*
X72192Y13596D02*
X71926Y13596D01*
X71926Y13861D01*
X71660Y13596D02*
X71527Y13729D01*
X71527Y13994D01*
X71660Y14127D01*
X72192Y14127D01*
X72325Y13994D01*
X72325Y13729D01*
X72192Y13596D01*
X72192Y10095D02*
X72325Y09962D01*
X72325Y09696D01*
X72192Y09563D01*
X71926Y09563D01*
X71793Y09696D01*
X71793Y09829D01*
X71926Y10095D01*
X71527Y10095D01*
X71527Y09563D01*
X71527Y09174D02*
X72059Y09174D01*
X72325Y08908D01*
X72059Y08642D01*
X71527Y08642D01*
X74067Y08642D02*
X74200Y08642D01*
X74732Y09174D01*
X74865Y09174D01*
X74732Y09563D02*
X74200Y09563D01*
X74067Y09696D01*
X74067Y10095D01*
X74865Y10095D01*
X74865Y09696D01*
X74732Y09563D01*
X74067Y09174D02*
X74067Y08642D01*
X76607Y08642D02*
X76607Y09174D01*
X77006Y09174D01*
X76873Y08908D01*
X76873Y08775D01*
X77006Y08642D01*
X77272Y08642D01*
X77405Y08775D01*
X77405Y09041D01*
X77272Y09174D01*
X77272Y09563D02*
X76740Y09563D01*
X76607Y09696D01*
X76607Y10095D01*
X77405Y10095D01*
X77405Y09696D01*
X77272Y09563D01*
X79147Y09696D02*
X79147Y10095D01*
X79945Y10095D01*
X79945Y09696D01*
X79812Y09563D01*
X79280Y09563D01*
X79147Y09696D01*
X79280Y09174D02*
X79147Y09041D01*
X79147Y08775D01*
X79280Y08642D01*
X79413Y08642D01*
X79546Y08775D01*
X79679Y08642D01*
X79812Y08642D01*
X79945Y08775D01*
X79945Y09041D01*
X79812Y09174D01*
X79546Y08908D02*
X79546Y08775D01*
X81687Y08908D02*
X82485Y08908D01*
X82485Y09174D02*
X82485Y08642D01*
X81953Y09174D02*
X81687Y08908D01*
X81820Y09563D02*
X81687Y09696D01*
X81687Y10095D01*
X82485Y10095D01*
X82485Y09696D01*
X82352Y09563D01*
X81820Y09563D01*
X84227Y09696D02*
X84227Y09962D01*
X84360Y10095D01*
X84892Y10095D01*
X85025Y09962D01*
X85025Y09696D01*
X84892Y09563D01*
X84892Y09174D02*
X85025Y09041D01*
X85025Y08775D01*
X84892Y08642D01*
X84759Y08642D01*
X84626Y08775D01*
X84626Y09041D01*
X84493Y09174D01*
X84360Y09174D01*
X84227Y09041D01*
X84227Y08775D01*
X84360Y08642D01*
X84493Y08253D02*
X84493Y07855D01*
X84493Y07722D01*
X84759Y07722D02*
X84759Y08253D01*
X85025Y08120D02*
X84227Y08120D01*
X84227Y07855D02*
X85025Y07855D01*
X86767Y07855D02*
X87565Y07855D01*
X87565Y08120D02*
X86767Y08120D01*
X87033Y08253D02*
X87033Y07855D01*
X87033Y07722D01*
X87299Y07722D02*
X87299Y08253D01*
X87565Y08642D02*
X86767Y08642D01*
X86767Y09174D02*
X87565Y09174D01*
X87299Y08908D01*
X87565Y08642D01*
X87565Y09563D02*
X87299Y09829D01*
X87299Y09696D02*
X87299Y10095D01*
X87565Y10095D02*
X86767Y10095D01*
X86767Y09696D01*
X86900Y09563D01*
X87166Y09563D01*
X87299Y09696D01*
X84360Y09563D02*
X84227Y09696D01*
M02*
