%
M48
M71
T01C0.300
T02C0.900
T03C1.000
T04C1.100
T05C1.600
T06C1.700
T07C2.200
T08C2.600
T09C3.180
T10C3.200
%
T01
X7854Y2854
X2854Y7854
X7854Y12854
X12854Y7854
X17854Y12854
X22854Y7854
X27854Y12854
X32854Y7854
X37854Y12854
X42854Y7854
X37854Y2854
X27854Y2854
X17854Y2854
X12854Y17854
X7854Y22854
X2854Y17854
X12854Y27854
X11254Y30054
X13504Y31654
X15004Y33454
X18904Y31604
X21004Y31604
X22504Y31604
X27304Y30054
X28704Y29504
X28704Y28204
X28704Y26904
X27854Y22854
X22854Y17854
X17854Y22854
X17854Y27854
X17504Y29254
X27854Y32854
X22854Y37854
X17854Y42854
X12854Y37854
X7854Y42854
X2854Y37854
X2854Y47854
X7854Y52854
X12854Y47854
X17854Y52854
X22854Y47854
X27854Y52854
X32854Y47854
X27854Y42854
X32854Y37854
X37854Y42854
X42854Y37854
X47854Y42854
X51354Y41504
X54354Y42854
X56154Y42854
X57854Y42854
X61504Y43754
X61704Y41904
X67354Y40504
X67654Y39054
X71254Y38454
X67354Y35004
X65754Y35004
X57854Y32854
X52854Y27854
X47854Y32854
X52854Y37854
X46454Y46404
X42854Y47854
X47854Y52854
X42854Y57854
X52854Y57854
X57854Y52854
X62854Y47854
X67854Y52854
X62854Y57854
X72854Y57854
X77854Y52854
X82854Y57854
X92854Y57854
X97854Y52854
X102854Y47854
X107854Y47854
X112854Y47854
X107854Y52854
X105154Y56154
X102854Y57854
X112854Y57854
X91854Y43854
X87854Y43854
X87204Y38854
X88804Y38854
X90404Y38854
X92004Y38854
X93604Y38854
X95204Y38854
X96704Y38854
X98204Y38854
X94804Y36304
X93954Y33854
X91604Y31604
X89354Y31604
X87104Y31604
X87104Y29354
X87104Y27104
X89354Y27104
X91604Y27104
X94404Y26554
X94654Y25154
X94904Y24204
X94054Y23054
X93304Y25304
X91504Y23904
X88404Y23804
X84704Y26154
X84704Y27604
X81404Y27604
X81404Y26004
X79154Y23954
X78854Y23004
X78854Y20704
X77354Y17204
X77804Y14004
X79354Y11304
X74854Y9404
X72154Y11304
X72154Y13554
X72654Y14654
X68904Y13654
X65354Y16354
X67354Y18104
X64104Y20854
X67354Y22304
X62154Y27354
X65804Y29104
X73204Y29354
X74304Y26604
X77004Y24654
X75954Y24204
X83854Y20704
X83854Y18854
X83854Y17354
X86254Y18854
X87754Y17004
X88154Y20604
X89654Y20604
X91654Y20604
X92204Y19404
X93104Y19654
X93204Y20604
X93004Y18354
X95304Y17504
X96404Y17354
X96354Y18354
X95904Y15854
X97854Y13854
X99004Y12454
X96354Y12154
X94304Y11254
X90554Y11304
X89104Y11304
X89104Y13504
X90404Y14354
X85604Y14004
X85854Y9854
X97854Y2854
X107854Y2854
X106954Y12704
X109354Y12654
X109354Y15204
X102554Y12704
X101654Y17804
X97804Y21304
X98153Y22604
X97954Y25654
X100304Y28204
X101904Y26504
X105304Y29704
X108404Y29804
X107604Y32254
X106104Y32254
X100304Y31104
X97854Y30354
X91604Y29354
X90104Y34054
X87854Y34804
X88354Y36004
X90704Y36804
X85604Y38854
X84004Y38854
X82404Y38854
X81054Y36254
X78004Y35454
X77454Y34654
X78004Y33854
X77454Y36854
X78004Y37654
X77454Y38454
X78004Y39254
X77454Y40654
X78004Y41454
X77454Y42254
X78004Y43054
X84854Y36004
X84854Y34704
X82254Y33204
X84454Y32254
X102854Y37854
X113404Y32204
X113404Y29004
X112854Y27854
X107854Y22854
X104354Y22854
X102803Y22604
X71054Y8854
X67054Y9854
X67954Y6054
X59504Y7004
X59504Y8304
X58354Y9304
X58704Y10454
X60054Y10454
X59954Y12954
X55354Y14354
X54104Y13054
X53654Y15054
X54004Y16554
X56154Y16704
X57704Y18354
X58604Y17554
X57004Y19504
X57854Y22854
X50204Y16654
X50004Y14554
X46354Y14554
X42854Y17854
X37854Y22854
X32854Y17854
X47854Y22854
X37854Y32854
X52754Y11154
X55504Y8654
X54204Y7354
X53054Y6054
X53604Y3704
X57854Y2854
X47854Y2854
X32854Y57854
X22854Y57854
X12854Y57854
T02
X52454Y51854
X52454Y49354
X59254Y49354
X59254Y51854
T03
X77399Y48924
X79689Y48924
X81979Y48924
X84269Y48924
X86559Y48924
X87699Y46384
X85409Y46384
X83119Y46384
X80829Y46384
X78539Y46384
X78539Y51464
X80829Y51464
X83119Y51464
X85409Y51464
X87699Y51464
X61854Y23744
X61854Y21204
X61854Y18664
X61854Y16124
X61854Y13584
X61854Y11044
X61854Y8504
X61854Y5964
X71924Y5124
X74464Y5124
X77004Y5124
X79544Y5124
X82084Y5124
X82084Y2584
X79544Y2584
X77004Y2584
X74464Y2584
X71924Y2584
X84624Y2584
X87164Y2584
X89704Y2584
X92244Y2584
X94784Y2584
X94784Y5124
X92244Y5124
X89704Y5124
X87164Y5124
X84624Y5124
X112854Y11544
X112854Y14084
X112854Y16624
X112854Y19164
T04
X28354Y37404
T05
X7354Y37404
X108854Y49854
X108854Y56854
T06
X38854Y52854
T07
X55854Y55654
T08
X43854Y52854
X38854Y57354
X33854Y52854
T09
X70359Y48924
X95349Y48924
T10
X3854Y3854
X3854Y28354
X111854Y39854
X111854Y3854
M30
