G75*
%MOMM*%
%OFA0B0*%
%FSLAX33Y33*%
%IPPOS*%
%LPD*%
%AMOC8*
5,1,8,0,0,1.08239X$1,22.5*
%
%ADD10C,0.000*%
%ADD11C,0.152*%
%ADD12C,0.200*%
D10*
X00354Y09244D02*
X21944Y09244D01*
X21944Y14324D01*
X24484Y14324D01*
X24484Y00354D01*
X70204Y00354D01*
X70204Y48614D01*
X24484Y48614D01*
X24484Y34644D01*
X21944Y34644D01*
X21944Y40994D01*
X00354Y40994D01*
X00354Y09244D01*
D11*
X10939Y13063D02*
X11505Y13063D01*
X11222Y13063D02*
X11222Y12214D01*
X11860Y12214D02*
X12426Y12780D01*
X11860Y12780D02*
X12426Y12214D01*
X13479Y12214D02*
X13479Y13063D01*
X13904Y13063D01*
X14045Y12921D01*
X14045Y12638D01*
X13904Y12497D01*
X13479Y12497D01*
X13762Y12497D02*
X14045Y12214D01*
X14400Y12214D02*
X14966Y12780D01*
X14400Y12780D02*
X14966Y12214D01*
X15813Y12356D02*
X15954Y12214D01*
X16237Y12214D01*
X16379Y12356D01*
X16379Y12638D01*
X16096Y12638D01*
X15813Y12356D02*
X15813Y12921D01*
X15954Y13063D01*
X16237Y13063D01*
X16379Y12921D01*
X16734Y13063D02*
X17299Y12214D01*
X17299Y13063D01*
X17655Y13063D02*
X18079Y13063D01*
X18220Y12921D01*
X18220Y12356D01*
X18079Y12214D01*
X17655Y12214D01*
X17655Y13063D01*
X16734Y13063D02*
X16734Y12214D01*
X35722Y06287D02*
X35722Y05722D01*
X35863Y05580D01*
X36146Y05580D01*
X36287Y05722D01*
X36642Y05722D02*
X36784Y05580D01*
X37067Y05580D01*
X37208Y05722D01*
X37208Y06004D01*
X37067Y06146D01*
X36784Y06146D01*
X36642Y06004D01*
X36642Y05722D01*
X36287Y06287D02*
X36146Y06429D01*
X35863Y06429D01*
X35722Y06287D01*
X37563Y06146D02*
X37563Y05580D01*
X37846Y05580D02*
X37846Y06004D01*
X37987Y06146D01*
X38129Y06004D01*
X38129Y05580D01*
X38484Y05580D02*
X38484Y06146D01*
X38625Y06146D01*
X38767Y06004D01*
X38908Y06146D01*
X39050Y06004D01*
X39050Y05580D01*
X38767Y05580D02*
X38767Y06004D01*
X39405Y05722D02*
X39546Y05863D01*
X39970Y05863D01*
X39970Y06004D02*
X39970Y05580D01*
X39546Y05580D01*
X39405Y05722D01*
X39546Y06146D02*
X39829Y06146D01*
X39970Y06004D01*
X40326Y06146D02*
X40326Y05580D01*
X40891Y05580D02*
X40891Y06004D01*
X40750Y06146D01*
X40326Y06146D01*
X41246Y06004D02*
X41246Y05722D01*
X41388Y05580D01*
X41812Y05580D01*
X41812Y06429D01*
X41812Y06146D02*
X41388Y06146D01*
X41246Y06004D01*
X42167Y06004D02*
X42167Y05722D01*
X42309Y05580D01*
X42591Y05580D01*
X42733Y05863D02*
X42167Y05863D01*
X42167Y06004D02*
X42309Y06146D01*
X42591Y06146D01*
X42733Y06004D01*
X42733Y05863D01*
X43088Y05863D02*
X43371Y06146D01*
X43512Y06146D01*
X43088Y06146D02*
X43088Y05580D01*
X42663Y04843D02*
X42663Y03994D01*
X42663Y04418D02*
X42804Y04560D01*
X43087Y04560D01*
X43228Y04418D01*
X43228Y03994D01*
X43584Y04136D02*
X43584Y04418D01*
X43725Y04560D01*
X44008Y04560D01*
X44149Y04418D01*
X44149Y04277D01*
X43584Y04277D01*
X43584Y04136D02*
X43725Y03994D01*
X44008Y03994D01*
X45425Y04136D02*
X45425Y04277D01*
X45567Y04418D01*
X45849Y04418D01*
X45991Y04277D01*
X45991Y04136D01*
X45849Y03994D01*
X45567Y03994D01*
X45425Y04136D01*
X45567Y04418D02*
X45425Y04560D01*
X45425Y04701D01*
X45567Y04843D01*
X45849Y04843D01*
X45991Y04701D01*
X45991Y04560D01*
X45849Y04418D01*
X46346Y04418D02*
X46911Y04418D01*
X47267Y04418D02*
X47691Y04418D01*
X47832Y04277D01*
X47832Y04136D01*
X47691Y03994D01*
X47267Y03994D01*
X47267Y04843D01*
X47691Y04843D01*
X47832Y04701D01*
X47832Y04560D01*
X47691Y04418D01*
X48187Y04560D02*
X48329Y04560D01*
X48329Y03994D01*
X48470Y03994D02*
X48187Y03994D01*
X48943Y04136D02*
X48943Y04701D01*
X49084Y04560D02*
X48801Y04560D01*
X48943Y04136D02*
X49084Y03994D01*
X48329Y04843D02*
X48329Y04984D01*
X48742Y05580D02*
X48459Y05863D01*
X48459Y06429D01*
X49025Y06429D02*
X49025Y05863D01*
X48742Y05580D01*
X49380Y05580D02*
X49663Y05580D01*
X49521Y05580D02*
X49521Y06146D01*
X49380Y06146D01*
X49521Y06429D02*
X49521Y06570D01*
X49994Y06004D02*
X50135Y06146D01*
X50559Y06146D01*
X50559Y06429D02*
X50559Y05580D01*
X50135Y05580D01*
X49994Y05722D01*
X49994Y06004D01*
X50915Y06004D02*
X50915Y05722D01*
X51056Y05580D01*
X51339Y05580D01*
X51480Y05863D02*
X50915Y05863D01*
X50915Y06004D02*
X51056Y06146D01*
X51339Y06146D01*
X51480Y06004D01*
X51480Y05863D01*
X51835Y06004D02*
X51835Y05722D01*
X51977Y05580D01*
X52260Y05580D01*
X52401Y05722D01*
X52401Y06004D01*
X52260Y06146D01*
X51977Y06146D01*
X51835Y06004D01*
X51822Y04560D02*
X51822Y03994D01*
X51398Y03994D01*
X51257Y04136D01*
X51257Y04560D01*
X50902Y04701D02*
X50760Y04843D01*
X50477Y04843D01*
X50336Y04701D01*
X50336Y04136D01*
X50477Y03994D01*
X50760Y03994D01*
X50902Y04136D01*
X50902Y04418D01*
X50619Y04418D01*
X52178Y04560D02*
X52178Y04136D01*
X52319Y03994D01*
X52743Y03994D01*
X52743Y03853D02*
X52602Y03711D01*
X52460Y03711D01*
X52743Y03853D02*
X52743Y04560D01*
X54019Y04560D02*
X54585Y04560D01*
X54585Y04277D02*
X54019Y04277D01*
X54940Y04418D02*
X55505Y04418D01*
X55660Y05580D02*
X55518Y05722D01*
X55518Y06004D01*
X55660Y06146D01*
X56084Y06146D01*
X56084Y06429D02*
X56084Y05580D01*
X55660Y05580D01*
X55163Y05722D02*
X55163Y06004D01*
X55022Y06146D01*
X54739Y06146D01*
X54598Y06004D01*
X54598Y05722D01*
X54739Y05580D01*
X55022Y05580D01*
X55163Y05722D01*
X56439Y05722D02*
X56439Y06146D01*
X56439Y05722D02*
X56581Y05580D01*
X57005Y05580D01*
X57005Y06146D01*
X57360Y06429D02*
X57501Y06429D01*
X57501Y05580D01*
X57360Y05580D02*
X57643Y05580D01*
X57974Y05722D02*
X57974Y06004D01*
X58115Y06146D01*
X58398Y06146D01*
X58539Y06004D01*
X58539Y05863D01*
X57974Y05863D01*
X57974Y05722D02*
X58115Y05580D01*
X58398Y05580D01*
X54242Y05580D02*
X54242Y06429D01*
X53960Y06146D01*
X53677Y06429D01*
X53677Y05580D01*
X47183Y05722D02*
X47183Y05863D01*
X47042Y06004D01*
X46618Y06004D01*
X46618Y05722D01*
X46759Y05580D01*
X47042Y05580D01*
X47183Y05722D01*
X46900Y06287D02*
X46618Y06004D01*
X46900Y06287D02*
X47183Y06429D01*
X45980Y06429D02*
X45980Y05580D01*
X46262Y05580D02*
X45697Y05580D01*
X45342Y05580D02*
X44776Y06429D01*
X45342Y06429D02*
X44776Y05580D01*
X45697Y06146D02*
X45980Y06429D01*
X42308Y04843D02*
X41742Y04843D01*
X42025Y04843D02*
X42025Y03994D01*
X40466Y04277D02*
X39900Y04277D01*
X39900Y04560D02*
X40466Y04560D01*
X39545Y04418D02*
X38980Y04418D01*
X37846Y06004D02*
X37705Y06146D01*
X37563Y06146D01*
X04605Y32789D02*
X04605Y33496D01*
X04180Y33496D01*
X04039Y33354D01*
X04039Y33072D01*
X04180Y32930D01*
X04605Y32930D01*
X04605Y32789D02*
X04463Y32647D01*
X04322Y32647D01*
X04960Y32930D02*
X04960Y33496D01*
X05243Y33496D02*
X05384Y33496D01*
X05243Y33496D02*
X04960Y33213D01*
X05727Y33072D02*
X05869Y33213D01*
X06293Y33213D01*
X06293Y33354D02*
X06293Y32930D01*
X05869Y32930D01*
X05727Y33072D01*
X05869Y33496D02*
X06151Y33496D01*
X06293Y33354D01*
X06648Y33496D02*
X06648Y32930D01*
X06931Y32930D02*
X06931Y33354D01*
X07072Y33496D01*
X07214Y33354D01*
X07214Y32930D01*
X07569Y32930D02*
X07569Y33496D01*
X07710Y33496D01*
X07852Y33354D01*
X07993Y33496D01*
X08134Y33354D01*
X08134Y32930D01*
X07852Y32930D02*
X07852Y33354D01*
X08490Y33354D02*
X08490Y33072D01*
X08631Y32930D01*
X08914Y32930D01*
X09055Y33213D02*
X08490Y33213D01*
X08490Y33354D02*
X08631Y33496D01*
X08914Y33496D01*
X09055Y33354D01*
X09055Y33213D01*
X09410Y33213D02*
X09693Y33496D01*
X09834Y33496D01*
X09410Y33496D02*
X09410Y32930D01*
X06931Y33354D02*
X06789Y33496D01*
X06648Y33496D01*
X04758Y34430D02*
X04758Y34996D01*
X04475Y35279D01*
X04193Y34996D01*
X04193Y34430D01*
X03837Y34572D02*
X03837Y34854D01*
X03555Y34854D01*
X03837Y34572D02*
X03696Y34430D01*
X03413Y34430D01*
X03272Y34572D01*
X03272Y35137D01*
X03413Y35279D01*
X03696Y35279D01*
X03837Y35137D01*
X04193Y34854D02*
X04758Y34854D01*
X02917Y34854D02*
X02775Y34713D01*
X02351Y34713D01*
X02351Y34430D02*
X02351Y35279D01*
X02775Y35279D01*
X02917Y35137D01*
X02917Y34854D01*
X01996Y35279D02*
X01430Y35279D01*
X01430Y34430D01*
X01430Y34854D02*
X01713Y34854D01*
X01854Y33779D02*
X01996Y33637D01*
X01996Y33354D01*
X01854Y33213D01*
X01430Y33213D01*
X01430Y32930D02*
X01430Y33779D01*
X01854Y33779D01*
X02351Y33496D02*
X02351Y32930D01*
X02351Y33213D02*
X02634Y33496D01*
X02775Y33496D01*
X03118Y33354D02*
X03118Y33072D01*
X03260Y32930D01*
X03542Y32930D01*
X03684Y33072D01*
X03684Y33354D01*
X03542Y33496D01*
X03260Y33496D01*
X03118Y33354D01*
D12*
X00354Y40994D02*
X00354Y09244D01*
X21944Y09244D01*
X21944Y40994D01*
X00354Y40994D01*
X05424Y40294D02*
X05424Y42294D01*
X13284Y42294D01*
X13284Y40294D01*
X13284Y41694D02*
X05424Y41694D01*
X05424Y38794D02*
X05424Y38144D01*
X13284Y38144D02*
X13284Y38794D01*
X15594Y39724D02*
X15594Y37184D01*
X20674Y37184D01*
X20674Y39724D01*
X15594Y39724D01*
X15654Y35404D02*
X14454Y35404D01*
X14454Y32304D01*
X15654Y32304D01*
X15654Y35404D01*
X19404Y34644D02*
X19404Y14324D01*
X21944Y14324D01*
X21944Y34644D01*
X19404Y34644D01*
X24484Y34644D02*
X24484Y14324D01*
X27024Y14324D01*
X27024Y34644D01*
X24484Y34644D01*
X29684Y34354D02*
X30684Y34354D01*
X30684Y38354D02*
X29684Y38354D01*
X29534Y40254D02*
X29534Y41454D01*
X32634Y41454D01*
X32634Y40254D01*
X29534Y40254D01*
X36034Y37004D02*
X36034Y34704D01*
X37034Y33704D01*
X36034Y33704D01*
X36034Y34704D01*
X37034Y33704D02*
X40934Y33704D01*
X40934Y37004D01*
X36034Y37004D01*
X33234Y29604D02*
X32034Y29604D01*
X32034Y26504D01*
X33234Y26504D01*
X33234Y29604D01*
X35134Y27654D02*
X35134Y26654D01*
X39134Y26654D02*
X39134Y27654D01*
X38834Y21304D02*
X42134Y21304D01*
X42134Y17404D01*
X41134Y16404D01*
X38834Y16404D01*
X38834Y21304D01*
X42134Y17404D02*
X42134Y16404D01*
X41134Y16404D01*
X42534Y12704D02*
X42534Y10004D01*
X43534Y09004D01*
X42534Y09004D01*
X42534Y10004D01*
X43534Y09004D02*
X50434Y09004D01*
X50434Y12704D01*
X42534Y12704D01*
X38609Y09379D02*
X37959Y09379D01*
X37959Y07229D01*
X38609Y07229D01*
X38609Y09379D01*
X24484Y02894D02*
X24484Y00354D01*
X70204Y00354D01*
X70204Y02894D01*
X24484Y02894D01*
X24484Y00354D02*
X24484Y48614D01*
X70204Y48614D01*
X70204Y46074D01*
X24484Y46074D01*
X24484Y48614D01*
X70204Y48614D01*
X70204Y00354D01*
X24484Y00354D01*
X18134Y09244D02*
X07974Y09244D01*
X07974Y11784D01*
X18134Y11784D01*
X18134Y09244D01*
X11604Y15354D02*
X06604Y15354D01*
X05434Y18134D02*
X00354Y18134D01*
X00354Y20674D01*
X05434Y20674D01*
X05434Y18134D01*
X06604Y18554D02*
X11604Y18554D01*
X05434Y23214D02*
X00354Y23214D01*
X00354Y30834D01*
X05434Y30834D01*
X05434Y23214D01*
X07754Y23954D02*
X07754Y24954D01*
X08754Y23954D01*
X07754Y23954D01*
X07754Y24954D02*
X07754Y27754D01*
X14254Y27754D01*
X14254Y23954D01*
X08754Y23954D01*
X51984Y23854D02*
X51984Y24154D01*
X51984Y23854D02*
X52284Y23854D01*
X58684Y23854D02*
X58984Y23854D01*
X58984Y24154D01*
X65133Y24304D02*
X65133Y24404D01*
X68333Y24404D01*
X68333Y24304D01*
X68333Y19504D02*
X68333Y19404D01*
X65133Y19404D01*
X65133Y19504D01*
X61434Y12704D02*
X60434Y12704D01*
X61434Y11704D01*
X61434Y09004D01*
X53534Y09004D01*
X53534Y12704D01*
X60434Y12704D01*
X61434Y12704D02*
X61434Y11704D01*
X58984Y30554D02*
X58684Y30854D01*
X58984Y30854D01*
X58984Y30554D01*
X52284Y30854D02*
X51984Y30854D01*
X51984Y30554D01*
M02*
