%
M48
M71
T01C0.300
T02C1.000
%
T01
X1354Y10354
X6354Y10354
X8204Y13404
X10004Y13404
X15354Y16354
X12954Y19704
X12954Y20954
X15354Y21354
X16854Y23854
X18554Y24204
X18554Y26454
X16854Y26804
X15354Y27254
X13604Y25504
X14654Y24604
X11704Y27304
X9354Y26854
X8354Y30354
X6354Y31354
X11504Y32104
X13404Y30404
X17654Y28404
X17954Y32354
X19354Y36354
X16354Y36354
X8054Y35704
X3354Y36704
X1354Y39354
X1354Y31354
X1354Y22354
X2104Y15904
X20354Y10354
X25484Y8354
X30484Y8354
X36134Y7654
X38284Y9304
X38284Y11554
X38784Y12654
X35484Y13354
X35384Y15204
X32984Y18354
X30484Y18354
X28484Y19354
X29684Y20404
X34034Y20404
X35934Y20104
X38984Y22354
X40984Y21054
X42084Y20754
X40034Y20104
X39984Y17854
X43484Y15204
X43934Y12004
X45484Y9304
X40984Y7404
X35484Y4854
X30484Y3854
X25484Y3354
X25484Y13354
X30484Y13354
X44984Y21104
X44734Y23704
X47534Y24004
X47534Y25604
X50834Y25604
X50834Y24154
X53234Y25104
X55484Y25104
X57734Y25104
X59634Y23904
X60884Y23154
X59634Y22504
X60184Y21054
X57634Y21904
X54534Y21804
X54284Y18604
X55784Y18604
X57784Y18604
X59334Y18604
X61984Y15854
X64984Y16854
X64483Y18354
X67784Y18354
X68984Y17354
X68984Y12354
X64984Y12354
X62484Y10154
X60434Y9254
X56484Y9304
X55234Y9304
X55234Y11504
X56534Y12354
X53884Y15004
X51734Y12004
X49984Y15354
X51084Y18404
X60484Y12354
X64984Y7354
X68984Y7354
X64984Y3854
X61484Y5354
X68984Y3354
X52984Y6854
X51484Y3404
X48484Y3354
X64283Y23154
X67833Y24504
X68984Y27354
X64984Y27354
X60984Y27854
X57734Y27354
X57734Y29604
X55484Y29604
X53234Y29604
X50584Y30254
X48434Y31204
X50984Y32704
X50984Y34004
X53984Y32804
X54484Y34004
X54184Y35154
X56834Y34804
X56234Y32054
X60084Y31854
X60934Y34304
X64984Y32354
X68984Y32354
X68984Y37354
X64984Y37354
X63584Y38304
X61384Y38304
X59734Y38354
X55784Y38154
X54184Y38154
X54934Y41704
X53334Y41704
X51734Y41704
X50084Y41704
X48534Y41704
X46934Y41704
X45334Y41704
X45484Y43354
X42484Y43354
X47484Y45854
X56484Y41704
X58134Y41704
X59734Y41704
X61334Y41704
X68984Y42354
X48684Y37054
X45334Y38354
X43784Y38354
X43184Y37354
X41134Y38004
X43784Y35404
X41984Y35004
X43034Y31404
X43484Y29354
X40484Y28304
X41984Y26354
X40484Y24604
X36484Y23854
X34034Y24004
X31484Y24004
X29684Y23904
X29434Y26304
X33084Y28054
X31484Y30654
X28884Y30204
X31334Y33004
X35484Y31854
X35484Y36854
X31084Y40404
X32984Y41854
X35484Y41854
X30234Y45154
X26484Y44854
X26484Y40354
X26484Y35354
X34484Y46354
X47184Y34254
X53234Y27354
T02
X25754Y28294
X25754Y25754
X25754Y23214
X25754Y20674
X25754Y18134
X25754Y15594
X20674Y15594
X20674Y18134
X20674Y20674
X20674Y23214
X20674Y25754
X20674Y28294
X20674Y30834
X20674Y33374
X25754Y33374
X25754Y30834
X19404Y38454
X16864Y38454
X12654Y39544
X6054Y39544
X4164Y29564
X1624Y29564
X1624Y27024
X4164Y27024
X4164Y24484
X1624Y24484
X1624Y19404
X4164Y19404
X9244Y10514
X11784Y10514
X14324Y10514
X16864Y10514
X25754Y1624
X28294Y1624
X30834Y1624
X33374Y1624
X35914Y1624
X38454Y1624
X40994Y1624
X43534Y1624
X46074Y1624
X48614Y1624
X51154Y1624
X53694Y1624
X56234Y1624
X58774Y1624
X61314Y1624
X63854Y1624
X66394Y1624
X68934Y1624
X68934Y47344
X66394Y47344
X63854Y47344
X61314Y47344
X58774Y47344
X56234Y47344
X53694Y47344
X51154Y47344
X48614Y47344
X46074Y47344
X43534Y47344
X40994Y47344
X38454Y47344
X35914Y47344
X33374Y47344
X30834Y47344
X28294Y47344
X25754Y47344
M30
