G75*
%MOMM*%
%OFA0B0*%
%FSLAX33Y33*%
%IPPOS*%
%LPD*%
%AMOC8*
5,1,8,0,0,1.08239X$1,22.5*
%
%ADD10C,0.000*%
%ADD11R,1.000X0.950*%
%ADD12R,0.710X1.000*%
%ADD13R,1.150X1.450*%
%ADD14R,1.600X3.700*%
%ADD15R,1.500X1.600*%
%ADD16R,0.950X1.000*%
%ADD17R,5.300X5.300*%
%ADD18C,0.300*%
%ADD19R,1.350X0.710*%
%ADD20R,1.000X0.710*%
%ADD21R,1.450X1.150*%
%ADD22R,3.700X1.600*%
%ADD23R,0.710X1.350*%
%ADD24R,0.450X1.500*%
%ADD25C,1.500*%
%ADD26R,1.500X1.500*%
%ADD27R,0.950X0.400*%
%ADD28C,1.000*%
%ADD29R,0.400X1.350*%
%ADD30R,1.600X1.400*%
%ADD31R,0.450X1.300*%
%ADD32R,2.000X2.400*%
%ADD33C,0.500*%
%ADD34C,0.700*%
%ADD35C,0.600*%
%ADD36C,0.200*%
%ADD37C,0.400*%
D10*
X00354Y09244D02*
X21944Y09244D01*
X21944Y14324D01*
X24484Y14324D01*
X24484Y00354D01*
X70204Y00354D01*
X70204Y48614D01*
X24484Y48614D01*
X24484Y34644D01*
X21944Y34644D01*
X21944Y40994D01*
X00354Y40994D01*
X00354Y09244D01*
D11*
X17954Y33204D03*
X17954Y34804D03*
X28484Y39454D03*
X28484Y41054D03*
X28484Y42604D03*
X28484Y44204D03*
X36634Y44454D03*
X38184Y44454D03*
X39734Y44454D03*
X41284Y44454D03*
X41284Y42854D03*
X39734Y42854D03*
X38184Y42854D03*
X36634Y42854D03*
X43784Y40804D03*
X45334Y40804D03*
X46934Y40804D03*
X48534Y40804D03*
X48534Y39204D03*
X46934Y39204D03*
X45334Y39204D03*
X43784Y39204D03*
X46934Y42804D03*
X48534Y42804D03*
X48534Y44404D03*
X46934Y44404D03*
X50134Y44404D03*
X51734Y44404D03*
X53334Y44404D03*
X54934Y44404D03*
X54934Y42804D03*
X53334Y42804D03*
X51734Y42804D03*
X50134Y42804D03*
X50134Y40804D03*
X51734Y40804D03*
X53334Y40804D03*
X54934Y40804D03*
X54934Y39204D03*
X53334Y39204D03*
X51734Y39204D03*
X50134Y39204D03*
X56534Y39204D03*
X58134Y39204D03*
X59734Y39204D03*
X61334Y39204D03*
X61334Y40804D03*
X59734Y40804D03*
X58134Y40804D03*
X56534Y40804D03*
X56534Y42804D03*
X58134Y42804D03*
X59734Y42804D03*
X61334Y42804D03*
X62834Y42804D03*
X64334Y42804D03*
X65834Y42804D03*
X67334Y42804D03*
X67334Y44404D03*
X65834Y44404D03*
X64334Y44404D03*
X62834Y44404D03*
X61334Y44404D03*
X59734Y44404D03*
X58134Y44404D03*
X56534Y44404D03*
X55984Y34804D03*
X57684Y34804D03*
X57684Y33204D03*
X55984Y33204D03*
X60084Y32704D03*
X61784Y32704D03*
X61784Y34304D03*
X60084Y34304D03*
X45584Y34154D03*
X45584Y32554D03*
X41984Y32554D03*
X41984Y34154D03*
X51284Y21054D03*
X52784Y21054D03*
X54284Y21054D03*
X55784Y21054D03*
X57784Y21054D03*
X59334Y21054D03*
X59334Y19454D03*
X57784Y19454D03*
X55784Y19454D03*
X54284Y19454D03*
X52784Y19454D03*
X51284Y19454D03*
X44834Y19504D03*
X44834Y17904D03*
X36184Y18354D03*
X36184Y16754D03*
X40984Y09904D03*
X40984Y08304D03*
X62484Y07704D03*
X62484Y09304D03*
X03354Y37554D03*
X03354Y39154D03*
D12*
X30134Y39454D03*
X31084Y39454D03*
X32034Y39454D03*
X32034Y42254D03*
X30134Y42254D03*
D13*
X30234Y44054D03*
X32034Y44054D03*
X30384Y33004D03*
X28584Y33004D03*
D14*
X28584Y36354D03*
X31784Y36354D03*
D15*
X65633Y23174D03*
X67833Y23174D03*
X67833Y20634D03*
X65633Y20634D03*
D16*
X65384Y18354D03*
X66984Y18354D03*
X55784Y17554D03*
X54184Y17554D03*
X52684Y17554D03*
X51084Y17554D03*
X49984Y24004D03*
X48384Y24004D03*
X48384Y25604D03*
X49984Y25604D03*
X49984Y32554D03*
X48384Y32554D03*
X48384Y34104D03*
X49984Y34104D03*
X39734Y41304D03*
X38134Y41304D03*
X18074Y31304D03*
X16474Y31304D03*
X12554Y30404D03*
X10954Y30404D03*
X10504Y21204D03*
X10504Y19704D03*
X12104Y19704D03*
X12104Y21204D03*
X03704Y16754D03*
X02104Y16754D03*
X06604Y14254D03*
X08204Y14254D03*
X10014Y14244D03*
X11614Y14244D03*
X29284Y25454D03*
X30884Y25454D03*
X32434Y25454D03*
X34034Y25454D03*
X36234Y15204D03*
X37834Y15204D03*
X39384Y15204D03*
X40984Y15204D03*
X41284Y12654D03*
X39684Y12654D03*
D17*
X55484Y27354D03*
D18*
X52309Y27104D02*
X51759Y27104D01*
X51759Y26604D02*
X52309Y26604D01*
X52309Y26104D02*
X51759Y26104D01*
X52034Y25604D02*
X50834Y25604D01*
X51759Y25604D02*
X52309Y25604D01*
X52309Y25104D02*
X51759Y25104D01*
X52034Y24604D02*
X51434Y24604D01*
X50984Y24154D01*
X50834Y24154D01*
X51759Y24604D02*
X52309Y24604D01*
X52734Y24179D02*
X52734Y23629D01*
X53234Y23629D02*
X53234Y24179D01*
X53734Y24179D02*
X53734Y23629D01*
X54234Y23629D02*
X54234Y24179D01*
X54734Y24179D02*
X54734Y23629D01*
X54734Y23904D02*
X54734Y23004D01*
X53634Y21904D01*
X52134Y21904D01*
X51284Y21054D01*
X55234Y22504D02*
X55234Y23904D01*
X55234Y24179D02*
X55234Y23629D01*
X55734Y23629D02*
X55734Y24179D01*
X56234Y24179D02*
X56234Y23629D01*
X56734Y23904D02*
X56734Y23204D01*
X57634Y22304D01*
X57634Y21904D01*
X55834Y21904D02*
X55834Y21104D01*
X55834Y21904D02*
X55234Y22504D01*
X56734Y23629D02*
X56734Y24179D01*
X57234Y24179D02*
X57234Y23629D01*
X57734Y23629D02*
X57734Y24179D01*
X58234Y24179D02*
X58234Y23629D01*
X58659Y24604D02*
X59209Y24604D01*
X59209Y25104D02*
X58659Y25104D01*
X58659Y25604D02*
X59209Y25604D01*
X59209Y26104D02*
X58659Y26104D01*
X58659Y26604D02*
X59209Y26604D01*
X59209Y27104D02*
X58659Y27104D01*
X58659Y27604D02*
X59209Y27604D01*
X59209Y28104D02*
X58659Y28104D01*
X58659Y28604D02*
X59209Y28604D01*
X59209Y29104D02*
X58659Y29104D01*
X58659Y29604D02*
X59209Y29604D01*
X59209Y30104D02*
X58659Y30104D01*
X59034Y30804D02*
X58234Y30804D01*
X58234Y30529D02*
X58234Y31079D01*
X57734Y31079D02*
X57734Y30529D01*
X57234Y30529D02*
X57234Y31079D01*
X56734Y31079D02*
X56734Y30529D01*
X56234Y30529D02*
X56234Y31079D01*
X56234Y30804D02*
X56234Y32054D01*
X55734Y31079D02*
X55734Y30529D01*
X55234Y30529D02*
X55234Y31079D01*
X54734Y31079D02*
X54734Y30529D01*
X54234Y30529D02*
X54234Y31079D01*
X53734Y31079D02*
X53734Y30529D01*
X53234Y30529D02*
X53234Y31079D01*
X52734Y31079D02*
X52734Y30529D01*
X52309Y30104D02*
X51759Y30104D01*
X51759Y29604D02*
X52309Y29604D01*
X52309Y29104D02*
X51759Y29104D01*
X51759Y28604D02*
X52309Y28604D01*
X52309Y28104D02*
X51759Y28104D01*
X51759Y27604D02*
X52309Y27604D01*
X59034Y30804D02*
X60084Y31854D01*
X59734Y40804D02*
X59734Y41704D01*
X58134Y41704D02*
X58134Y40804D01*
X56534Y40804D02*
X56484Y40854D01*
X56484Y41704D01*
X54934Y41704D02*
X54934Y40804D01*
X53334Y40804D02*
X53334Y41704D01*
X51734Y41704D02*
X51734Y40804D01*
X50134Y40804D02*
X50084Y40854D01*
X50084Y41704D01*
X48534Y41704D02*
X48534Y40804D01*
X46934Y40804D02*
X46934Y41704D01*
X45334Y41704D02*
X45334Y40804D01*
X43784Y40804D01*
X42734Y40804D01*
X42084Y40154D01*
X42084Y37804D01*
X39484Y35204D01*
X39084Y35204D01*
X37834Y33954D01*
X37834Y32744D01*
X37849Y32729D01*
X36579Y32729D02*
X36579Y31959D01*
X36984Y31554D01*
X38784Y31554D01*
X39134Y31904D01*
X39134Y32714D01*
X39119Y32729D01*
X39134Y32744D01*
X39134Y33754D01*
X39434Y34054D01*
X39684Y34054D01*
X42984Y37354D01*
X43184Y37354D01*
X30134Y42254D02*
X30134Y42454D01*
X28634Y42454D01*
X28484Y42604D01*
X28484Y41054D01*
X28484Y39454D02*
X28484Y37904D01*
X25754Y33374D02*
X20674Y33374D01*
X20674Y30834D02*
X25754Y30834D01*
X25754Y28294D02*
X20674Y28294D01*
X20674Y25754D02*
X25754Y25754D01*
X25754Y23214D02*
X20674Y23214D01*
X20674Y20674D02*
X25754Y20674D01*
X25754Y18134D02*
X20674Y18134D01*
X20674Y15594D02*
X25754Y15594D01*
X35984Y16754D02*
X36184Y16754D01*
X36354Y16924D01*
X37834Y16924D01*
X37859Y18219D02*
X36319Y18219D01*
X36184Y18354D01*
X41934Y15204D02*
X41934Y14404D01*
X41434Y13904D01*
X42909Y13754D02*
X42909Y12679D01*
X42834Y12604D01*
X41334Y12604D01*
X41284Y12654D01*
X42834Y12604D02*
X43434Y12604D01*
X43559Y12729D01*
X43559Y13754D01*
X41934Y15204D02*
X42734Y16004D01*
X44034Y16004D01*
X44834Y16804D01*
X44834Y17904D01*
X44819Y19489D02*
X43109Y19489D01*
X44819Y19489D02*
X44834Y19504D01*
X53884Y15004D02*
X53884Y13779D01*
X60409Y09229D02*
X60434Y09254D01*
X60409Y09229D02*
X60409Y07954D01*
X61059Y07954D02*
X62234Y07954D01*
X62484Y07704D01*
X42909Y07954D02*
X42909Y10029D01*
X43034Y10154D01*
X37184Y07654D02*
X36134Y07654D01*
X35584Y25454D02*
X34034Y25454D01*
X32434Y25454D02*
X30884Y25454D01*
X31034Y25604D01*
X31034Y27104D01*
X31234Y27104D01*
X11704Y27304D02*
X11329Y27679D01*
X11329Y28704D01*
X10029Y28704D02*
X10004Y28729D01*
X10004Y36869D01*
X09354Y36869D02*
X09354Y28729D01*
X09379Y28704D01*
X10679Y25754D02*
X02904Y25754D01*
X02904Y20684D01*
X01624Y19404D01*
X04154Y19414D02*
X04154Y20604D01*
X06554Y23004D01*
X08079Y23004D01*
X04164Y19404D02*
X04154Y19414D01*
X04164Y19404D02*
X04164Y17214D01*
X03704Y16754D01*
X02904Y25754D02*
X02904Y28284D01*
X01624Y29564D01*
X03354Y39154D02*
X03744Y39544D01*
X06054Y39544D01*
X28484Y44204D02*
X28634Y44054D01*
X61334Y41704D02*
X61334Y40804D01*
D19*
X43109Y20759D03*
X43109Y19489D03*
X43109Y18219D03*
X43109Y16949D03*
X37859Y16949D03*
X37859Y18219D03*
X37859Y19489D03*
X37859Y20759D03*
D20*
X34034Y27104D03*
X34034Y28054D03*
X34034Y29004D03*
X31234Y29004D03*
X31234Y27104D03*
X16454Y32904D03*
X16454Y34804D03*
X13654Y34804D03*
X13654Y33854D03*
X13654Y32904D03*
D21*
X11504Y33004D03*
X11504Y34804D03*
X29434Y29004D03*
X29434Y27204D03*
X40484Y27354D03*
X40484Y25554D03*
X43784Y32654D03*
X43784Y34454D03*
D22*
X37134Y28754D03*
X37134Y25554D03*
D23*
X36579Y32729D03*
X37849Y32729D03*
X39119Y32729D03*
X40389Y32729D03*
X40389Y37979D03*
X39119Y37979D03*
X37849Y37979D03*
X36579Y37979D03*
D24*
X42909Y13754D03*
X43559Y13754D03*
X44209Y13754D03*
X44859Y13754D03*
X45509Y13754D03*
X46159Y13754D03*
X46809Y13754D03*
X47459Y13754D03*
X48109Y13754D03*
X48759Y13754D03*
X49409Y13754D03*
X50059Y13754D03*
X53909Y13754D03*
X54559Y13754D03*
X55209Y13754D03*
X55859Y13754D03*
X56509Y13754D03*
X57159Y13754D03*
X57809Y13754D03*
X58459Y13754D03*
X59109Y13754D03*
X59759Y13754D03*
X60409Y13754D03*
X61059Y13754D03*
X61059Y07954D03*
X60409Y07954D03*
X59759Y07954D03*
X59109Y07954D03*
X58459Y07954D03*
X57809Y07954D03*
X57159Y07954D03*
X56509Y07954D03*
X55859Y07954D03*
X55209Y07954D03*
X54559Y07954D03*
X53909Y07954D03*
X50059Y07954D03*
X49409Y07954D03*
X48759Y07954D03*
X48109Y07954D03*
X47459Y07954D03*
X46809Y07954D03*
X46159Y07954D03*
X45509Y07954D03*
X44859Y07954D03*
X44209Y07954D03*
X43559Y07954D03*
X42909Y07954D03*
D25*
X43534Y01624D03*
X40994Y01624D03*
X38454Y01624D03*
X35914Y01624D03*
X33374Y01624D03*
X30834Y01624D03*
X28294Y01624D03*
X16864Y10514D03*
X14324Y10514D03*
X11784Y10514D03*
X20674Y15594D03*
X20674Y18134D03*
X20674Y20674D03*
X20674Y23214D03*
X20674Y25754D03*
X20674Y28294D03*
X20674Y30834D03*
X25754Y30834D03*
X25754Y28294D03*
X25754Y25754D03*
X25754Y23214D03*
X25754Y20674D03*
X25754Y18134D03*
X25754Y15594D03*
X46074Y01624D03*
X48614Y01624D03*
X51154Y01624D03*
X53694Y01624D03*
X56234Y01624D03*
X58774Y01624D03*
X61314Y01624D03*
X63854Y01624D03*
X66394Y01624D03*
X68934Y01624D03*
X16864Y38454D03*
X12654Y39544D03*
X06054Y39544D03*
X04164Y29564D03*
X01624Y29564D03*
X01624Y27024D03*
X04164Y27024D03*
X04164Y24484D03*
X01624Y24484D03*
X04164Y19404D03*
X28294Y47344D03*
X30834Y47344D03*
X33374Y47344D03*
X35914Y47344D03*
X38454Y47344D03*
X40994Y47344D03*
X43534Y47344D03*
X46074Y47344D03*
X48614Y47344D03*
X51154Y47344D03*
X53694Y47344D03*
X56234Y47344D03*
X58774Y47344D03*
X61314Y47344D03*
X63854Y47344D03*
X66394Y47344D03*
X68934Y47344D03*
D26*
X25754Y47344D03*
X19404Y38454D03*
X20674Y33374D03*
X25754Y33374D03*
X01624Y19404D03*
X09244Y10514D03*
X25754Y01624D03*
D27*
X37184Y07654D03*
X37184Y08304D03*
X37184Y08954D03*
X39384Y08954D03*
X39384Y07654D03*
D28*
X26984Y05354D03*
X67984Y05354D03*
X67984Y39854D03*
D29*
X10654Y36869D03*
X10004Y36869D03*
X09354Y36869D03*
X08704Y36869D03*
X08054Y36869D03*
D30*
X06154Y37119D03*
X12554Y37119D03*
D31*
X12629Y28704D03*
X11979Y28704D03*
X11329Y28704D03*
X10679Y28704D03*
X10029Y28704D03*
X09379Y28704D03*
X08729Y28704D03*
X08079Y28704D03*
X13279Y28704D03*
X13929Y28704D03*
X13929Y23004D03*
X13279Y23004D03*
X12629Y23004D03*
X11979Y23004D03*
X11329Y23004D03*
X10679Y23004D03*
X10029Y23004D03*
X09379Y23004D03*
X08729Y23004D03*
X08079Y23004D03*
D32*
X07104Y16954D03*
X11104Y16954D03*
D33*
X10014Y14244D02*
X10014Y13414D01*
X10004Y13404D01*
X08204Y13404D02*
X08204Y14254D01*
X02104Y15904D02*
X02104Y16754D01*
X10504Y19704D02*
X10504Y21204D01*
X12104Y19704D02*
X12954Y19704D01*
X27984Y24904D02*
X28984Y23904D01*
X29684Y23904D01*
X31484Y24004D02*
X34034Y24004D01*
X35584Y25454D02*
X35684Y25554D01*
X37134Y25554D01*
X40484Y25554D01*
X40484Y24604D01*
X40484Y27354D02*
X40484Y28304D01*
X37134Y28754D02*
X37134Y29004D01*
X34034Y29004D01*
X34034Y28054D02*
X33084Y28054D01*
X31234Y29004D02*
X29434Y29004D01*
X27984Y29004D01*
X27984Y24904D01*
X29284Y25454D02*
X29434Y25604D01*
X29434Y26304D01*
X29434Y27204D01*
X27984Y29004D02*
X27984Y30454D01*
X27084Y31354D01*
X27084Y32054D01*
X25764Y33374D01*
X25754Y33374D01*
X25234Y33894D01*
X25234Y46004D01*
X31234Y46004D01*
X32034Y45204D01*
X32034Y44054D01*
X32034Y42254D01*
X30234Y44054D02*
X30034Y44054D01*
X29934Y44154D01*
X28734Y44154D01*
X28634Y44054D01*
X30234Y44054D02*
X30234Y45154D01*
X25754Y47344D02*
X25234Y46824D01*
X25234Y46004D01*
X31084Y40404D02*
X31084Y39454D01*
X32034Y39454D02*
X32034Y36604D01*
X31784Y36354D01*
X28584Y36354D02*
X28584Y33004D01*
X28584Y31854D01*
X29784Y30654D01*
X31484Y30654D01*
X36184Y30654D01*
X36384Y30454D01*
X43584Y30454D01*
X44334Y31204D01*
X46734Y31204D01*
X48434Y31204D01*
X46734Y31204D02*
X46734Y32554D01*
X48384Y32554D01*
X48384Y34104D01*
X46734Y33354D02*
X46734Y32554D01*
X46734Y33354D02*
X45934Y34154D01*
X45584Y34154D01*
X43784Y34454D02*
X43784Y35404D01*
X41984Y35004D02*
X41984Y34154D01*
X41984Y32554D02*
X40564Y32554D01*
X40389Y32729D01*
X41984Y32554D02*
X43684Y32554D01*
X43784Y32654D01*
X43884Y32554D01*
X45584Y32554D01*
X41134Y38004D02*
X40414Y38004D01*
X40389Y37979D01*
X39134Y37994D02*
X39134Y38904D01*
X41284Y41054D01*
X41284Y42854D01*
X39734Y42854D02*
X39734Y41304D01*
X39734Y41104D01*
X37849Y39219D01*
X37849Y37979D01*
X36634Y38034D02*
X36579Y37979D01*
X36634Y38034D02*
X36634Y42854D01*
X38184Y42854D02*
X38184Y41354D01*
X38134Y41304D01*
X38184Y44454D02*
X36634Y44454D01*
X36634Y46624D01*
X35914Y47344D01*
X39734Y46084D02*
X39734Y44454D01*
X41284Y44454D02*
X43184Y44454D01*
X46074Y47344D01*
X48534Y47264D02*
X48614Y47344D01*
X48534Y47264D02*
X48534Y44404D01*
X50134Y44404D01*
X51734Y44404D01*
X53334Y44404D02*
X53334Y46984D01*
X53694Y47344D01*
X53334Y44404D02*
X54934Y44404D01*
X56534Y44404D01*
X58134Y44404D01*
X59734Y44404D02*
X59734Y46384D01*
X58774Y47344D01*
X59734Y44404D02*
X61334Y44404D01*
X62834Y44404D01*
X64334Y44404D01*
X65834Y44404D02*
X65834Y45364D01*
X63854Y47344D01*
X66394Y47344D02*
X67334Y46404D01*
X67334Y44404D01*
X59734Y39204D02*
X59734Y38354D01*
X60084Y34304D02*
X60934Y34304D01*
X61784Y34304D01*
X61784Y32704D02*
X60084Y32704D01*
X60084Y31854D01*
X57684Y33204D02*
X55984Y33204D01*
X56234Y32954D01*
X56234Y32054D01*
X55484Y29604D02*
X53234Y29604D01*
X55484Y29604D02*
X55484Y27354D01*
X55484Y25104D01*
X53234Y25104D01*
X55484Y25104D02*
X57734Y25104D01*
X57734Y27354D01*
X57734Y29604D01*
X55484Y29604D01*
X55484Y27354D02*
X53234Y27354D01*
X50834Y25604D02*
X49984Y25604D01*
X48384Y25604D02*
X47534Y25604D01*
X47534Y24004D02*
X48384Y24004D01*
X49984Y24004D02*
X50134Y24154D01*
X50834Y24154D01*
X54534Y21804D02*
X54534Y21304D01*
X54284Y21054D01*
X55784Y21054D01*
X55834Y21104D01*
X57634Y21204D02*
X57784Y21054D01*
X59334Y21054D01*
X60184Y21054D01*
X59334Y19454D02*
X59334Y18604D01*
X57784Y18604D02*
X57784Y19454D01*
X55784Y19454D02*
X55784Y18604D01*
X55784Y17654D01*
X55734Y17604D01*
X55784Y17554D01*
X54184Y17554D02*
X52684Y17554D01*
X52734Y17604D01*
X52734Y19404D01*
X52784Y19454D01*
X51284Y19454D01*
X51084Y18404D02*
X51084Y17554D01*
X54284Y18604D02*
X54284Y19454D01*
X54284Y21054D02*
X52784Y21054D01*
X57634Y21204D02*
X57634Y21904D01*
X64483Y18354D02*
X65384Y18354D01*
X65384Y20385D01*
X65633Y20634D01*
X65613Y20654D01*
X66984Y18354D02*
X67784Y18354D01*
X67833Y23174D02*
X67833Y24504D01*
X63334Y11104D02*
X61984Y11104D01*
X61034Y10154D01*
X43034Y10154D01*
X41234Y10154D01*
X40984Y09904D01*
X40734Y10154D01*
X39384Y10154D01*
X36834Y10154D01*
X29684Y17304D01*
X29684Y20404D01*
X34034Y20404D02*
X34034Y17854D01*
X35134Y16754D01*
X36184Y16754D01*
X37834Y16924D02*
X37834Y15204D01*
X39384Y15204D01*
X39384Y14304D01*
X39784Y13904D01*
X41184Y13904D01*
X41284Y13804D01*
X41284Y12654D01*
X39684Y12654D02*
X38834Y12654D01*
X41184Y13904D02*
X41434Y13904D01*
X37859Y16949D02*
X37834Y16924D01*
X36234Y15204D02*
X35384Y15204D01*
X42084Y20754D02*
X43114Y20754D01*
X43109Y20759D01*
X31334Y33004D02*
X30384Y33004D01*
X28584Y36354D02*
X28584Y37804D01*
X28484Y37904D01*
X39119Y37979D02*
X39134Y37994D01*
X43784Y38354D02*
X43784Y39204D01*
X45334Y39204D02*
X45334Y38354D01*
X46934Y44404D02*
X48534Y44404D01*
X40994Y47344D02*
X39734Y46084D01*
X17954Y33204D02*
X17954Y32354D01*
X18074Y32234D01*
X18074Y31304D01*
X16474Y31304D02*
X16454Y31324D01*
X16454Y32904D01*
X15204Y31654D02*
X15204Y31604D01*
X15204Y31654D02*
X15204Y34404D01*
X15604Y34804D01*
X16454Y34804D01*
X13654Y33854D02*
X12804Y33854D01*
X11954Y33004D01*
X11504Y33004D01*
X11504Y32104D01*
X12554Y30404D02*
X13404Y30404D01*
X12554Y37119D02*
X12654Y37219D01*
X12654Y39544D01*
X06054Y39544D01*
X06054Y37219D01*
X06154Y37119D01*
X03354Y36704D02*
X03354Y37554D01*
X40984Y08304D02*
X40984Y07404D01*
X41034Y07354D01*
X62484Y07704D02*
X63384Y07704D01*
X63734Y08054D01*
X63734Y10704D01*
X63334Y11104D01*
X62484Y10154D02*
X62484Y09304D01*
D34*
X62484Y10154D03*
X60434Y09254D03*
X56484Y09304D03*
X55234Y09304D03*
X55234Y11504D03*
X56534Y12354D03*
X53884Y15004D03*
X51734Y12004D03*
X49984Y15354D03*
X51084Y18404D03*
X54284Y18604D03*
X55784Y18604D03*
X57784Y18604D03*
X59334Y18604D03*
X60184Y21054D03*
X59634Y22504D03*
X60884Y23154D03*
X59634Y23904D03*
X57734Y25104D03*
X55484Y25104D03*
X53234Y25104D03*
X50834Y25604D03*
X50834Y24154D03*
X47534Y24004D03*
X47534Y25604D03*
X44734Y23704D03*
X44984Y21104D03*
X42084Y20754D03*
X40984Y21054D03*
X40034Y20104D03*
X38984Y22354D03*
X36484Y23854D03*
X34034Y24004D03*
X31484Y24004D03*
X29684Y23904D03*
X29434Y26304D03*
X33084Y28054D03*
X31484Y30654D03*
X28884Y30204D03*
X31334Y33004D03*
X35484Y31854D03*
X40484Y28304D03*
X41984Y26354D03*
X40484Y24604D03*
X43484Y29354D03*
X43034Y31404D03*
X47184Y34254D03*
X43784Y35404D03*
X41984Y35004D03*
X43184Y37354D03*
X43784Y38354D03*
X45334Y38354D03*
X48684Y37054D03*
X50984Y34004D03*
X50984Y32704D03*
X48434Y31204D03*
X50584Y30254D03*
X53234Y29604D03*
X55484Y29604D03*
X57734Y29604D03*
X57734Y27354D03*
X60984Y27854D03*
X64984Y27354D03*
X68984Y27354D03*
X67833Y24504D03*
X64283Y23154D03*
X64483Y18354D03*
X64984Y16854D03*
X67784Y18354D03*
X68984Y17354D03*
X68984Y12354D03*
X64984Y12354D03*
X60484Y12354D03*
X61984Y15854D03*
X57634Y21904D03*
X54534Y21804D03*
X53234Y27354D03*
X56234Y32054D03*
X53984Y32804D03*
X54484Y34004D03*
X54184Y35154D03*
X56834Y34804D03*
X55784Y38154D03*
X54184Y38154D03*
X54934Y41704D03*
X53334Y41704D03*
X51734Y41704D03*
X50084Y41704D03*
X48534Y41704D03*
X46934Y41704D03*
X45334Y41704D03*
X45484Y43354D03*
X42484Y43354D03*
X47484Y45854D03*
X56484Y41704D03*
X58134Y41704D03*
X59734Y41704D03*
X61334Y41704D03*
X61384Y38304D03*
X59734Y38354D03*
X63584Y38304D03*
X64984Y37354D03*
X68984Y37354D03*
X68984Y32354D03*
X64984Y32354D03*
X60934Y34304D03*
X60084Y31854D03*
X68984Y42354D03*
X41134Y38004D03*
X35484Y36854D03*
X31084Y40404D03*
X32984Y41854D03*
X35484Y41854D03*
X30234Y45154D03*
X26484Y44854D03*
X26484Y40354D03*
X26484Y35354D03*
X19354Y36354D03*
X16354Y36354D03*
X17954Y32354D03*
X13404Y30404D03*
X11504Y32104D03*
X08354Y30354D03*
X06354Y31354D03*
X08054Y35704D03*
X03354Y36704D03*
X01354Y39354D03*
X01354Y31354D03*
X09354Y26854D03*
X11704Y27304D03*
X13604Y25504D03*
X14654Y24604D03*
X16854Y23854D03*
X18554Y24204D03*
X18554Y26454D03*
X16854Y26804D03*
X15354Y27254D03*
X17654Y28404D03*
X15354Y21354D03*
X12954Y20954D03*
X12954Y19704D03*
X15354Y16354D03*
X10004Y13404D03*
X08204Y13404D03*
X06354Y10354D03*
X01354Y10354D03*
X02104Y15904D03*
X01354Y22354D03*
X20354Y10354D03*
X25484Y08354D03*
X30484Y08354D03*
X36134Y07654D03*
X38284Y09304D03*
X38284Y11554D03*
X38784Y12654D03*
X35484Y13354D03*
X35384Y15204D03*
X32984Y18354D03*
X30484Y18354D03*
X28484Y19354D03*
X29684Y20404D03*
X34034Y20404D03*
X35934Y20104D03*
X39984Y17854D03*
X43484Y15204D03*
X43934Y12004D03*
X45484Y09304D03*
X40984Y07404D03*
X35484Y04854D03*
X30484Y03854D03*
X25484Y03354D03*
X25484Y13354D03*
X30484Y13354D03*
X48484Y03354D03*
X51484Y03404D03*
X52984Y06854D03*
X61484Y05354D03*
X64984Y03854D03*
X68984Y03354D03*
X68984Y07354D03*
X64984Y07354D03*
X34484Y46354D03*
D35*
X55984Y34804D02*
X56834Y34804D01*
X57684Y34804D01*
D36*
X57584Y34893D02*
X56084Y34893D01*
X56084Y34904D02*
X57584Y34904D01*
X57584Y35633D01*
X57137Y35633D01*
X57047Y35609D01*
X56967Y35562D01*
X56901Y35496D01*
X56854Y35416D01*
X56834Y35341D01*
X56814Y35416D01*
X56767Y35496D01*
X56701Y35562D01*
X56621Y35609D01*
X56531Y35633D01*
X56084Y35633D01*
X56084Y34904D01*
X55884Y34904D01*
X55884Y35633D01*
X55534Y35633D01*
X55534Y35670D01*
X55334Y35870D01*
X55334Y38429D01*
X55558Y38429D01*
X55734Y38605D01*
X55910Y38429D01*
X56134Y38429D01*
X56134Y37888D01*
X56368Y37654D01*
X58084Y35938D01*
X58084Y35633D01*
X57784Y35633D01*
X57784Y34904D01*
X57584Y34904D01*
X57584Y34704D01*
X56838Y34704D01*
X56084Y34704D01*
X56084Y34904D01*
X56084Y35092D02*
X55884Y35092D01*
X55884Y35290D02*
X56084Y35290D01*
X56084Y35489D02*
X55884Y35489D01*
X55517Y35687D02*
X58084Y35687D01*
X58084Y35886D02*
X55334Y35886D01*
X55334Y36084D02*
X57938Y36084D01*
X57740Y36283D02*
X55334Y36283D01*
X55334Y36481D02*
X57541Y36481D01*
X57343Y36680D02*
X55334Y36680D01*
X55334Y36878D02*
X57144Y36878D01*
X56946Y37077D02*
X55334Y37077D01*
X55334Y37275D02*
X56747Y37275D01*
X56549Y37474D02*
X55334Y37474D01*
X55334Y37672D02*
X56350Y37672D01*
X56152Y37871D02*
X55334Y37871D01*
X55334Y38069D02*
X56134Y38069D01*
X56134Y38268D02*
X55334Y38268D01*
X55595Y38466D02*
X55873Y38466D01*
X55734Y38605D02*
X55734Y39438D01*
X55734Y39438D01*
X55734Y38605D01*
X55734Y38665D02*
X55734Y38665D01*
X55734Y38863D02*
X55734Y38863D01*
X55734Y39062D02*
X55734Y39062D01*
X55734Y39260D02*
X55734Y39260D01*
X55734Y40004D02*
X56534Y39204D01*
X56534Y38054D01*
X58484Y36104D01*
X58484Y32554D01*
X58334Y32404D01*
X57684Y32404D01*
X56734Y31454D01*
X56734Y30804D01*
X57234Y30804D02*
X57234Y31354D01*
X57884Y32004D01*
X58534Y32004D01*
X58884Y32354D01*
X58884Y37304D01*
X58134Y38054D01*
X58134Y39204D01*
X57334Y40004D01*
X57334Y42004D01*
X58134Y42804D01*
X58934Y42833D02*
X58934Y42833D01*
X58934Y43032D02*
X58934Y43032D01*
X58934Y43230D02*
X58934Y43230D01*
X58934Y43403D02*
X58758Y43579D01*
X57510Y43579D01*
X57334Y43403D01*
X57158Y43579D01*
X55910Y43579D01*
X55734Y43403D01*
X55558Y43579D01*
X54310Y43579D01*
X54134Y43403D01*
X53958Y43579D01*
X52710Y43579D01*
X52534Y43403D01*
X52358Y43579D01*
X51110Y43579D01*
X50934Y43403D01*
X50758Y43579D01*
X49510Y43579D01*
X49334Y43403D01*
X49158Y43579D01*
X47910Y43579D01*
X47734Y43403D01*
X47558Y43579D01*
X46310Y43579D01*
X46134Y43403D01*
X46134Y42570D01*
X45968Y42404D01*
X45761Y42196D01*
X45702Y42255D01*
X45463Y42354D01*
X45205Y42354D01*
X44966Y42255D01*
X44783Y42072D01*
X44684Y41833D01*
X44684Y41575D01*
X44690Y41560D01*
X44559Y41428D01*
X44408Y41579D01*
X43160Y41579D01*
X42984Y41403D01*
X42984Y41254D01*
X42548Y41254D01*
X41898Y40604D01*
X41634Y40340D01*
X41634Y37990D01*
X41098Y37454D01*
X41098Y37901D01*
X40467Y37901D01*
X40467Y38057D01*
X40311Y38057D01*
X40311Y39008D01*
X40016Y39008D01*
X41834Y40826D01*
X41834Y42079D01*
X41908Y42079D01*
X42084Y42255D01*
X42084Y43453D01*
X41908Y43629D01*
X40660Y43629D01*
X40509Y43478D01*
X40358Y43629D01*
X39110Y43629D01*
X38959Y43478D01*
X38808Y43629D01*
X37560Y43629D01*
X37409Y43478D01*
X37258Y43629D01*
X36010Y43629D01*
X35834Y43453D01*
X35834Y42255D01*
X36010Y42079D01*
X36084Y42079D01*
X36084Y38938D01*
X35924Y38778D01*
X35924Y37180D01*
X36100Y37004D01*
X37058Y37004D01*
X37214Y37160D01*
X37370Y37004D01*
X38328Y37004D01*
X38484Y37160D01*
X38640Y37004D01*
X39598Y37004D01*
X39725Y37131D01*
X39751Y37087D01*
X39817Y37021D01*
X39897Y36974D01*
X39987Y36950D01*
X40311Y36950D01*
X40311Y37901D01*
X40467Y37901D01*
X40467Y36950D01*
X40594Y36950D01*
X39298Y35654D01*
X38898Y35654D01*
X37648Y34404D01*
X37384Y34140D01*
X37384Y33704D01*
X37370Y33704D01*
X37214Y33548D01*
X37058Y33704D01*
X36100Y33704D01*
X35924Y33528D01*
X35924Y31930D01*
X36100Y31754D01*
X36148Y31754D01*
X36534Y31368D01*
X36798Y31104D01*
X38970Y31104D01*
X39320Y31454D01*
X39584Y31718D01*
X39584Y31754D01*
X39598Y31754D01*
X39754Y31910D01*
X39910Y31754D01*
X40868Y31754D01*
X41044Y31930D01*
X41044Y32004D01*
X41184Y32004D01*
X41184Y31955D01*
X41360Y31779D01*
X42608Y31779D01*
X42771Y31942D01*
X42935Y31779D01*
X44633Y31779D01*
X44796Y31942D01*
X44960Y31779D01*
X46184Y31779D01*
X46184Y31754D01*
X44106Y31754D01*
X43784Y31432D01*
X43356Y31004D01*
X36612Y31004D01*
X36412Y31204D01*
X31853Y31204D01*
X31852Y31205D01*
X31613Y31304D01*
X31355Y31304D01*
X31116Y31205D01*
X31115Y31204D01*
X30012Y31204D01*
X29237Y31979D01*
X29283Y31979D01*
X29459Y32155D01*
X29459Y32217D01*
X29479Y32142D01*
X29526Y32062D01*
X29592Y31996D01*
X29672Y31949D01*
X29762Y31925D01*
X30284Y31925D01*
X30284Y32904D01*
X30484Y32904D01*
X30484Y33104D01*
X30284Y33104D01*
X30284Y34083D01*
X29762Y34083D01*
X29672Y34059D01*
X29592Y34012D01*
X29526Y33946D01*
X29479Y33866D01*
X29459Y33791D01*
X29459Y33853D01*
X29283Y34029D01*
X29134Y34029D01*
X29134Y34204D01*
X29508Y34204D01*
X29684Y34380D01*
X29684Y38328D01*
X29508Y38504D01*
X28934Y38504D01*
X28934Y38679D01*
X29108Y38679D01*
X29284Y38855D01*
X29284Y40053D01*
X29108Y40229D01*
X27860Y40229D01*
X27684Y40053D01*
X27684Y38855D01*
X27860Y38679D01*
X28034Y38679D01*
X28034Y38504D01*
X27660Y38504D01*
X27484Y38328D01*
X27484Y34380D01*
X27660Y34204D01*
X28034Y34204D01*
X28034Y34029D01*
X27885Y34029D01*
X27709Y33853D01*
X27709Y32155D01*
X27885Y31979D01*
X28034Y31979D01*
X28034Y31626D01*
X29234Y30426D01*
X29556Y30104D01*
X31115Y30104D01*
X31116Y30103D01*
X31355Y30004D01*
X31613Y30004D01*
X31852Y30103D01*
X31853Y30104D01*
X35956Y30104D01*
X36156Y29904D01*
X43812Y29904D01*
X44562Y30654D01*
X45468Y30654D01*
X45384Y30570D01*
X42584Y27770D01*
X42584Y26070D01*
X41509Y24995D01*
X41509Y26253D01*
X41333Y26429D01*
X41271Y26429D01*
X41346Y26449D01*
X41426Y26496D01*
X41492Y26562D01*
X41539Y26642D01*
X41563Y26732D01*
X41563Y27254D01*
X40584Y27254D01*
X40584Y27454D01*
X40384Y27454D01*
X40384Y28283D01*
X39712Y28283D01*
X39622Y28259D01*
X39542Y28212D01*
X39476Y28146D01*
X39429Y28066D01*
X39405Y27976D01*
X39405Y27454D01*
X40384Y27454D01*
X40384Y27254D01*
X39405Y27254D01*
X39405Y26732D01*
X39429Y26642D01*
X39476Y26562D01*
X39542Y26496D01*
X39622Y26449D01*
X39697Y26429D01*
X39635Y26429D01*
X39459Y26253D01*
X39459Y26104D01*
X39284Y26104D01*
X39284Y26478D01*
X39108Y26654D01*
X35160Y26654D01*
X34984Y26478D01*
X34984Y25904D01*
X34809Y25904D01*
X34809Y26078D01*
X34633Y26254D01*
X33435Y26254D01*
X33259Y26078D01*
X33259Y24830D01*
X33435Y24654D01*
X34633Y24654D01*
X34809Y24830D01*
X34809Y25004D01*
X34984Y25004D01*
X34984Y24630D01*
X35160Y24454D01*
X39108Y24454D01*
X39284Y24630D01*
X39284Y25004D01*
X39459Y25004D01*
X39459Y24855D01*
X39635Y24679D01*
X39834Y24679D01*
X39834Y24475D01*
X39933Y24236D01*
X40015Y24154D01*
X38118Y24154D01*
X37884Y23920D01*
X37518Y23554D01*
X34503Y23554D01*
X34585Y23636D01*
X34684Y23875D01*
X34684Y24133D01*
X34585Y24372D01*
X34402Y24555D01*
X34163Y24654D01*
X33905Y24654D01*
X33666Y24555D01*
X33665Y24554D01*
X31853Y24554D01*
X31852Y24555D01*
X31613Y24654D01*
X31355Y24654D01*
X31116Y24555D01*
X30933Y24372D01*
X30834Y24133D01*
X30834Y23875D01*
X30933Y23636D01*
X31015Y23554D01*
X30243Y23554D01*
X30334Y23775D01*
X30334Y24033D01*
X30235Y24272D01*
X30052Y24455D01*
X29813Y24554D01*
X29555Y24554D01*
X29316Y24455D01*
X29315Y24454D01*
X29212Y24454D01*
X29066Y24600D01*
X29184Y24600D01*
X29184Y25354D01*
X29384Y25354D01*
X29384Y24600D01*
X29806Y24600D01*
X29896Y24624D01*
X29976Y24671D01*
X30042Y24737D01*
X30089Y24817D01*
X30109Y24892D01*
X30109Y24830D01*
X30285Y24654D01*
X31483Y24654D01*
X31659Y24830D01*
X31835Y24654D01*
X33033Y24654D01*
X33209Y24830D01*
X33209Y26078D01*
X33033Y26254D01*
X31835Y26254D01*
X31659Y26078D01*
X31484Y26253D01*
X31484Y26449D01*
X31858Y26449D01*
X32034Y26625D01*
X32034Y27438D01*
X32168Y27304D01*
X32768Y26704D01*
X33234Y26704D01*
X33234Y26625D01*
X33410Y26449D01*
X34658Y26449D01*
X34834Y26625D01*
X34834Y27511D01*
X34864Y27562D01*
X34888Y27652D01*
X34888Y27976D01*
X34112Y27976D01*
X34112Y28131D01*
X34888Y28131D01*
X34888Y28454D01*
X34984Y28454D01*
X34984Y27830D01*
X35160Y27654D01*
X39108Y27654D01*
X39284Y27830D01*
X39284Y29678D01*
X39108Y29854D01*
X35160Y29854D01*
X34984Y29678D01*
X34984Y29554D01*
X34763Y29554D01*
X34658Y29659D01*
X33410Y29659D01*
X33234Y29483D01*
X33234Y28597D01*
X33204Y28546D01*
X33180Y28456D01*
X33180Y28131D01*
X33956Y28131D01*
X33956Y27976D01*
X33180Y27976D01*
X33180Y27652D01*
X33204Y27562D01*
X33234Y27511D01*
X33234Y27504D01*
X33100Y27504D01*
X32734Y27870D01*
X32734Y28320D01*
X32500Y28554D01*
X32500Y28554D01*
X32034Y29020D01*
X32034Y29483D01*
X31858Y29659D01*
X30610Y29659D01*
X30505Y29554D01*
X30459Y29554D01*
X30459Y29703D01*
X30283Y29879D01*
X28585Y29879D01*
X28534Y29828D01*
X28534Y30682D01*
X28212Y31004D01*
X27634Y31582D01*
X27634Y32282D01*
X27312Y32604D01*
X26804Y33112D01*
X26804Y34248D01*
X26628Y34424D01*
X25784Y34424D01*
X25784Y45454D01*
X31006Y45454D01*
X31381Y45079D01*
X31335Y45079D01*
X31159Y44903D01*
X31159Y44841D01*
X31139Y44916D01*
X31092Y44996D01*
X31026Y45062D01*
X30946Y45109D01*
X30856Y45133D01*
X30334Y45133D01*
X30334Y44154D01*
X30134Y44154D01*
X30134Y45133D01*
X29612Y45133D01*
X29522Y45109D01*
X29442Y45062D01*
X29376Y44996D01*
X29329Y44916D01*
X29306Y44829D01*
X29267Y44896D01*
X29201Y44962D01*
X29121Y45009D01*
X29031Y45033D01*
X28584Y45033D01*
X28584Y44304D01*
X28384Y44304D01*
X28384Y45033D01*
X27937Y45033D01*
X27847Y45009D01*
X27767Y44962D01*
X27701Y44896D01*
X27654Y44816D01*
X27630Y44726D01*
X27630Y44304D01*
X28384Y44304D01*
X28384Y44104D01*
X27630Y44104D01*
X27630Y43682D01*
X27654Y43592D01*
X27701Y43512D01*
X27767Y43446D01*
X27847Y43399D01*
X27922Y43379D01*
X27860Y43379D01*
X27684Y43203D01*
X27684Y42005D01*
X27860Y41829D01*
X27684Y41653D01*
X27684Y40455D01*
X27860Y40279D01*
X29108Y40279D01*
X29284Y40455D01*
X29284Y41653D01*
X29108Y41829D01*
X29283Y42004D01*
X29479Y42004D01*
X29479Y41630D01*
X29655Y41454D01*
X30418Y41454D01*
X30234Y41270D01*
X29734Y40770D01*
X29734Y40254D01*
X29655Y40254D01*
X29479Y40078D01*
X29479Y38830D01*
X29655Y38654D01*
X30541Y38654D01*
X30592Y38624D01*
X30682Y38600D01*
X31006Y38600D01*
X31006Y39376D01*
X31161Y39376D01*
X31161Y38600D01*
X31484Y38600D01*
X31484Y38504D01*
X30860Y38504D01*
X30684Y38328D01*
X30684Y34380D01*
X30860Y34204D01*
X32708Y34204D01*
X32884Y34380D01*
X32884Y38328D01*
X32708Y38504D01*
X32584Y38504D01*
X32584Y38725D01*
X32689Y38830D01*
X32689Y40078D01*
X32513Y40254D01*
X31627Y40254D01*
X31576Y40284D01*
X31486Y40308D01*
X31161Y40308D01*
X31161Y39532D01*
X31006Y39532D01*
X31006Y40308D01*
X30682Y40308D01*
X30592Y40284D01*
X30541Y40254D01*
X30534Y40254D01*
X30534Y40438D01*
X30800Y40704D01*
X31250Y40704D01*
X32000Y41454D01*
X32513Y41454D01*
X32689Y41630D01*
X32689Y42878D01*
X32584Y42983D01*
X32584Y43029D01*
X32733Y43029D01*
X32909Y43205D01*
X32909Y44903D01*
X32733Y45079D01*
X32584Y45079D01*
X32584Y45432D01*
X31784Y46232D01*
X31530Y46485D01*
X31553Y46502D01*
X31676Y46625D01*
X31778Y46765D01*
X31857Y46920D01*
X31911Y47085D01*
X31936Y47244D01*
X30934Y47244D01*
X30934Y47444D01*
X31936Y47444D01*
X31911Y47603D01*
X31857Y47768D01*
X31778Y47923D01*
X31712Y48014D01*
X32496Y48014D01*
X32430Y47923D01*
X32351Y47768D01*
X32297Y47603D01*
X32272Y47444D01*
X33274Y47444D01*
X33274Y47244D01*
X33474Y47244D01*
X33474Y47444D01*
X34476Y47444D01*
X34451Y47603D01*
X34397Y47768D01*
X34318Y47923D01*
X34252Y48014D01*
X35099Y48014D01*
X35024Y47939D01*
X34864Y47553D01*
X34864Y47135D01*
X35024Y46749D01*
X35319Y46454D01*
X35705Y46294D01*
X36084Y46294D01*
X36084Y45229D01*
X36010Y45229D01*
X35834Y45053D01*
X35834Y43855D01*
X36010Y43679D01*
X37258Y43679D01*
X37409Y43830D01*
X37560Y43679D01*
X38808Y43679D01*
X38959Y43830D01*
X39110Y43679D01*
X40358Y43679D01*
X40509Y43830D01*
X40660Y43679D01*
X41908Y43679D01*
X42084Y43855D01*
X42084Y43904D01*
X43412Y43904D01*
X45820Y46313D01*
X45865Y46294D01*
X46283Y46294D01*
X46669Y46454D01*
X46964Y46749D01*
X47124Y47135D01*
X47124Y47553D01*
X46964Y47939D01*
X46889Y48014D01*
X47799Y48014D01*
X47724Y47939D01*
X47564Y47553D01*
X47564Y47135D01*
X47724Y46749D01*
X47984Y46489D01*
X47984Y45179D01*
X47910Y45179D01*
X47734Y45003D01*
X47558Y45179D01*
X46310Y45179D01*
X46134Y45003D01*
X46134Y43805D01*
X46310Y43629D01*
X47558Y43629D01*
X47734Y43805D01*
X47910Y43629D01*
X49158Y43629D01*
X49334Y43805D01*
X49510Y43629D01*
X50758Y43629D01*
X50934Y43805D01*
X51110Y43629D01*
X52358Y43629D01*
X52534Y43805D01*
X52710Y43629D01*
X53958Y43629D01*
X54134Y43805D01*
X54310Y43629D01*
X55558Y43629D01*
X55734Y43805D01*
X55910Y43629D01*
X57158Y43629D01*
X57334Y43805D01*
X57510Y43629D01*
X58758Y43629D01*
X58934Y43805D01*
X59110Y43629D01*
X60358Y43629D01*
X60534Y43805D01*
X60710Y43629D01*
X61958Y43629D01*
X62084Y43755D01*
X62210Y43629D01*
X63458Y43629D01*
X63584Y43755D01*
X63710Y43629D01*
X64958Y43629D01*
X65084Y43755D01*
X65210Y43629D01*
X66458Y43629D01*
X66584Y43755D01*
X66710Y43629D01*
X67958Y43629D01*
X68134Y43805D01*
X68134Y45003D01*
X67958Y45179D01*
X67884Y45179D01*
X67884Y46632D01*
X67425Y47090D01*
X67444Y47135D01*
X67444Y47553D01*
X67284Y47939D01*
X67209Y48014D01*
X68056Y48014D01*
X67990Y47923D01*
X67911Y47768D01*
X67857Y47603D01*
X67832Y47444D01*
X68834Y47444D01*
X68834Y47244D01*
X69034Y47244D01*
X69034Y46242D01*
X69193Y46267D01*
X69358Y46321D01*
X69513Y46400D01*
X69604Y46466D01*
X69604Y02439D01*
X69529Y02514D01*
X69143Y02674D01*
X68725Y02674D01*
X68339Y02514D01*
X68044Y02219D01*
X68017Y02154D01*
X68000Y02154D01*
X67050Y03104D01*
X65100Y03104D01*
X64650Y03554D01*
X62750Y03554D01*
X60159Y06145D01*
X60159Y06850D01*
X60396Y06850D01*
X60396Y07941D01*
X60421Y07941D01*
X60421Y06850D01*
X60681Y06850D01*
X60771Y06874D01*
X60822Y06904D01*
X61408Y06904D01*
X61584Y07080D01*
X61584Y07504D01*
X61684Y07504D01*
X61684Y07105D01*
X61860Y06929D01*
X63108Y06929D01*
X63284Y07105D01*
X63284Y07154D01*
X63612Y07154D01*
X63934Y07476D01*
X64284Y07826D01*
X64284Y10932D01*
X63962Y11254D01*
X63562Y11654D01*
X61756Y11654D01*
X60806Y10704D01*
X41006Y10704D01*
X40984Y10682D01*
X40962Y10704D01*
X37062Y10704D01*
X30234Y17532D01*
X30234Y20035D01*
X30235Y20036D01*
X30334Y20275D01*
X30334Y20533D01*
X30243Y20754D01*
X33475Y20754D01*
X33384Y20533D01*
X33384Y20275D01*
X33483Y20036D01*
X33484Y20035D01*
X33484Y17626D01*
X34584Y16526D01*
X34906Y16204D01*
X35384Y16204D01*
X35384Y16155D01*
X35548Y15991D01*
X35542Y15987D01*
X35476Y15921D01*
X35429Y15841D01*
X35405Y15751D01*
X35405Y15304D01*
X36134Y15304D01*
X36134Y15104D01*
X36334Y15104D01*
X36334Y14350D01*
X36756Y14350D01*
X36846Y14374D01*
X36926Y14421D01*
X36992Y14487D01*
X37039Y14567D01*
X37059Y14642D01*
X37059Y14580D01*
X37235Y14404D01*
X38433Y14404D01*
X38609Y14580D01*
X38785Y14404D01*
X38834Y14404D01*
X38834Y14076D01*
X39156Y13754D01*
X39402Y13508D01*
X39162Y13508D01*
X39072Y13484D01*
X38992Y13437D01*
X38926Y13371D01*
X38879Y13291D01*
X38855Y13201D01*
X38855Y12754D01*
X39584Y12754D01*
X39584Y12554D01*
X39784Y12554D01*
X39784Y11800D01*
X40206Y11800D01*
X40296Y11824D01*
X40376Y11871D01*
X40442Y11937D01*
X40489Y12017D01*
X40509Y12092D01*
X40509Y12030D01*
X40685Y11854D01*
X41883Y11854D01*
X42059Y12030D01*
X42059Y12154D01*
X43620Y12154D01*
X43884Y12418D01*
X43919Y12453D01*
X44434Y11938D01*
X44668Y11704D01*
X50800Y11704D01*
X51450Y12354D01*
X51684Y12588D01*
X51684Y15354D01*
X54368Y15354D01*
X54809Y14913D01*
X54809Y14858D01*
X54571Y14858D01*
X54571Y13767D01*
X54546Y13767D01*
X54546Y14858D01*
X54287Y14858D01*
X54234Y14844D01*
X54181Y14858D01*
X53921Y14858D01*
X53921Y13767D01*
X53896Y13767D01*
X53896Y14858D01*
X53637Y14858D01*
X53547Y14834D01*
X53467Y14787D01*
X53401Y14721D01*
X53354Y14641D01*
X53330Y14551D01*
X53330Y13766D01*
X53896Y13766D01*
X53896Y13741D01*
X53921Y13741D01*
X53921Y12650D01*
X54181Y12650D01*
X54234Y12664D01*
X54287Y12650D01*
X54546Y12650D01*
X54546Y13741D01*
X54571Y13741D01*
X54571Y12650D01*
X54831Y12650D01*
X54921Y12674D01*
X54972Y12704D01*
X61408Y12704D01*
X61584Y12880D01*
X61584Y14628D01*
X61408Y14804D01*
X60809Y14804D01*
X60809Y15313D01*
X63284Y17788D01*
X63284Y24670D01*
X63050Y24904D01*
X60100Y27854D01*
X61650Y29404D01*
X63000Y29404D01*
X63234Y29638D01*
X63234Y29638D01*
X64350Y30754D01*
X64584Y30988D01*
X64584Y35920D01*
X63984Y36520D01*
X63984Y37785D01*
X64135Y37936D01*
X64234Y38175D01*
X64234Y38388D01*
X67684Y41838D01*
X67684Y42029D01*
X67958Y42029D01*
X68134Y42205D01*
X68134Y43403D01*
X67958Y43579D01*
X66710Y43579D01*
X66584Y43453D01*
X66458Y43579D01*
X65210Y43579D01*
X65084Y43453D01*
X64958Y43579D01*
X63710Y43579D01*
X63584Y43453D01*
X63458Y43579D01*
X62210Y43579D01*
X62084Y43453D01*
X61958Y43579D01*
X60710Y43579D01*
X60534Y43403D01*
X60358Y43579D01*
X59110Y43579D01*
X58934Y43403D01*
X58934Y42570D01*
X58934Y42570D01*
X58934Y43403D01*
X58909Y43429D02*
X58959Y43429D01*
X58934Y43805D02*
X58934Y45003D01*
X59110Y45179D01*
X59184Y45179D01*
X59184Y46156D01*
X59028Y46313D01*
X58983Y46294D01*
X58565Y46294D01*
X58179Y46454D01*
X57884Y46749D01*
X57724Y47135D01*
X57724Y47553D01*
X57884Y47939D01*
X57959Y48014D01*
X57112Y48014D01*
X57178Y47923D01*
X57257Y47768D01*
X57311Y47603D01*
X57336Y47444D01*
X56334Y47444D01*
X56334Y47244D01*
X57336Y47244D01*
X57311Y47085D01*
X57257Y46920D01*
X57178Y46765D01*
X57076Y46625D01*
X56953Y46502D01*
X56813Y46400D01*
X56658Y46321D01*
X56493Y46267D01*
X56334Y46242D01*
X56334Y47244D01*
X56134Y47244D01*
X56134Y46242D01*
X55975Y46267D01*
X55810Y46321D01*
X55655Y46400D01*
X55515Y46502D01*
X55392Y46625D01*
X55290Y46765D01*
X55211Y46920D01*
X55157Y47085D01*
X55132Y47244D01*
X56134Y47244D01*
X56134Y47444D01*
X55132Y47444D01*
X55157Y47603D01*
X55211Y47768D01*
X55290Y47923D01*
X55356Y48014D01*
X54509Y48014D01*
X54584Y47939D01*
X54744Y47553D01*
X54744Y47135D01*
X54584Y46749D01*
X54289Y46454D01*
X53903Y46294D01*
X53884Y46294D01*
X53884Y45179D01*
X53958Y45179D01*
X54134Y45003D01*
X54134Y44954D01*
X54134Y44954D01*
X54134Y45003D01*
X54310Y45179D01*
X55558Y45179D01*
X55734Y45003D01*
X55734Y44954D01*
X55734Y44954D01*
X55734Y45003D01*
X55910Y45179D01*
X57158Y45179D01*
X57334Y45003D01*
X57334Y44954D01*
X57334Y44954D01*
X57334Y45003D01*
X57510Y45179D01*
X58758Y45179D01*
X58934Y45003D01*
X58934Y43805D01*
X58934Y43825D02*
X58934Y43825D01*
X58934Y44024D02*
X58934Y44024D01*
X58934Y44222D02*
X58934Y44222D01*
X58934Y44421D02*
X58934Y44421D01*
X58934Y44619D02*
X58934Y44619D01*
X58934Y44818D02*
X58934Y44818D01*
X58921Y45016D02*
X58947Y45016D01*
X59184Y45215D02*
X53884Y45215D01*
X53884Y45413D02*
X59184Y45413D01*
X59184Y45612D02*
X53884Y45612D01*
X53884Y45810D02*
X59184Y45810D01*
X59184Y46009D02*
X53884Y46009D01*
X53884Y46207D02*
X59133Y46207D01*
X58295Y46406D02*
X56821Y46406D01*
X57056Y46604D02*
X58029Y46604D01*
X57862Y46803D02*
X57197Y46803D01*
X57284Y47001D02*
X57779Y47001D01*
X57724Y47200D02*
X57329Y47200D01*
X57312Y47597D02*
X57742Y47597D01*
X57724Y47398D02*
X56334Y47398D01*
X56334Y47200D02*
X56134Y47200D01*
X56134Y47398D02*
X54744Y47398D01*
X54744Y47200D02*
X55139Y47200D01*
X55184Y47001D02*
X54689Y47001D01*
X54606Y46803D02*
X55271Y46803D01*
X55412Y46604D02*
X54439Y46604D01*
X54173Y46406D02*
X55647Y46406D01*
X56134Y46406D02*
X56334Y46406D01*
X56334Y46604D02*
X56134Y46604D01*
X56134Y46803D02*
X56334Y46803D01*
X56334Y47001D02*
X56134Y47001D01*
X55156Y47597D02*
X54726Y47597D01*
X54643Y47795D02*
X55225Y47795D01*
X55342Y47994D02*
X54529Y47994D01*
X52879Y48014D02*
X52804Y47939D01*
X52644Y47553D01*
X52644Y47135D01*
X52784Y46797D01*
X52784Y45179D01*
X52710Y45179D01*
X52534Y45003D01*
X52534Y43805D01*
X52534Y45003D01*
X52358Y45179D01*
X51110Y45179D01*
X50934Y45003D01*
X50758Y45179D01*
X49510Y45179D01*
X49334Y45003D01*
X49158Y45179D01*
X49084Y45179D01*
X49084Y46402D01*
X49209Y46454D01*
X49504Y46749D01*
X49664Y47135D01*
X49664Y47553D01*
X49504Y47939D01*
X49429Y48014D01*
X50276Y48014D01*
X50210Y47923D01*
X50131Y47768D01*
X50077Y47603D01*
X50052Y47444D01*
X51054Y47444D01*
X51054Y47244D01*
X51254Y47244D01*
X51254Y47444D01*
X52256Y47444D01*
X52231Y47603D01*
X52177Y47768D01*
X52098Y47923D01*
X52032Y48014D01*
X52879Y48014D01*
X52859Y47994D02*
X52046Y47994D01*
X52163Y47795D02*
X52745Y47795D01*
X52662Y47597D02*
X52232Y47597D01*
X52256Y47244D02*
X51254Y47244D01*
X51254Y46242D01*
X51413Y46267D01*
X51578Y46321D01*
X51733Y46400D01*
X51873Y46502D01*
X51996Y46625D01*
X52098Y46765D01*
X52177Y46920D01*
X52231Y47085D01*
X52256Y47244D01*
X52249Y47200D02*
X52644Y47200D01*
X52644Y47398D02*
X51254Y47398D01*
X51254Y47200D02*
X51054Y47200D01*
X51054Y47244D02*
X51054Y46242D01*
X50895Y46267D01*
X50730Y46321D01*
X50575Y46400D01*
X50435Y46502D01*
X50312Y46625D01*
X50210Y46765D01*
X50131Y46920D01*
X50077Y47085D01*
X50052Y47244D01*
X51054Y47244D01*
X51054Y47398D02*
X49664Y47398D01*
X49664Y47200D02*
X50059Y47200D01*
X50104Y47001D02*
X49609Y47001D01*
X49526Y46803D02*
X50191Y46803D01*
X50332Y46604D02*
X49359Y46604D01*
X49093Y46406D02*
X50567Y46406D01*
X51054Y46406D02*
X51254Y46406D01*
X51254Y46604D02*
X51054Y46604D01*
X51054Y46803D02*
X51254Y46803D01*
X51254Y47001D02*
X51054Y47001D01*
X51741Y46406D02*
X52784Y46406D01*
X52784Y46207D02*
X49084Y46207D01*
X49084Y46009D02*
X52784Y46009D01*
X52784Y45810D02*
X49084Y45810D01*
X49084Y45612D02*
X52784Y45612D01*
X52784Y45413D02*
X49084Y45413D01*
X49084Y45215D02*
X52784Y45215D01*
X52547Y45016D02*
X52521Y45016D01*
X52534Y44818D02*
X52534Y44818D01*
X52534Y44619D02*
X52534Y44619D01*
X52534Y44421D02*
X52534Y44421D01*
X52534Y44222D02*
X52534Y44222D01*
X52534Y44024D02*
X52534Y44024D01*
X52534Y43825D02*
X52534Y43825D01*
X52509Y43429D02*
X52559Y43429D01*
X52534Y43403D02*
X52534Y42570D01*
X52534Y42570D01*
X52534Y43403D01*
X52534Y43230D02*
X52534Y43230D01*
X52534Y43032D02*
X52534Y43032D01*
X52534Y42833D02*
X52534Y42833D01*
X52534Y42635D02*
X52534Y42635D01*
X52534Y42004D02*
X53334Y42804D01*
X54134Y42833D02*
X54134Y42833D01*
X54134Y43032D02*
X54134Y43032D01*
X54134Y43230D02*
X54134Y43230D01*
X54134Y43403D02*
X54134Y42570D01*
X54134Y42570D01*
X54134Y43403D01*
X54109Y43429D02*
X54159Y43429D01*
X54134Y43805D02*
X54134Y43854D01*
X54134Y43854D01*
X54134Y43805D01*
X54134Y43825D02*
X54134Y43825D01*
X54134Y42635D02*
X54134Y42635D01*
X54134Y42004D02*
X54934Y42804D01*
X55734Y42833D02*
X55734Y42833D01*
X55734Y43032D02*
X55734Y43032D01*
X55734Y43230D02*
X55734Y43230D01*
X55734Y43403D02*
X55734Y42570D01*
X55734Y42570D01*
X55734Y43403D01*
X55709Y43429D02*
X55759Y43429D01*
X55734Y43805D02*
X55734Y43854D01*
X55734Y43854D01*
X55734Y43805D01*
X55734Y43825D02*
X55734Y43825D01*
X55734Y42635D02*
X55734Y42635D01*
X55734Y42004D02*
X55734Y40004D01*
X54934Y39204D02*
X54934Y35704D01*
X55134Y35504D01*
X55134Y32554D01*
X55334Y32354D01*
X55334Y32004D01*
X55734Y31604D01*
X55734Y30804D01*
X55234Y30804D02*
X55234Y31504D01*
X54934Y31804D01*
X54934Y32154D01*
X54734Y32354D01*
X54734Y33754D01*
X54484Y34004D01*
X54734Y34604D02*
X54613Y34654D01*
X54355Y34654D01*
X54116Y34555D01*
X53933Y34372D01*
X53834Y34133D01*
X53834Y33875D01*
X53933Y33636D01*
X54116Y33453D01*
X54334Y33363D01*
X54334Y33363D01*
X54113Y33454D01*
X53855Y33454D01*
X53734Y33404D01*
X53734Y38429D01*
X53958Y38429D01*
X54134Y38605D01*
X54310Y38429D01*
X54534Y38429D01*
X54534Y35538D01*
X54734Y35338D01*
X54734Y34604D01*
X54734Y34695D02*
X53734Y34695D01*
X53734Y34893D02*
X54734Y34893D01*
X54734Y35092D02*
X53734Y35092D01*
X53734Y35290D02*
X54734Y35290D01*
X54584Y35489D02*
X53734Y35489D01*
X53734Y35687D02*
X54534Y35687D01*
X54534Y35886D02*
X53734Y35886D01*
X53734Y36084D02*
X54534Y36084D01*
X54534Y36283D02*
X53734Y36283D01*
X53734Y36481D02*
X54534Y36481D01*
X54534Y36680D02*
X53734Y36680D01*
X53734Y36878D02*
X54534Y36878D01*
X54534Y37077D02*
X53734Y37077D01*
X53734Y37275D02*
X54534Y37275D01*
X54534Y37474D02*
X53734Y37474D01*
X53734Y37672D02*
X54534Y37672D01*
X54534Y37871D02*
X53734Y37871D01*
X53734Y38069D02*
X54534Y38069D01*
X54534Y38268D02*
X53734Y38268D01*
X53995Y38466D02*
X54273Y38466D01*
X54134Y38605D02*
X54134Y39438D01*
X54134Y39438D01*
X54134Y38605D01*
X54134Y38665D02*
X54134Y38665D01*
X54134Y38863D02*
X54134Y38863D01*
X54134Y39062D02*
X54134Y39062D01*
X54134Y39260D02*
X54134Y39260D01*
X54134Y40004D02*
X54934Y39204D01*
X54134Y40004D02*
X54134Y42004D01*
X52534Y42004D02*
X52534Y40004D01*
X53334Y39204D01*
X53334Y32504D01*
X54134Y31704D01*
X54134Y31354D01*
X54234Y31254D01*
X54234Y30804D01*
X53734Y30804D02*
X53734Y31504D01*
X52934Y32304D01*
X52934Y37004D01*
X51734Y38204D01*
X51734Y39204D01*
X50934Y40004D01*
X50934Y42004D01*
X51734Y42804D01*
X50934Y42833D02*
X50934Y42833D01*
X50934Y43032D02*
X50934Y43032D01*
X50934Y43230D02*
X50934Y43230D01*
X50934Y43403D02*
X50934Y42570D01*
X50934Y42570D01*
X50934Y43403D01*
X50909Y43429D02*
X50959Y43429D01*
X50934Y43805D02*
X50934Y43854D01*
X50934Y43854D01*
X50934Y43805D01*
X50934Y43825D02*
X50934Y43825D01*
X50934Y44954D02*
X50934Y45003D01*
X50934Y44954D01*
X50934Y44954D01*
X50921Y45016D02*
X50947Y45016D01*
X49347Y45016D02*
X49321Y45016D01*
X49334Y45003D02*
X49334Y44954D01*
X49334Y44954D01*
X49334Y45003D01*
X47984Y45215D02*
X44723Y45215D01*
X44921Y45413D02*
X47984Y45413D01*
X47984Y45612D02*
X45120Y45612D01*
X45318Y45810D02*
X47984Y45810D01*
X47984Y46009D02*
X45517Y46009D01*
X45715Y46207D02*
X47984Y46207D01*
X47984Y46406D02*
X46553Y46406D01*
X46819Y46604D02*
X47869Y46604D01*
X47702Y46803D02*
X46986Y46803D01*
X47069Y47001D02*
X47619Y47001D01*
X47564Y47200D02*
X47124Y47200D01*
X47124Y47398D02*
X47564Y47398D01*
X47582Y47597D02*
X47106Y47597D01*
X47023Y47795D02*
X47665Y47795D01*
X47779Y47994D02*
X46909Y47994D01*
X45259Y48014D02*
X45184Y47939D01*
X45024Y47553D01*
X45024Y47135D01*
X45043Y47090D01*
X42956Y45004D01*
X42084Y45004D01*
X42084Y45053D01*
X41908Y45229D01*
X40660Y45229D01*
X40509Y45078D01*
X40358Y45229D01*
X40284Y45229D01*
X40284Y45856D01*
X40740Y46313D01*
X40785Y46294D01*
X41203Y46294D01*
X41589Y46454D01*
X41884Y46749D01*
X42044Y47135D01*
X42044Y47553D01*
X41884Y47939D01*
X41809Y48014D01*
X42656Y48014D01*
X42590Y47923D01*
X42511Y47768D01*
X42457Y47603D01*
X42432Y47444D01*
X43434Y47444D01*
X43434Y47244D01*
X43634Y47244D01*
X43634Y47444D01*
X44636Y47444D01*
X44611Y47603D01*
X44557Y47768D01*
X44478Y47923D01*
X44412Y48014D01*
X45259Y48014D01*
X45239Y47994D02*
X44426Y47994D01*
X44543Y47795D02*
X45125Y47795D01*
X45042Y47597D02*
X44612Y47597D01*
X44636Y47244D02*
X43634Y47244D01*
X43634Y46242D01*
X43793Y46267D01*
X43958Y46321D01*
X44113Y46400D01*
X44253Y46502D01*
X44376Y46625D01*
X44478Y46765D01*
X44557Y46920D01*
X44611Y47085D01*
X44636Y47244D01*
X44629Y47200D02*
X45024Y47200D01*
X45024Y47398D02*
X43634Y47398D01*
X43634Y47200D02*
X43434Y47200D01*
X43434Y47244D02*
X43434Y46242D01*
X43275Y46267D01*
X43110Y46321D01*
X42955Y46400D01*
X42815Y46502D01*
X42692Y46625D01*
X42590Y46765D01*
X42511Y46920D01*
X42457Y47085D01*
X42432Y47244D01*
X43434Y47244D01*
X43434Y47398D02*
X42044Y47398D01*
X42044Y47200D02*
X42439Y47200D01*
X42484Y47001D02*
X41989Y47001D01*
X41906Y46803D02*
X42571Y46803D01*
X42712Y46604D02*
X41739Y46604D01*
X41473Y46406D02*
X42947Y46406D01*
X43434Y46406D02*
X43634Y46406D01*
X43634Y46604D02*
X43434Y46604D01*
X43434Y46803D02*
X43634Y46803D01*
X43634Y47001D02*
X43434Y47001D01*
X44121Y46406D02*
X44358Y46406D01*
X44356Y46604D02*
X44557Y46604D01*
X44497Y46803D02*
X44755Y46803D01*
X44584Y47001D02*
X44954Y47001D01*
X44160Y46207D02*
X40635Y46207D01*
X40437Y46009D02*
X43961Y46009D01*
X43763Y45810D02*
X40284Y45810D01*
X40284Y45612D02*
X43564Y45612D01*
X43366Y45413D02*
X40284Y45413D01*
X40372Y45215D02*
X40646Y45215D01*
X41922Y45215D02*
X43167Y45215D01*
X42969Y45016D02*
X42084Y45016D01*
X42055Y43825D02*
X46134Y43825D01*
X46134Y44024D02*
X43532Y44024D01*
X43730Y44222D02*
X46134Y44222D01*
X46134Y44421D02*
X43929Y44421D01*
X44127Y44619D02*
X46134Y44619D01*
X46134Y44818D02*
X44326Y44818D01*
X44524Y45016D02*
X46147Y45016D01*
X47721Y45016D02*
X47747Y45016D01*
X47734Y45003D02*
X47734Y44954D01*
X47734Y44954D01*
X47734Y45003D01*
X47734Y43854D02*
X47734Y43805D01*
X47734Y43854D01*
X47734Y43854D01*
X47734Y43825D02*
X47734Y43825D01*
X47709Y43429D02*
X47759Y43429D01*
X47734Y43403D02*
X47734Y42570D01*
X47734Y42570D01*
X47734Y43403D01*
X47734Y43230D02*
X47734Y43230D01*
X47734Y43032D02*
X47734Y43032D01*
X47734Y42833D02*
X47734Y42833D01*
X47734Y42635D02*
X47734Y42635D01*
X47734Y42004D02*
X48534Y42804D01*
X49334Y42833D02*
X49334Y42833D01*
X49334Y43032D02*
X49334Y43032D01*
X49334Y43230D02*
X49334Y43230D01*
X49334Y43403D02*
X49334Y42570D01*
X49334Y42570D01*
X49334Y43403D01*
X49309Y43429D02*
X49359Y43429D01*
X49334Y43805D02*
X49334Y43854D01*
X49334Y43854D01*
X49334Y43805D01*
X49334Y43825D02*
X49334Y43825D01*
X49334Y42635D02*
X49334Y42635D01*
X49334Y42004D02*
X49334Y40004D01*
X50134Y39204D01*
X50134Y38354D01*
X52534Y35954D01*
X52534Y32104D01*
X53234Y31404D01*
X53234Y30804D01*
X52734Y30804D02*
X52734Y31304D01*
X52134Y31904D01*
X52134Y35554D01*
X48534Y39154D01*
X48534Y39204D01*
X47734Y40004D01*
X47734Y42004D01*
X46934Y42804D02*
X46134Y42004D01*
X46134Y40004D01*
X46934Y39204D01*
X46934Y38504D01*
X47634Y37804D01*
X48984Y37804D01*
X51734Y35054D01*
X51734Y30104D01*
X52034Y30104D01*
X52034Y29604D02*
X46184Y29604D01*
X43784Y27204D01*
X43784Y25504D01*
X41234Y22954D01*
X40584Y22954D01*
X39284Y21654D01*
X38134Y21654D01*
X37859Y21379D01*
X37859Y20759D01*
X37484Y20759D01*
X37484Y20754D01*
X36284Y21954D01*
X27034Y21954D01*
X25774Y23214D01*
X25754Y23214D01*
X26884Y24354D02*
X28484Y22754D01*
X37934Y22754D01*
X38534Y23354D01*
X41034Y23354D01*
X43384Y25704D01*
X43384Y27404D01*
X45984Y30004D01*
X49084Y30004D01*
X50984Y31904D01*
X50984Y32704D01*
X50134Y32704D01*
X49984Y32554D01*
X49184Y33404D02*
X49184Y30704D01*
X48884Y30404D01*
X45784Y30404D01*
X42984Y27604D01*
X42984Y25904D01*
X40834Y23754D01*
X38284Y23754D01*
X37684Y23154D01*
X28684Y23154D01*
X27284Y24554D01*
X27284Y29304D01*
X25754Y30834D01*
X27697Y31518D02*
X28142Y31518D01*
X28034Y31717D02*
X27634Y31717D01*
X27634Y31915D02*
X28034Y31915D01*
X27750Y32114D02*
X27634Y32114D01*
X27603Y32312D02*
X27709Y32312D01*
X27709Y32511D02*
X27405Y32511D01*
X27206Y32709D02*
X27709Y32709D01*
X27709Y32908D02*
X27008Y32908D01*
X26809Y33107D02*
X27709Y33107D01*
X27709Y33305D02*
X26804Y33305D01*
X26804Y33504D02*
X27709Y33504D01*
X27709Y33702D02*
X26804Y33702D01*
X26804Y33901D02*
X27756Y33901D01*
X28034Y34099D02*
X26804Y34099D01*
X26755Y34298D02*
X27566Y34298D01*
X27484Y34496D02*
X25784Y34496D01*
X25784Y34695D02*
X27484Y34695D01*
X27484Y34893D02*
X25784Y34893D01*
X25784Y35092D02*
X27484Y35092D01*
X27484Y35290D02*
X25784Y35290D01*
X25784Y35489D02*
X27484Y35489D01*
X27484Y35687D02*
X25784Y35687D01*
X25784Y35886D02*
X27484Y35886D01*
X27484Y36084D02*
X25784Y36084D01*
X25784Y36283D02*
X27484Y36283D01*
X27484Y36481D02*
X25784Y36481D01*
X25784Y36680D02*
X27484Y36680D01*
X27484Y36878D02*
X25784Y36878D01*
X25784Y37077D02*
X27484Y37077D01*
X27484Y37275D02*
X25784Y37275D01*
X25784Y37474D02*
X27484Y37474D01*
X27484Y37672D02*
X25784Y37672D01*
X25784Y37871D02*
X27484Y37871D01*
X27484Y38069D02*
X25784Y38069D01*
X25784Y38268D02*
X27484Y38268D01*
X27622Y38466D02*
X25784Y38466D01*
X25784Y38665D02*
X28034Y38665D01*
X27684Y38863D02*
X25784Y38863D01*
X25784Y39062D02*
X27684Y39062D01*
X27684Y39260D02*
X25784Y39260D01*
X25784Y39459D02*
X27684Y39459D01*
X27684Y39657D02*
X25784Y39657D01*
X25784Y39856D02*
X27684Y39856D01*
X27685Y40054D02*
X25784Y40054D01*
X25784Y40253D02*
X29653Y40253D01*
X29734Y40451D02*
X29280Y40451D01*
X29284Y40650D02*
X29734Y40650D01*
X29812Y40848D02*
X29284Y40848D01*
X29284Y41047D02*
X30011Y41047D01*
X30209Y41245D02*
X29284Y41245D01*
X29284Y41444D02*
X30408Y41444D01*
X30634Y41104D02*
X31084Y41104D01*
X32034Y42054D01*
X32034Y42254D01*
X32689Y42238D02*
X35851Y42238D01*
X35834Y42436D02*
X32689Y42436D01*
X32689Y42635D02*
X35834Y42635D01*
X35834Y42833D02*
X32689Y42833D01*
X32736Y43032D02*
X35834Y43032D01*
X35834Y43230D02*
X32909Y43230D01*
X32909Y43429D02*
X35834Y43429D01*
X36008Y43627D02*
X32909Y43627D01*
X32909Y43825D02*
X35863Y43825D01*
X35834Y44024D02*
X32909Y44024D01*
X32909Y44222D02*
X35834Y44222D01*
X35834Y44421D02*
X32909Y44421D01*
X32909Y44619D02*
X35834Y44619D01*
X35834Y44818D02*
X32909Y44818D01*
X32796Y45016D02*
X35834Y45016D01*
X35996Y45215D02*
X32584Y45215D01*
X32584Y45413D02*
X36084Y45413D01*
X36084Y45612D02*
X32404Y45612D01*
X32205Y45810D02*
X36084Y45810D01*
X36084Y46009D02*
X32007Y46009D01*
X31808Y46207D02*
X36084Y46207D01*
X35435Y46406D02*
X33961Y46406D01*
X33953Y46400D02*
X34093Y46502D01*
X34216Y46625D01*
X34318Y46765D01*
X34397Y46920D01*
X34451Y47085D01*
X34476Y47244D01*
X33474Y47244D01*
X33474Y46242D01*
X33633Y46267D01*
X33798Y46321D01*
X33953Y46400D01*
X34196Y46604D02*
X35169Y46604D01*
X35002Y46803D02*
X34337Y46803D01*
X34424Y47001D02*
X34919Y47001D01*
X34864Y47200D02*
X34469Y47200D01*
X34452Y47597D02*
X34882Y47597D01*
X34864Y47398D02*
X33474Y47398D01*
X33474Y47200D02*
X33274Y47200D01*
X33274Y47244D02*
X33274Y46242D01*
X33115Y46267D01*
X32950Y46321D01*
X32795Y46400D01*
X32655Y46502D01*
X32532Y46625D01*
X32430Y46765D01*
X32351Y46920D01*
X32297Y47085D01*
X32272Y47244D01*
X33274Y47244D01*
X33274Y47398D02*
X30934Y47398D01*
X30734Y47398D02*
X28394Y47398D01*
X28394Y47444D02*
X29396Y47444D01*
X29371Y47603D01*
X29317Y47768D01*
X29238Y47923D01*
X29172Y48014D01*
X29956Y48014D01*
X29890Y47923D01*
X29811Y47768D01*
X29757Y47603D01*
X29732Y47444D01*
X30734Y47444D01*
X30734Y47244D01*
X29732Y47244D01*
X29757Y47085D01*
X29811Y46920D01*
X29890Y46765D01*
X29992Y46625D01*
X30063Y46554D01*
X29065Y46554D01*
X29136Y46625D01*
X29238Y46765D01*
X29317Y46920D01*
X29371Y47085D01*
X29396Y47244D01*
X28394Y47244D01*
X28394Y47444D01*
X28194Y47444D02*
X28194Y47244D01*
X27192Y47244D01*
X27217Y47085D01*
X27271Y46920D01*
X27350Y46765D01*
X27452Y46625D01*
X27523Y46554D01*
X26804Y46554D01*
X26804Y48014D01*
X27416Y48014D01*
X27350Y47923D01*
X27271Y47768D01*
X27217Y47603D01*
X27192Y47444D01*
X28194Y47444D01*
X28194Y47398D02*
X26804Y47398D01*
X26804Y47200D02*
X27199Y47200D01*
X27244Y47001D02*
X26804Y47001D01*
X26804Y46803D02*
X27331Y46803D01*
X27472Y46604D02*
X26804Y46604D01*
X26804Y47597D02*
X27216Y47597D01*
X27285Y47795D02*
X26804Y47795D01*
X26804Y47994D02*
X27402Y47994D01*
X29186Y47994D02*
X29942Y47994D01*
X29825Y47795D02*
X29303Y47795D01*
X29372Y47597D02*
X29756Y47597D01*
X29739Y47200D02*
X29389Y47200D01*
X29344Y47001D02*
X29784Y47001D01*
X29871Y46803D02*
X29257Y46803D01*
X29116Y46604D02*
X30012Y46604D01*
X31610Y46406D02*
X32787Y46406D01*
X32552Y46604D02*
X31656Y46604D01*
X31797Y46803D02*
X32411Y46803D01*
X32324Y47001D02*
X31884Y47001D01*
X31929Y47200D02*
X32279Y47200D01*
X32296Y47597D02*
X31912Y47597D01*
X31843Y47795D02*
X32365Y47795D01*
X32482Y47994D02*
X31726Y47994D01*
X33274Y47001D02*
X33474Y47001D01*
X33474Y46803D02*
X33274Y46803D01*
X33274Y46604D02*
X33474Y46604D01*
X33474Y46406D02*
X33274Y46406D01*
X31784Y46232D02*
X31784Y46232D01*
X31047Y45413D02*
X25784Y45413D01*
X25784Y45215D02*
X31245Y45215D01*
X31272Y45016D02*
X31072Y45016D01*
X30334Y45016D02*
X30134Y45016D01*
X30134Y44818D02*
X30334Y44818D01*
X30334Y44619D02*
X30134Y44619D01*
X30134Y44421D02*
X30334Y44421D01*
X30334Y44222D02*
X30134Y44222D01*
X30134Y44154D02*
X30134Y43954D01*
X29338Y43954D01*
X29338Y44104D01*
X28584Y44104D01*
X28584Y44304D01*
X29305Y44304D01*
X29305Y44154D01*
X30134Y44154D01*
X30134Y44024D02*
X29338Y44024D01*
X29305Y44222D02*
X28584Y44222D01*
X28584Y44421D02*
X28384Y44421D01*
X28384Y44222D02*
X25784Y44222D01*
X25784Y44024D02*
X27630Y44024D01*
X27630Y43825D02*
X25784Y43825D01*
X25784Y43627D02*
X27645Y43627D01*
X27796Y43429D02*
X25784Y43429D01*
X25784Y43230D02*
X27711Y43230D01*
X27684Y43032D02*
X25784Y43032D01*
X25784Y42833D02*
X27684Y42833D01*
X27684Y42635D02*
X25784Y42635D01*
X25784Y42436D02*
X27684Y42436D01*
X27684Y42238D02*
X25784Y42238D01*
X25784Y42039D02*
X27684Y42039D01*
X27848Y41841D02*
X25784Y41841D01*
X25784Y41642D02*
X27684Y41642D01*
X27684Y41444D02*
X25784Y41444D01*
X25784Y41245D02*
X27684Y41245D01*
X27684Y41047D02*
X25784Y41047D01*
X25784Y40848D02*
X27684Y40848D01*
X27684Y40650D02*
X25784Y40650D01*
X25784Y40451D02*
X27688Y40451D01*
X29283Y40054D02*
X29479Y40054D01*
X29479Y39856D02*
X29284Y39856D01*
X29284Y39657D02*
X29479Y39657D01*
X29479Y39459D02*
X29284Y39459D01*
X29284Y39260D02*
X29479Y39260D01*
X29479Y39062D02*
X29284Y39062D01*
X29284Y38863D02*
X29479Y38863D01*
X29644Y38665D02*
X28934Y38665D01*
X29546Y38466D02*
X30822Y38466D01*
X30684Y38268D02*
X29684Y38268D01*
X29684Y38069D02*
X30684Y38069D01*
X30684Y37871D02*
X29684Y37871D01*
X29684Y37672D02*
X30684Y37672D01*
X30684Y37474D02*
X29684Y37474D01*
X29684Y37275D02*
X30684Y37275D01*
X30684Y37077D02*
X29684Y37077D01*
X29684Y36878D02*
X30684Y36878D01*
X30684Y36680D02*
X29684Y36680D01*
X29684Y36481D02*
X30684Y36481D01*
X30684Y36283D02*
X29684Y36283D01*
X29684Y36084D02*
X30684Y36084D01*
X30684Y35886D02*
X29684Y35886D01*
X29684Y35687D02*
X30684Y35687D01*
X30684Y35489D02*
X29684Y35489D01*
X29684Y35290D02*
X30684Y35290D01*
X30684Y35092D02*
X29684Y35092D01*
X29684Y34893D02*
X30684Y34893D01*
X30684Y34695D02*
X29684Y34695D01*
X29684Y34496D02*
X30684Y34496D01*
X30766Y34298D02*
X29602Y34298D01*
X29499Y33901D02*
X29412Y33901D01*
X29134Y34099D02*
X37384Y34099D01*
X37384Y33901D02*
X31269Y33901D01*
X31289Y33866D02*
X31242Y33946D01*
X31176Y34012D01*
X31096Y34059D01*
X31006Y34083D01*
X30484Y34083D01*
X30484Y33104D01*
X31313Y33104D01*
X31313Y33776D01*
X31289Y33866D01*
X31313Y33702D02*
X36098Y33702D01*
X35924Y33504D02*
X31313Y33504D01*
X31313Y33305D02*
X35924Y33305D01*
X35924Y33107D02*
X31313Y33107D01*
X31313Y32904D02*
X30484Y32904D01*
X30484Y31925D01*
X31006Y31925D01*
X31096Y31949D01*
X31176Y31996D01*
X31242Y32062D01*
X31289Y32142D01*
X31313Y32232D01*
X31313Y32904D01*
X31313Y32709D02*
X35924Y32709D01*
X35924Y32511D02*
X31313Y32511D01*
X31313Y32312D02*
X35924Y32312D01*
X35924Y32114D02*
X31272Y32114D01*
X30484Y32114D02*
X30284Y32114D01*
X30284Y32312D02*
X30484Y32312D01*
X30484Y32511D02*
X30284Y32511D01*
X30284Y32709D02*
X30484Y32709D01*
X30484Y32908D02*
X35924Y32908D01*
X35938Y31915D02*
X29300Y31915D01*
X29418Y32114D02*
X29495Y32114D01*
X29499Y31717D02*
X36185Y31717D01*
X36383Y31518D02*
X29697Y31518D01*
X29896Y31320D02*
X36582Y31320D01*
X36494Y31121D02*
X36780Y31121D01*
X36130Y29930D02*
X28534Y29930D01*
X28534Y30129D02*
X29531Y30129D01*
X29333Y30327D02*
X28534Y30327D01*
X28534Y30526D02*
X29134Y30526D01*
X28936Y30724D02*
X28491Y30724D01*
X28293Y30923D02*
X28737Y30923D01*
X28539Y31121D02*
X28094Y31121D01*
X27896Y31320D02*
X28340Y31320D01*
X30430Y29732D02*
X35038Y29732D01*
X33284Y29533D02*
X31984Y29533D01*
X32034Y29335D02*
X33234Y29335D01*
X33234Y29136D02*
X32034Y29136D01*
X32116Y28938D02*
X33234Y28938D01*
X33234Y28739D02*
X32314Y28739D01*
X32513Y28541D02*
X33203Y28541D01*
X33180Y28342D02*
X32711Y28342D01*
X32734Y28144D02*
X33180Y28144D01*
X33180Y27945D02*
X32734Y27945D01*
X32857Y27747D02*
X33180Y27747D01*
X33212Y27548D02*
X33055Y27548D01*
X32934Y27104D02*
X32334Y27704D01*
X32334Y28154D01*
X31484Y29004D01*
X31234Y29004D01*
X32034Y27350D02*
X32122Y27350D01*
X32034Y27151D02*
X32321Y27151D01*
X32519Y26953D02*
X32034Y26953D01*
X32034Y26754D02*
X32718Y26754D01*
X32934Y27104D02*
X34034Y27104D01*
X34834Y27151D02*
X39405Y27151D01*
X39405Y26953D02*
X34834Y26953D01*
X34834Y26754D02*
X39405Y26754D01*
X39481Y26556D02*
X39206Y26556D01*
X39284Y26357D02*
X39563Y26357D01*
X39459Y26159D02*
X39284Y26159D01*
X40384Y27350D02*
X34834Y27350D01*
X34856Y27548D02*
X39405Y27548D01*
X39405Y27747D02*
X39201Y27747D01*
X39284Y27945D02*
X39405Y27945D01*
X39474Y28144D02*
X39284Y28144D01*
X39284Y28342D02*
X43157Y28342D01*
X42958Y28144D02*
X41494Y28144D01*
X41492Y28146D02*
X41426Y28212D01*
X41346Y28259D01*
X41256Y28283D01*
X40584Y28283D01*
X40584Y27454D01*
X41563Y27454D01*
X41563Y27976D01*
X41539Y28066D01*
X41492Y28146D01*
X41563Y27945D02*
X42760Y27945D01*
X42584Y27747D02*
X41563Y27747D01*
X41563Y27548D02*
X42584Y27548D01*
X42584Y27350D02*
X40584Y27350D01*
X40584Y27548D02*
X40384Y27548D01*
X40384Y27747D02*
X40584Y27747D01*
X40584Y27945D02*
X40384Y27945D01*
X40384Y28144D02*
X40584Y28144D01*
X39284Y28541D02*
X43355Y28541D01*
X43554Y28739D02*
X39284Y28739D01*
X39284Y28938D02*
X43752Y28938D01*
X43951Y29136D02*
X39284Y29136D01*
X39284Y29335D02*
X44149Y29335D01*
X44348Y29533D02*
X39284Y29533D01*
X39230Y29732D02*
X44546Y29732D01*
X44745Y29930D02*
X43838Y29930D01*
X44037Y30129D02*
X44943Y30129D01*
X45142Y30327D02*
X44235Y30327D01*
X44434Y30526D02*
X45340Y30526D01*
X44069Y31717D02*
X39583Y31717D01*
X39385Y31518D02*
X43871Y31518D01*
X43672Y31320D02*
X39186Y31320D01*
X38988Y31121D02*
X43474Y31121D01*
X42798Y31915D02*
X42745Y31915D01*
X41223Y31915D02*
X41030Y31915D01*
X41044Y33104D02*
X41044Y33528D01*
X40868Y33704D01*
X39970Y33704D01*
X40134Y33868D01*
X42995Y36729D01*
X43055Y36704D01*
X43313Y36704D01*
X43552Y36803D01*
X43735Y36986D01*
X43834Y37225D01*
X43834Y37483D01*
X43735Y37722D01*
X43552Y37905D01*
X43313Y38004D01*
X43055Y38004D01*
X42816Y37905D01*
X42633Y37722D01*
X42574Y37581D01*
X39498Y34504D01*
X39248Y34504D01*
X38948Y34204D01*
X38684Y33940D01*
X38684Y33704D01*
X38640Y33704D01*
X38484Y33548D01*
X38328Y33704D01*
X38284Y33704D01*
X38284Y33768D01*
X39270Y34754D01*
X39670Y34754D01*
X39934Y35018D01*
X42534Y37618D01*
X42534Y39968D01*
X42920Y40354D01*
X42984Y40354D01*
X42984Y40205D01*
X43160Y40029D01*
X43222Y40029D01*
X43147Y40009D01*
X43067Y39962D01*
X43001Y39896D01*
X42954Y39816D01*
X42930Y39726D01*
X42930Y39304D01*
X43684Y39304D01*
X43684Y39104D01*
X43884Y39104D01*
X43884Y39304D01*
X44638Y39304D01*
X45234Y39304D01*
X45234Y39104D01*
X45434Y39104D01*
X45434Y38375D01*
X45881Y38375D01*
X45971Y38399D01*
X46051Y38446D01*
X46117Y38512D01*
X46157Y38581D01*
X46310Y38429D01*
X46534Y38429D01*
X46534Y38338D01*
X46768Y38104D01*
X47468Y37404D01*
X48818Y37404D01*
X51334Y34888D01*
X51334Y34563D01*
X51113Y34654D01*
X50855Y34654D01*
X50759Y34614D01*
X50759Y34728D01*
X50583Y34904D01*
X49385Y34904D01*
X49209Y34728D01*
X49209Y33995D01*
X49159Y33945D01*
X49159Y34728D01*
X48983Y34904D01*
X47785Y34904D01*
X47609Y34728D01*
X47609Y33480D01*
X47760Y33329D01*
X47609Y33178D01*
X47609Y33104D01*
X47284Y33104D01*
X47284Y33582D01*
X46962Y33904D01*
X46384Y34482D01*
X46384Y34753D01*
X46208Y34929D01*
X44960Y34929D01*
X44863Y34832D01*
X44863Y35076D01*
X44839Y35166D01*
X44792Y35246D01*
X44726Y35312D01*
X44646Y35359D01*
X44556Y35383D01*
X43884Y35383D01*
X43884Y34554D01*
X43684Y34554D01*
X43684Y35383D01*
X43012Y35383D01*
X42922Y35359D01*
X42842Y35312D01*
X42776Y35246D01*
X42729Y35166D01*
X42705Y35076D01*
X42705Y34909D01*
X42701Y34912D01*
X42621Y34959D01*
X42531Y34983D01*
X42084Y34983D01*
X42084Y34254D01*
X41884Y34254D01*
X41884Y34983D01*
X41437Y34983D01*
X41347Y34959D01*
X41267Y34912D01*
X41201Y34846D01*
X41154Y34766D01*
X41130Y34676D01*
X41130Y34254D01*
X41884Y34254D01*
X41884Y34054D01*
X41130Y34054D01*
X41130Y33632D01*
X41154Y33542D01*
X41201Y33462D01*
X41267Y33396D01*
X41347Y33349D01*
X41422Y33329D01*
X41360Y33329D01*
X41184Y33153D01*
X41184Y33104D01*
X41044Y33104D01*
X41044Y33107D02*
X41184Y33107D01*
X41044Y33305D02*
X41336Y33305D01*
X41177Y33504D02*
X41044Y33504D01*
X41130Y33702D02*
X40870Y33702D01*
X41130Y33901D02*
X40167Y33901D01*
X40365Y34099D02*
X41884Y34099D01*
X41884Y34298D02*
X42084Y34298D01*
X42084Y34496D02*
X41884Y34496D01*
X41884Y34695D02*
X42084Y34695D01*
X42084Y34893D02*
X41884Y34893D01*
X41556Y35290D02*
X42819Y35290D01*
X42709Y35092D02*
X41358Y35092D01*
X41247Y34893D02*
X41159Y34893D01*
X41135Y34695D02*
X40961Y34695D01*
X41130Y34496D02*
X40762Y34496D01*
X40564Y34298D02*
X41130Y34298D01*
X40284Y35290D02*
X40206Y35290D01*
X40085Y35092D02*
X40008Y35092D01*
X39887Y34893D02*
X39809Y34893D01*
X39688Y34695D02*
X39211Y34695D01*
X39240Y34496D02*
X39012Y34496D01*
X39041Y34298D02*
X38814Y34298D01*
X38843Y34099D02*
X38615Y34099D01*
X38684Y33901D02*
X38417Y33901D01*
X38330Y33702D02*
X38638Y33702D01*
X37740Y34496D02*
X32884Y34496D01*
X32884Y34695D02*
X37938Y34695D01*
X38137Y34893D02*
X32884Y34893D01*
X32884Y35092D02*
X38335Y35092D01*
X38534Y35290D02*
X32884Y35290D01*
X32884Y35489D02*
X38732Y35489D01*
X39331Y35687D02*
X32884Y35687D01*
X32884Y35886D02*
X39529Y35886D01*
X39728Y36084D02*
X32884Y36084D01*
X32884Y36283D02*
X39926Y36283D01*
X40125Y36481D02*
X32884Y36481D01*
X32884Y36680D02*
X40323Y36680D01*
X40522Y36878D02*
X32884Y36878D01*
X32884Y37077D02*
X36027Y37077D01*
X35924Y37275D02*
X32884Y37275D01*
X32884Y37474D02*
X35924Y37474D01*
X35924Y37672D02*
X32884Y37672D01*
X32884Y37871D02*
X35924Y37871D01*
X35924Y38069D02*
X32884Y38069D01*
X32884Y38268D02*
X35924Y38268D01*
X35924Y38466D02*
X32746Y38466D01*
X32584Y38665D02*
X35924Y38665D01*
X36009Y38863D02*
X32689Y38863D01*
X32689Y39062D02*
X36084Y39062D01*
X36084Y39260D02*
X32689Y39260D01*
X32689Y39459D02*
X36084Y39459D01*
X36084Y39657D02*
X32689Y39657D01*
X32689Y39856D02*
X36084Y39856D01*
X36084Y40054D02*
X32689Y40054D01*
X32515Y40253D02*
X36084Y40253D01*
X36084Y40451D02*
X30547Y40451D01*
X30745Y40650D02*
X36084Y40650D01*
X36084Y40848D02*
X31394Y40848D01*
X31592Y41047D02*
X36084Y41047D01*
X36084Y41245D02*
X31791Y41245D01*
X31989Y41444D02*
X36084Y41444D01*
X36084Y41642D02*
X32689Y41642D01*
X32689Y41841D02*
X36084Y41841D01*
X36084Y42039D02*
X32689Y42039D01*
X30634Y41104D02*
X30134Y40604D01*
X30134Y39454D01*
X31006Y39260D02*
X31161Y39260D01*
X31161Y39062D02*
X31006Y39062D01*
X31006Y38863D02*
X31161Y38863D01*
X31161Y38665D02*
X31006Y38665D01*
X31006Y39657D02*
X31161Y39657D01*
X31161Y39856D02*
X31006Y39856D01*
X31006Y40054D02*
X31161Y40054D01*
X31161Y40253D02*
X31006Y40253D01*
X29479Y41642D02*
X29284Y41642D01*
X29108Y41829D02*
X28934Y41829D01*
X29108Y41829D01*
X29120Y41841D02*
X29479Y41841D01*
X28934Y41829D02*
X28934Y41829D01*
X28034Y41829D02*
X27860Y41829D01*
X28034Y41829D01*
X28034Y41829D01*
X27630Y44421D02*
X25784Y44421D01*
X25784Y44619D02*
X27630Y44619D01*
X27655Y44818D02*
X25784Y44818D01*
X25784Y45016D02*
X27876Y45016D01*
X28384Y45016D02*
X28584Y45016D01*
X28584Y44818D02*
X28384Y44818D01*
X28384Y44619D02*
X28584Y44619D01*
X29092Y45016D02*
X29396Y45016D01*
X34266Y47994D02*
X35079Y47994D01*
X34965Y47795D02*
X34383Y47795D01*
X36729Y48014D02*
X36804Y47939D01*
X36964Y47553D01*
X36964Y47135D01*
X36945Y47090D01*
X37184Y46852D01*
X37184Y45229D01*
X37258Y45229D01*
X37409Y45078D01*
X37560Y45229D01*
X38808Y45229D01*
X38959Y45078D01*
X39110Y45229D01*
X39184Y45229D01*
X39184Y46312D01*
X39963Y47090D01*
X39944Y47135D01*
X39944Y47553D01*
X40104Y47939D01*
X40179Y48014D01*
X39332Y48014D01*
X39398Y47923D01*
X39477Y47768D01*
X39531Y47603D01*
X39556Y47444D01*
X38554Y47444D01*
X38554Y47244D01*
X39556Y47244D01*
X39531Y47085D01*
X39477Y46920D01*
X39398Y46765D01*
X39296Y46625D01*
X39173Y46502D01*
X39033Y46400D01*
X38878Y46321D01*
X38713Y46267D01*
X38554Y46242D01*
X38554Y47244D01*
X38354Y47244D01*
X38354Y46242D01*
X38195Y46267D01*
X38030Y46321D01*
X37875Y46400D01*
X37735Y46502D01*
X37612Y46625D01*
X37510Y46765D01*
X37431Y46920D01*
X37377Y47085D01*
X37352Y47244D01*
X38354Y47244D01*
X38354Y47444D01*
X37352Y47444D01*
X37377Y47603D01*
X37431Y47768D01*
X37510Y47923D01*
X37576Y48014D01*
X36729Y48014D01*
X36749Y47994D02*
X37562Y47994D01*
X37445Y47795D02*
X36863Y47795D01*
X36946Y47597D02*
X37376Y47597D01*
X37359Y47200D02*
X36964Y47200D01*
X36964Y47398D02*
X38354Y47398D01*
X38354Y47200D02*
X38554Y47200D01*
X38554Y47398D02*
X39944Y47398D01*
X39944Y47200D02*
X39549Y47200D01*
X39504Y47001D02*
X39874Y47001D01*
X39675Y46803D02*
X39417Y46803D01*
X39477Y46604D02*
X39276Y46604D01*
X39278Y46406D02*
X39041Y46406D01*
X39184Y46207D02*
X37184Y46207D01*
X37184Y46009D02*
X39184Y46009D01*
X39184Y45810D02*
X37184Y45810D01*
X37184Y45612D02*
X39184Y45612D01*
X39184Y45413D02*
X37184Y45413D01*
X37272Y45215D02*
X37546Y45215D01*
X37867Y46406D02*
X37184Y46406D01*
X37184Y46604D02*
X37632Y46604D01*
X37491Y46803D02*
X37184Y46803D01*
X37034Y47001D02*
X37404Y47001D01*
X38354Y47001D02*
X38554Y47001D01*
X38554Y46803D02*
X38354Y46803D01*
X38354Y46604D02*
X38554Y46604D01*
X38554Y46406D02*
X38354Y46406D01*
X38822Y45215D02*
X39096Y45215D01*
X38963Y43825D02*
X38955Y43825D01*
X38810Y43627D02*
X39108Y43627D01*
X40360Y43627D02*
X40658Y43627D01*
X40513Y43825D02*
X40505Y43825D01*
X41910Y43627D02*
X69604Y43627D01*
X69604Y43825D02*
X68134Y43825D01*
X68134Y44024D02*
X69604Y44024D01*
X69604Y44222D02*
X68134Y44222D01*
X68134Y44421D02*
X69604Y44421D01*
X69604Y44619D02*
X68134Y44619D01*
X68134Y44818D02*
X69604Y44818D01*
X69604Y45016D02*
X68121Y45016D01*
X67884Y45215D02*
X69604Y45215D01*
X69604Y45413D02*
X67884Y45413D01*
X67884Y45612D02*
X69604Y45612D01*
X69604Y45810D02*
X67884Y45810D01*
X67884Y46009D02*
X69604Y46009D01*
X69604Y46207D02*
X67884Y46207D01*
X67884Y46406D02*
X68347Y46406D01*
X68355Y46400D02*
X68510Y46321D01*
X68675Y46267D01*
X68834Y46242D01*
X68834Y47244D01*
X67832Y47244D01*
X67857Y47085D01*
X67911Y46920D01*
X67990Y46765D01*
X68092Y46625D01*
X68215Y46502D01*
X68355Y46400D01*
X68112Y46604D02*
X67884Y46604D01*
X67971Y46803D02*
X67713Y46803D01*
X67884Y47001D02*
X67514Y47001D01*
X67444Y47200D02*
X67839Y47200D01*
X67856Y47597D02*
X67426Y47597D01*
X67444Y47398D02*
X68834Y47398D01*
X68834Y47200D02*
X69034Y47200D01*
X69034Y47001D02*
X68834Y47001D01*
X68834Y46803D02*
X69034Y46803D01*
X69034Y46604D02*
X68834Y46604D01*
X68834Y46406D02*
X69034Y46406D01*
X69521Y46406D02*
X69604Y46406D01*
X67925Y47795D02*
X67343Y47795D01*
X67229Y47994D02*
X68042Y47994D01*
X64808Y45612D02*
X60284Y45612D01*
X60284Y45810D02*
X64610Y45810D01*
X64411Y46009D02*
X60284Y46009D01*
X60284Y46207D02*
X64213Y46207D01*
X64108Y46313D02*
X65241Y45179D01*
X65210Y45179D01*
X65084Y45053D01*
X64958Y45179D01*
X63710Y45179D01*
X63584Y45053D01*
X63458Y45179D01*
X62210Y45179D01*
X62084Y45053D01*
X61958Y45179D01*
X60710Y45179D01*
X60534Y45003D01*
X60358Y45179D01*
X60284Y45179D01*
X60284Y46612D01*
X59805Y47090D01*
X59824Y47135D01*
X59824Y47553D01*
X59664Y47939D01*
X59589Y48014D01*
X60436Y48014D01*
X60370Y47923D01*
X60291Y47768D01*
X60237Y47603D01*
X60212Y47444D01*
X61214Y47444D01*
X61214Y47244D01*
X61414Y47244D01*
X61414Y47444D01*
X62416Y47444D01*
X62391Y47603D01*
X62337Y47768D01*
X62258Y47923D01*
X62192Y48014D01*
X63039Y48014D01*
X62964Y47939D01*
X62804Y47553D01*
X62804Y47135D01*
X62964Y46749D01*
X63259Y46454D01*
X63645Y46294D01*
X64063Y46294D01*
X64108Y46313D01*
X63375Y46406D02*
X61901Y46406D01*
X61893Y46400D02*
X62033Y46502D01*
X62156Y46625D01*
X62258Y46765D01*
X62337Y46920D01*
X62391Y47085D01*
X62416Y47244D01*
X61414Y47244D01*
X61414Y46242D01*
X61573Y46267D01*
X61738Y46321D01*
X61893Y46400D01*
X62136Y46604D02*
X63109Y46604D01*
X62942Y46803D02*
X62277Y46803D01*
X62364Y47001D02*
X62859Y47001D01*
X62804Y47200D02*
X62409Y47200D01*
X62392Y47597D02*
X62822Y47597D01*
X62804Y47398D02*
X61414Y47398D01*
X61414Y47200D02*
X61214Y47200D01*
X61214Y47244D02*
X61214Y46242D01*
X61055Y46267D01*
X60890Y46321D01*
X60735Y46400D01*
X60595Y46502D01*
X60472Y46625D01*
X60370Y46765D01*
X60291Y46920D01*
X60237Y47085D01*
X60212Y47244D01*
X61214Y47244D01*
X61214Y47398D02*
X59824Y47398D01*
X59824Y47200D02*
X60219Y47200D01*
X60264Y47001D02*
X59894Y47001D01*
X60093Y46803D02*
X60351Y46803D01*
X60284Y46604D02*
X60492Y46604D01*
X60284Y46406D02*
X60727Y46406D01*
X61214Y46406D02*
X61414Y46406D01*
X61414Y46604D02*
X61214Y46604D01*
X61214Y46803D02*
X61414Y46803D01*
X61414Y47001D02*
X61214Y47001D01*
X60236Y47597D02*
X59806Y47597D01*
X59723Y47795D02*
X60305Y47795D01*
X60422Y47994D02*
X59609Y47994D01*
X57939Y47994D02*
X57126Y47994D01*
X57243Y47795D02*
X57825Y47795D01*
X60284Y45413D02*
X65007Y45413D01*
X65205Y45215D02*
X60284Y45215D01*
X60521Y45016D02*
X60547Y45016D01*
X60534Y45003D02*
X60534Y44954D01*
X60534Y44954D01*
X60534Y45003D01*
X60534Y43854D02*
X60534Y43805D01*
X60534Y43854D01*
X60534Y43854D01*
X60534Y43825D02*
X60534Y43825D01*
X60509Y43429D02*
X60559Y43429D01*
X60534Y43403D02*
X60534Y42570D01*
X60534Y42570D01*
X60534Y43403D01*
X60534Y43230D02*
X60534Y43230D01*
X60534Y43032D02*
X60534Y43032D01*
X60534Y42833D02*
X60534Y42833D01*
X60534Y42635D02*
X60534Y42635D01*
X60534Y42004D02*
X61334Y42804D01*
X62134Y42104D02*
X62134Y36004D01*
X62984Y35154D01*
X62984Y31754D01*
X62234Y31004D01*
X60884Y31004D01*
X59484Y29604D01*
X58934Y29604D01*
X58934Y29104D02*
X59584Y29104D01*
X61084Y30604D01*
X62434Y30604D01*
X63384Y31554D01*
X63384Y35354D01*
X62534Y36204D01*
X62534Y40904D01*
X64334Y42704D01*
X64334Y42804D01*
X65784Y42804D02*
X65834Y42804D01*
X65834Y42754D01*
X62934Y39854D01*
X62934Y36404D01*
X63784Y35554D01*
X63784Y31354D01*
X62634Y30204D01*
X61284Y30204D01*
X59684Y28604D01*
X58934Y28604D01*
X58984Y28154D02*
X59834Y28154D01*
X61484Y29804D01*
X62834Y29804D01*
X64184Y31154D01*
X64184Y35754D01*
X63584Y36354D01*
X63584Y38304D01*
X67284Y42004D01*
X67284Y42804D01*
X67334Y42804D01*
X68134Y42833D02*
X69604Y42833D01*
X69604Y43032D02*
X68134Y43032D01*
X68134Y43230D02*
X69604Y43230D01*
X69604Y43429D02*
X68109Y43429D01*
X68134Y42635D02*
X69604Y42635D01*
X69604Y42436D02*
X68134Y42436D01*
X68134Y42238D02*
X69604Y42238D01*
X69604Y42039D02*
X67968Y42039D01*
X67684Y41841D02*
X69604Y41841D01*
X69604Y41642D02*
X67488Y41642D01*
X67289Y41444D02*
X69604Y41444D01*
X69604Y41245D02*
X67091Y41245D01*
X66892Y41047D02*
X69604Y41047D01*
X69604Y40848D02*
X68348Y40848D01*
X68141Y40943D02*
X67527Y40855D01*
X67059Y40449D01*
X66884Y39854D01*
X67059Y39259D01*
X67527Y38853D01*
X68141Y38765D01*
X68704Y39023D01*
X69039Y39544D01*
X69039Y40164D01*
X68704Y40685D01*
X68141Y40943D01*
X67519Y40848D02*
X66694Y40848D01*
X66495Y40650D02*
X67290Y40650D01*
X67061Y40451D02*
X66297Y40451D01*
X66098Y40253D02*
X67001Y40253D01*
X66943Y40054D02*
X65900Y40054D01*
X65701Y39856D02*
X66884Y39856D01*
X66942Y39657D02*
X65503Y39657D01*
X65304Y39459D02*
X67000Y39459D01*
X67058Y39260D02*
X65106Y39260D01*
X64907Y39062D02*
X67287Y39062D01*
X67516Y38863D02*
X64709Y38863D01*
X64510Y38665D02*
X69604Y38665D01*
X69604Y38863D02*
X68355Y38863D01*
X68729Y39062D02*
X69604Y39062D01*
X69604Y39260D02*
X68857Y39260D01*
X68984Y39459D02*
X69604Y39459D01*
X69604Y39657D02*
X69039Y39657D01*
X69039Y39856D02*
X69604Y39856D01*
X69604Y40054D02*
X69039Y40054D01*
X68983Y40253D02*
X69604Y40253D01*
X69604Y40451D02*
X68855Y40451D01*
X68727Y40650D02*
X69604Y40650D01*
X69604Y38466D02*
X64312Y38466D01*
X64234Y38268D02*
X69604Y38268D01*
X69604Y38069D02*
X64190Y38069D01*
X64070Y37871D02*
X69604Y37871D01*
X69604Y37672D02*
X63984Y37672D01*
X63984Y37474D02*
X69604Y37474D01*
X69604Y37275D02*
X63984Y37275D01*
X63984Y37077D02*
X69604Y37077D01*
X69604Y36878D02*
X63984Y36878D01*
X63984Y36680D02*
X69604Y36680D01*
X69604Y36481D02*
X64023Y36481D01*
X64221Y36283D02*
X69604Y36283D01*
X69604Y36084D02*
X64420Y36084D01*
X64584Y35886D02*
X69604Y35886D01*
X69604Y35687D02*
X64584Y35687D01*
X64584Y35489D02*
X69604Y35489D01*
X69604Y35290D02*
X64584Y35290D01*
X64584Y35092D02*
X69604Y35092D01*
X69604Y34893D02*
X64584Y34893D01*
X64584Y34695D02*
X69604Y34695D01*
X69604Y34496D02*
X64584Y34496D01*
X64584Y34298D02*
X69604Y34298D01*
X69604Y34099D02*
X64584Y34099D01*
X64584Y33901D02*
X69604Y33901D01*
X69604Y33702D02*
X64584Y33702D01*
X64584Y33504D02*
X69604Y33504D01*
X69604Y33305D02*
X64584Y33305D01*
X64584Y33107D02*
X69604Y33107D01*
X69604Y32908D02*
X64584Y32908D01*
X64584Y32709D02*
X69604Y32709D01*
X69604Y32511D02*
X64584Y32511D01*
X64584Y32312D02*
X69604Y32312D01*
X69604Y32114D02*
X64584Y32114D01*
X64584Y31915D02*
X69604Y31915D01*
X69604Y31717D02*
X64584Y31717D01*
X64584Y31518D02*
X69604Y31518D01*
X69604Y31320D02*
X64584Y31320D01*
X64584Y31121D02*
X69604Y31121D01*
X69604Y30923D02*
X64519Y30923D01*
X64350Y30754D02*
X64350Y30754D01*
X64320Y30724D02*
X69604Y30724D01*
X69604Y30526D02*
X64122Y30526D01*
X63923Y30327D02*
X69604Y30327D01*
X69604Y30129D02*
X63725Y30129D01*
X63526Y29930D02*
X69604Y29930D01*
X69604Y29732D02*
X63328Y29732D01*
X63129Y29533D02*
X69604Y29533D01*
X69604Y29335D02*
X61581Y29335D01*
X61382Y29136D02*
X69604Y29136D01*
X69604Y28938D02*
X61184Y28938D01*
X60985Y28739D02*
X69604Y28739D01*
X69604Y28541D02*
X60787Y28541D01*
X60588Y28342D02*
X69604Y28342D01*
X69604Y28144D02*
X60390Y28144D01*
X60191Y27945D02*
X69604Y27945D01*
X69604Y27747D02*
X60207Y27747D01*
X60405Y27548D02*
X69604Y27548D01*
X69604Y27350D02*
X60604Y27350D01*
X60802Y27151D02*
X69604Y27151D01*
X69604Y26953D02*
X61001Y26953D01*
X61199Y26754D02*
X69604Y26754D01*
X69604Y26556D02*
X61398Y26556D01*
X61596Y26357D02*
X69604Y26357D01*
X69604Y26159D02*
X61795Y26159D01*
X61993Y25960D02*
X69604Y25960D01*
X69604Y25762D02*
X62192Y25762D01*
X62390Y25563D02*
X69604Y25563D01*
X69604Y25365D02*
X62589Y25365D01*
X62787Y25166D02*
X69604Y25166D01*
X69604Y24968D02*
X62986Y24968D01*
X63184Y24769D02*
X69604Y24769D01*
X69604Y24571D02*
X63284Y24571D01*
X63284Y24372D02*
X69604Y24372D01*
X69604Y24174D02*
X68876Y24174D01*
X68866Y24191D02*
X68800Y24257D01*
X68720Y24304D01*
X68630Y24328D01*
X67933Y24328D01*
X67933Y23274D01*
X67733Y23274D01*
X67733Y24328D01*
X67036Y24328D01*
X66946Y24304D01*
X66866Y24257D01*
X66800Y24191D01*
X66753Y24111D01*
X66729Y24021D01*
X66729Y23274D01*
X67733Y23274D01*
X67733Y23074D01*
X67933Y23074D01*
X67933Y23274D01*
X68937Y23274D01*
X68937Y24021D01*
X68913Y24111D01*
X68866Y24191D01*
X68937Y23975D02*
X69604Y23975D01*
X69604Y23777D02*
X68937Y23777D01*
X68937Y23578D02*
X69604Y23578D01*
X69604Y23380D02*
X68937Y23380D01*
X68937Y23074D02*
X67933Y23074D01*
X67933Y22020D01*
X68630Y22020D01*
X68720Y22044D01*
X68800Y22091D01*
X68866Y22157D01*
X68913Y22237D01*
X68937Y22327D01*
X68937Y23074D01*
X68937Y22983D02*
X69604Y22983D01*
X69604Y22784D02*
X68937Y22784D01*
X68937Y22586D02*
X69604Y22586D01*
X69604Y22387D02*
X68937Y22387D01*
X68885Y22189D02*
X69604Y22189D01*
X69604Y21990D02*
X63284Y21990D01*
X63284Y21792D02*
X69604Y21792D01*
X69604Y21594D02*
X68848Y21594D01*
X68883Y21558D02*
X68707Y21734D01*
X66959Y21734D01*
X66783Y21558D01*
X66783Y19710D01*
X66959Y19534D01*
X68707Y19534D01*
X68883Y19710D01*
X68883Y21558D01*
X68883Y21395D02*
X69604Y21395D01*
X69604Y21197D02*
X68883Y21197D01*
X68883Y20998D02*
X69604Y20998D01*
X69604Y20800D02*
X68883Y20800D01*
X68883Y20601D02*
X69604Y20601D01*
X69604Y20403D02*
X68883Y20403D01*
X68883Y20204D02*
X69604Y20204D01*
X69604Y20006D02*
X68883Y20006D01*
X68883Y19807D02*
X69604Y19807D01*
X69604Y19609D02*
X68782Y19609D01*
X69604Y19410D02*
X65934Y19410D01*
X65934Y19534D02*
X66507Y19534D01*
X66683Y19710D01*
X66683Y21558D01*
X66507Y21734D01*
X64759Y21734D01*
X64583Y21558D01*
X64583Y19710D01*
X64759Y19534D01*
X64834Y19534D01*
X64834Y19154D01*
X64785Y19154D01*
X64628Y18997D01*
X64612Y19004D01*
X64354Y19004D01*
X64115Y18905D01*
X63932Y18722D01*
X63833Y18483D01*
X63833Y18225D01*
X63932Y17986D01*
X64115Y17803D01*
X64354Y17704D01*
X64612Y17704D01*
X64628Y17711D01*
X64785Y17554D01*
X65983Y17554D01*
X66159Y17730D01*
X66159Y17792D01*
X66179Y17717D01*
X66226Y17637D01*
X66292Y17571D01*
X66372Y17524D01*
X66462Y17500D01*
X66884Y17500D01*
X66884Y18254D01*
X67084Y18254D01*
X67084Y18454D01*
X66884Y18454D01*
X66884Y19208D01*
X66462Y19208D01*
X66372Y19184D01*
X66292Y19137D01*
X66226Y19071D01*
X66179Y18991D01*
X66159Y18916D01*
X66159Y18978D01*
X65983Y19154D01*
X65934Y19154D01*
X65934Y19534D01*
X65934Y19212D02*
X69604Y19212D01*
X69604Y19013D02*
X67776Y19013D01*
X67789Y18991D02*
X67742Y19071D01*
X67676Y19137D01*
X67596Y19184D01*
X67506Y19208D01*
X67084Y19208D01*
X67084Y18454D01*
X67813Y18454D01*
X67813Y18901D01*
X67789Y18991D01*
X67813Y18815D02*
X69604Y18815D01*
X69604Y18616D02*
X67813Y18616D01*
X67813Y18254D02*
X67084Y18254D01*
X67084Y17500D01*
X67506Y17500D01*
X67596Y17524D01*
X67676Y17571D01*
X67742Y17637D01*
X67789Y17717D01*
X67813Y17807D01*
X67813Y18254D01*
X67813Y18219D02*
X69604Y18219D01*
X69604Y18418D02*
X67084Y18418D01*
X67084Y18616D02*
X66884Y18616D01*
X66884Y18815D02*
X67084Y18815D01*
X67084Y19013D02*
X66884Y19013D01*
X66192Y19013D02*
X66124Y19013D01*
X66884Y18219D02*
X67084Y18219D01*
X67084Y18021D02*
X66884Y18021D01*
X66884Y17822D02*
X67084Y17822D01*
X67084Y17624D02*
X66884Y17624D01*
X66239Y17624D02*
X66053Y17624D01*
X64715Y17624D02*
X63119Y17624D01*
X63284Y17822D02*
X64096Y17822D01*
X63918Y18021D02*
X63284Y18021D01*
X63284Y18219D02*
X63835Y18219D01*
X63833Y18418D02*
X63284Y18418D01*
X63284Y18616D02*
X63888Y18616D01*
X64024Y18815D02*
X63284Y18815D01*
X63284Y19013D02*
X64644Y19013D01*
X64834Y19212D02*
X63284Y19212D01*
X63284Y19410D02*
X64834Y19410D01*
X64684Y19609D02*
X63284Y19609D01*
X63284Y19807D02*
X64583Y19807D01*
X64583Y20006D02*
X63284Y20006D01*
X63284Y20204D02*
X64583Y20204D01*
X64583Y20403D02*
X63284Y20403D01*
X63284Y20601D02*
X64583Y20601D01*
X64583Y20800D02*
X63284Y20800D01*
X63284Y20998D02*
X64583Y20998D01*
X64583Y21197D02*
X63284Y21197D01*
X63284Y21395D02*
X64583Y21395D01*
X64618Y21594D02*
X63284Y21594D01*
X63284Y22189D02*
X64644Y22189D01*
X64583Y22250D02*
X64759Y22074D01*
X66507Y22074D01*
X66683Y22250D01*
X66683Y24098D01*
X66507Y24274D01*
X64759Y24274D01*
X64583Y24098D01*
X64583Y23733D01*
X64412Y23804D01*
X64154Y23804D01*
X63915Y23705D01*
X63732Y23522D01*
X63633Y23283D01*
X63633Y23025D01*
X63732Y22786D01*
X63915Y22603D01*
X64154Y22504D01*
X64412Y22504D01*
X64583Y22575D01*
X64583Y22250D01*
X64583Y22387D02*
X63284Y22387D01*
X63284Y22586D02*
X63956Y22586D01*
X63733Y22784D02*
X63284Y22784D01*
X63284Y22983D02*
X63650Y22983D01*
X63633Y23181D02*
X63284Y23181D01*
X63284Y23380D02*
X63673Y23380D01*
X63788Y23578D02*
X63284Y23578D01*
X63284Y23777D02*
X64089Y23777D01*
X64477Y23777D02*
X64583Y23777D01*
X64583Y23975D02*
X63284Y23975D01*
X63284Y24174D02*
X64659Y24174D01*
X64283Y23154D02*
X65613Y23154D01*
X65633Y23174D01*
X66683Y23181D02*
X67733Y23181D01*
X67733Y23074D02*
X66729Y23074D01*
X66729Y22327D01*
X66753Y22237D01*
X66800Y22157D01*
X66866Y22091D01*
X66946Y22044D01*
X67036Y22020D01*
X67733Y22020D01*
X67733Y23074D01*
X67733Y22983D02*
X67933Y22983D01*
X67933Y22784D02*
X67733Y22784D01*
X67733Y22586D02*
X67933Y22586D01*
X67933Y22387D02*
X67733Y22387D01*
X67733Y22189D02*
X67933Y22189D01*
X67933Y23181D02*
X69604Y23181D01*
X67933Y23380D02*
X67733Y23380D01*
X67733Y23578D02*
X67933Y23578D01*
X67933Y23777D02*
X67733Y23777D01*
X67733Y23975D02*
X67933Y23975D01*
X67933Y24174D02*
X67733Y24174D01*
X66790Y24174D02*
X66607Y24174D01*
X66683Y23975D02*
X66729Y23975D01*
X66729Y23777D02*
X66683Y23777D01*
X66683Y23578D02*
X66729Y23578D01*
X66729Y23380D02*
X66683Y23380D01*
X66683Y22983D02*
X66729Y22983D01*
X66729Y22784D02*
X66683Y22784D01*
X66683Y22586D02*
X66729Y22586D01*
X66729Y22387D02*
X66683Y22387D01*
X66622Y22189D02*
X66781Y22189D01*
X66818Y21594D02*
X66648Y21594D01*
X66683Y21395D02*
X66783Y21395D01*
X66783Y21197D02*
X66683Y21197D01*
X66683Y20998D02*
X66783Y20998D01*
X66783Y20800D02*
X66683Y20800D01*
X66683Y20601D02*
X66783Y20601D01*
X66783Y20403D02*
X66683Y20403D01*
X66683Y20204D02*
X66783Y20204D01*
X66783Y20006D02*
X66683Y20006D01*
X66683Y19807D02*
X66783Y19807D01*
X66884Y19609D02*
X66582Y19609D01*
X67813Y18021D02*
X69604Y18021D01*
X69604Y17822D02*
X67813Y17822D01*
X67729Y17624D02*
X69604Y17624D01*
X69604Y17425D02*
X62921Y17425D01*
X62722Y17227D02*
X69604Y17227D01*
X69604Y17028D02*
X62524Y17028D01*
X62325Y16830D02*
X69604Y16830D01*
X69604Y16631D02*
X62127Y16631D01*
X61928Y16433D02*
X69604Y16433D01*
X69604Y16234D02*
X61730Y16234D01*
X61531Y16035D02*
X69604Y16035D01*
X69604Y15837D02*
X61333Y15837D01*
X61134Y15638D02*
X69604Y15638D01*
X69604Y15440D02*
X60936Y15440D01*
X60809Y15241D02*
X69604Y15241D01*
X69604Y15043D02*
X60809Y15043D01*
X60809Y14844D02*
X69604Y14844D01*
X69604Y14646D02*
X61566Y14646D01*
X61584Y14447D02*
X69604Y14447D01*
X69604Y14249D02*
X61584Y14249D01*
X61584Y14050D02*
X69604Y14050D01*
X69604Y13852D02*
X61584Y13852D01*
X61584Y13653D02*
X69604Y13653D01*
X69604Y13455D02*
X61584Y13455D01*
X61584Y13256D02*
X69604Y13256D01*
X69604Y13058D02*
X61584Y13058D01*
X61564Y12859D02*
X69604Y12859D01*
X69604Y12661D02*
X54872Y12661D01*
X54571Y12661D02*
X54546Y12661D01*
X54546Y12859D02*
X54571Y12859D01*
X54571Y13058D02*
X54546Y13058D01*
X54546Y13256D02*
X54571Y13256D01*
X54571Y13455D02*
X54546Y13455D01*
X54546Y13653D02*
X54571Y13653D01*
X54546Y13741D02*
X53922Y13741D01*
X53922Y13766D01*
X54488Y13766D01*
X54546Y13766D01*
X54546Y13741D01*
X54546Y13852D02*
X54571Y13852D01*
X54571Y14050D02*
X54546Y14050D01*
X54546Y14249D02*
X54571Y14249D01*
X54571Y14447D02*
X54546Y14447D01*
X54546Y14646D02*
X54571Y14646D01*
X54571Y14844D02*
X54546Y14844D01*
X54679Y15043D02*
X51684Y15043D01*
X51684Y14844D02*
X53587Y14844D01*
X53357Y14646D02*
X51684Y14646D01*
X51684Y14447D02*
X53330Y14447D01*
X53330Y14249D02*
X51684Y14249D01*
X51684Y14050D02*
X53330Y14050D01*
X53330Y13852D02*
X51684Y13852D01*
X51684Y13653D02*
X53330Y13653D01*
X53330Y13741D02*
X53330Y12957D01*
X53354Y12867D01*
X53401Y12787D01*
X53467Y12721D01*
X53547Y12674D01*
X53637Y12650D01*
X53896Y12650D01*
X53896Y13741D01*
X53330Y13741D01*
X53330Y13455D02*
X51684Y13455D01*
X51684Y13256D02*
X53330Y13256D01*
X53330Y13058D02*
X51684Y13058D01*
X51684Y12859D02*
X53359Y12859D01*
X53596Y12661D02*
X51684Y12661D01*
X51558Y12462D02*
X69604Y12462D01*
X69604Y12264D02*
X51360Y12264D01*
X51161Y12065D02*
X54891Y12065D01*
X54866Y12055D02*
X54683Y11872D01*
X54613Y11704D01*
X38925Y11704D01*
X38835Y11922D01*
X38652Y12105D01*
X38413Y12204D01*
X38155Y12204D01*
X37916Y12105D01*
X37733Y11922D01*
X37634Y11683D01*
X37634Y11425D01*
X37733Y11186D01*
X37916Y11003D01*
X38155Y10904D01*
X54984Y10904D01*
X55105Y10854D01*
X55363Y10854D01*
X55602Y10953D01*
X55785Y11136D01*
X55884Y11375D01*
X55884Y11633D01*
X55785Y11872D01*
X55602Y12055D01*
X55363Y12154D01*
X55105Y12154D01*
X54866Y12055D01*
X54681Y11867D02*
X50963Y11867D01*
X50634Y12104D02*
X51284Y12754D01*
X51284Y15754D01*
X54534Y15754D01*
X55209Y15079D01*
X55209Y13754D01*
X55859Y13754D02*
X55859Y15979D01*
X56584Y16704D01*
X56584Y22104D01*
X55734Y22954D01*
X55734Y23904D01*
X56234Y23904D02*
X56234Y23054D01*
X56984Y22304D01*
X56984Y16504D01*
X56509Y16029D01*
X56509Y13754D01*
X57159Y13754D02*
X57159Y15229D01*
X60884Y18954D01*
X60884Y21354D01*
X60384Y21854D01*
X58884Y21854D01*
X57984Y22754D01*
X57834Y22754D01*
X57234Y23354D01*
X57234Y23904D01*
X57734Y23904D02*
X57734Y23454D01*
X58034Y23154D01*
X60884Y23154D01*
X61684Y23904D02*
X61684Y18554D01*
X58459Y15329D01*
X58459Y13754D01*
X57809Y13754D02*
X57809Y15279D01*
X61284Y18754D01*
X61284Y21554D01*
X60334Y22504D01*
X59634Y22504D01*
X59634Y23904D02*
X58234Y23904D01*
X58934Y24604D02*
X60984Y24604D01*
X61684Y23904D01*
X62084Y24104D02*
X62084Y18354D01*
X59109Y15379D01*
X59109Y13754D01*
X59759Y13754D02*
X59759Y15429D01*
X62484Y18154D01*
X62484Y24304D01*
X59684Y27104D01*
X58934Y27104D01*
X58934Y27604D02*
X59784Y27604D01*
X62884Y24504D01*
X62884Y17954D01*
X60409Y15479D01*
X60409Y13754D01*
X57400Y16035D02*
X57081Y16035D01*
X57201Y15837D02*
X56909Y15837D01*
X56909Y15863D02*
X57384Y16338D01*
X57384Y18625D01*
X57684Y18625D01*
X57684Y19354D01*
X57884Y19354D01*
X57884Y19554D01*
X59234Y19554D01*
X59234Y19354D01*
X59434Y19354D01*
X59434Y19554D01*
X60188Y19554D01*
X60188Y19976D01*
X60164Y20066D01*
X60117Y20146D01*
X60051Y20212D01*
X59971Y20259D01*
X59896Y20279D01*
X59958Y20279D01*
X60083Y20404D01*
X60313Y20404D01*
X60484Y20475D01*
X60484Y19120D01*
X56909Y15545D01*
X56909Y15863D01*
X56909Y15638D02*
X57003Y15638D01*
X57280Y16234D02*
X57598Y16234D01*
X57797Y16433D02*
X57384Y16433D01*
X57384Y16631D02*
X57995Y16631D01*
X58194Y16830D02*
X57384Y16830D01*
X57384Y17028D02*
X58392Y17028D01*
X58591Y17227D02*
X57384Y17227D01*
X57384Y17425D02*
X58789Y17425D01*
X58988Y17624D02*
X57384Y17624D01*
X57384Y17822D02*
X59186Y17822D01*
X59385Y18021D02*
X57384Y18021D01*
X57384Y18219D02*
X59583Y18219D01*
X59782Y18418D02*
X57384Y18418D01*
X57384Y18616D02*
X59980Y18616D01*
X59971Y18649D02*
X60051Y18696D01*
X60117Y18762D01*
X60164Y18842D01*
X60188Y18932D01*
X60188Y19354D01*
X59434Y19354D01*
X59434Y18625D01*
X59881Y18625D01*
X59971Y18649D01*
X60148Y18815D02*
X60179Y18815D01*
X60188Y19013D02*
X60377Y19013D01*
X60484Y19212D02*
X60188Y19212D01*
X60484Y19410D02*
X59434Y19410D01*
X59434Y19212D02*
X59234Y19212D01*
X59234Y19354D02*
X59234Y18625D01*
X58787Y18625D01*
X58697Y18649D01*
X58617Y18696D01*
X58559Y18753D01*
X58501Y18696D01*
X58421Y18649D01*
X58331Y18625D01*
X57884Y18625D01*
X57884Y19354D01*
X58480Y19354D01*
X59234Y19354D01*
X59234Y19410D02*
X57884Y19410D01*
X57884Y19212D02*
X57684Y19212D01*
X57684Y19013D02*
X57884Y19013D01*
X57884Y18815D02*
X57684Y18815D01*
X56184Y18625D02*
X56184Y18408D01*
X55884Y18408D01*
X55884Y17654D01*
X55684Y17654D01*
X55684Y18408D01*
X55262Y18408D01*
X55172Y18384D01*
X55092Y18337D01*
X55026Y18271D01*
X54979Y18191D01*
X54959Y18116D01*
X54959Y18178D01*
X54783Y18354D01*
X53585Y18354D01*
X53434Y18203D01*
X53284Y18353D01*
X53284Y18679D01*
X53408Y18679D01*
X53497Y18768D01*
X53501Y18762D01*
X53567Y18696D01*
X53647Y18649D01*
X53737Y18625D01*
X54184Y18625D01*
X54184Y19354D01*
X54384Y19354D01*
X54384Y19554D01*
X55138Y19554D01*
X55684Y19554D01*
X55684Y19354D01*
X55884Y19354D01*
X55884Y18625D01*
X56184Y18625D01*
X56184Y18616D02*
X53284Y18616D01*
X53284Y18418D02*
X56184Y18418D01*
X55884Y18219D02*
X55684Y18219D01*
X55684Y18021D02*
X55884Y18021D01*
X55884Y17822D02*
X55684Y17822D01*
X55684Y17454D02*
X55884Y17454D01*
X55884Y16700D01*
X56014Y16700D01*
X55693Y16379D01*
X55459Y16145D01*
X55459Y15395D01*
X55375Y15479D01*
X54700Y16154D01*
X51000Y16154D01*
X50384Y16770D01*
X50384Y16778D01*
X50392Y16771D01*
X50472Y16724D01*
X50562Y16700D01*
X50984Y16700D01*
X50984Y17454D01*
X51184Y17454D01*
X51184Y16700D01*
X51606Y16700D01*
X51696Y16724D01*
X51776Y16771D01*
X51842Y16837D01*
X51889Y16917D01*
X51909Y16992D01*
X51909Y16930D01*
X52085Y16754D01*
X53283Y16754D01*
X53434Y16905D01*
X53585Y16754D01*
X54783Y16754D01*
X54959Y16930D01*
X54959Y16992D01*
X54979Y16917D01*
X55026Y16837D01*
X55092Y16771D01*
X55172Y16724D01*
X55262Y16700D01*
X55684Y16700D01*
X55684Y17454D01*
X55684Y17425D02*
X55884Y17425D01*
X55884Y17227D02*
X55684Y17227D01*
X55684Y17028D02*
X55884Y17028D01*
X55884Y16830D02*
X55684Y16830D01*
X55945Y16631D02*
X50523Y16631D01*
X50721Y16433D02*
X55747Y16433D01*
X55548Y16234D02*
X50920Y16234D01*
X50834Y15754D02*
X51284Y15754D01*
X50834Y15754D02*
X49984Y16604D01*
X49984Y21354D01*
X50534Y21904D01*
X51484Y21904D01*
X51934Y22354D01*
X53384Y22354D01*
X54234Y23204D01*
X54234Y23904D01*
X53734Y23904D02*
X53734Y23304D01*
X53184Y22754D01*
X51734Y22754D01*
X51284Y22304D01*
X50334Y22304D01*
X48834Y20804D01*
X48834Y15254D01*
X49409Y14679D01*
X49409Y13754D01*
X50046Y13767D02*
X50046Y14858D01*
X49796Y14858D01*
X49234Y15420D01*
X49234Y20638D01*
X49584Y20988D01*
X49584Y16438D01*
X50434Y15588D01*
X50668Y15354D01*
X50884Y15354D01*
X50884Y12920D01*
X50468Y12504D01*
X45000Y12504D01*
X44800Y12704D01*
X49646Y12704D01*
X49697Y12674D01*
X49787Y12650D01*
X50046Y12650D01*
X50046Y13741D01*
X50071Y13741D01*
X50071Y12650D01*
X50331Y12650D01*
X50421Y12674D01*
X50501Y12721D01*
X50567Y12787D01*
X50614Y12867D01*
X50638Y12957D01*
X50638Y13741D01*
X50072Y13741D01*
X50072Y13766D01*
X50638Y13766D01*
X50638Y14551D01*
X50614Y14641D01*
X50567Y14721D01*
X50501Y14787D01*
X50421Y14834D01*
X50331Y14858D01*
X50071Y14858D01*
X50071Y13767D01*
X50046Y13767D01*
X50046Y13852D02*
X50071Y13852D01*
X50071Y14050D02*
X50046Y14050D01*
X50046Y14249D02*
X50071Y14249D01*
X50071Y14447D02*
X50046Y14447D01*
X50046Y14646D02*
X50071Y14646D01*
X50071Y14844D02*
X50046Y14844D01*
X50381Y14844D02*
X50884Y14844D01*
X50884Y14646D02*
X50611Y14646D01*
X50638Y14447D02*
X50884Y14447D01*
X50884Y14249D02*
X50638Y14249D01*
X50638Y14050D02*
X50884Y14050D01*
X50884Y13852D02*
X50638Y13852D01*
X50638Y13653D02*
X50884Y13653D01*
X50884Y13455D02*
X50638Y13455D01*
X50638Y13256D02*
X50884Y13256D01*
X50884Y13058D02*
X50638Y13058D01*
X50609Y12859D02*
X50824Y12859D01*
X50625Y12661D02*
X50372Y12661D01*
X50071Y12661D02*
X50046Y12661D01*
X50046Y12859D02*
X50071Y12859D01*
X50071Y13058D02*
X50046Y13058D01*
X50046Y13256D02*
X50071Y13256D01*
X50071Y13455D02*
X50046Y13455D01*
X50046Y13653D02*
X50071Y13653D01*
X48759Y13754D02*
X48759Y14679D01*
X48434Y15004D01*
X48434Y21014D01*
X50124Y22704D01*
X51084Y22704D01*
X51534Y23154D01*
X52984Y23154D01*
X53234Y23404D01*
X53234Y23904D01*
X52734Y23904D02*
X51684Y23904D01*
X50884Y23104D01*
X49934Y23104D01*
X48034Y21204D01*
X48034Y13829D01*
X48109Y13754D01*
X47459Y13754D02*
X47459Y14679D01*
X47634Y14854D01*
X47634Y21404D01*
X49184Y22954D01*
X49184Y24654D01*
X49334Y24804D01*
X50984Y24804D01*
X51284Y25104D01*
X52034Y25104D01*
X52034Y26104D02*
X51284Y26104D01*
X50984Y26404D01*
X47184Y26404D01*
X46584Y25804D01*
X46584Y23404D01*
X47234Y22754D01*
X47234Y15104D01*
X46809Y14679D01*
X46809Y13754D01*
X46159Y13754D02*
X46159Y14679D01*
X46834Y15354D01*
X46834Y22554D01*
X46184Y23204D01*
X46184Y26004D01*
X46984Y26804D01*
X51184Y26804D01*
X51384Y26604D01*
X52034Y26604D01*
X52034Y27104D02*
X51484Y27104D01*
X51384Y27204D01*
X46784Y27204D01*
X45784Y26204D01*
X45784Y23004D01*
X46434Y22354D01*
X46434Y15604D01*
X45509Y14679D01*
X45509Y13754D01*
X44859Y13754D02*
X44859Y14679D01*
X46034Y15854D01*
X46034Y22154D01*
X45384Y22804D01*
X45384Y26404D01*
X46584Y27604D01*
X52034Y27604D01*
X52034Y28104D02*
X46484Y28104D01*
X44984Y26604D01*
X44984Y24904D01*
X41834Y21754D01*
X41184Y21754D01*
X40984Y21554D01*
X40984Y21054D01*
X40984Y19304D01*
X42084Y18204D01*
X43094Y18204D01*
X43109Y18219D01*
X44084Y18553D02*
X44084Y18698D01*
X43928Y18854D01*
X44034Y18960D01*
X44034Y18905D01*
X44210Y18729D01*
X45458Y18729D01*
X45634Y18905D01*
X45634Y20103D01*
X45458Y20279D01*
X44210Y20279D01*
X44034Y20103D01*
X44034Y20018D01*
X43957Y20095D01*
X44001Y20121D01*
X44067Y20187D01*
X44114Y20267D01*
X44138Y20357D01*
X44138Y20681D01*
X43187Y20681D01*
X43187Y20837D01*
X43031Y20837D01*
X43031Y21468D01*
X42387Y21468D01*
X42297Y21444D01*
X42217Y21397D01*
X42151Y21331D01*
X42104Y21251D01*
X42080Y21161D01*
X42080Y20837D01*
X43031Y20837D01*
X43031Y20681D01*
X42080Y20681D01*
X42080Y20357D01*
X42104Y20267D01*
X42151Y20187D01*
X42217Y20121D01*
X42261Y20095D01*
X42134Y19968D01*
X42134Y19010D01*
X42290Y18854D01*
X42145Y18709D01*
X41384Y19470D01*
X41384Y20535D01*
X41535Y20686D01*
X41634Y20925D01*
X41634Y21183D01*
X41563Y21354D01*
X42000Y21354D01*
X42234Y21588D01*
X44984Y24338D01*
X44984Y22638D01*
X45634Y21988D01*
X45634Y16020D01*
X44459Y14845D01*
X44459Y14804D01*
X42560Y14804D01*
X42384Y14628D01*
X42384Y13054D01*
X42059Y13054D01*
X42059Y13278D01*
X41883Y13454D01*
X41834Y13454D01*
X41834Y13526D01*
X41984Y13676D01*
X41984Y13818D01*
X42384Y14218D01*
X42384Y15018D01*
X42920Y15554D01*
X44220Y15554D01*
X44484Y15818D01*
X45020Y16354D01*
X45020Y16354D01*
X45284Y16618D01*
X45284Y17129D01*
X45458Y17129D01*
X45634Y17305D01*
X45634Y18503D01*
X45458Y18679D01*
X44210Y18679D01*
X44084Y18553D01*
X44084Y18616D02*
X44147Y18616D01*
X44124Y18815D02*
X43968Y18815D01*
X45521Y18616D02*
X45634Y18616D01*
X45634Y18815D02*
X45544Y18815D01*
X45634Y19013D02*
X45634Y19013D01*
X45634Y19212D02*
X45634Y19212D01*
X45634Y19410D02*
X45634Y19410D01*
X45634Y19609D02*
X45634Y19609D01*
X45634Y19807D02*
X45634Y19807D01*
X45634Y20006D02*
X45634Y20006D01*
X45634Y20204D02*
X45533Y20204D01*
X45634Y20403D02*
X44138Y20403D01*
X44138Y20601D02*
X45634Y20601D01*
X45634Y20800D02*
X43187Y20800D01*
X43187Y20837D02*
X44138Y20837D01*
X44138Y21161D01*
X44114Y21251D01*
X44067Y21331D01*
X44001Y21397D01*
X43921Y21444D01*
X43831Y21468D01*
X43187Y21468D01*
X43187Y20837D01*
X43031Y20800D02*
X41582Y20800D01*
X41634Y20998D02*
X42080Y20998D01*
X42090Y21197D02*
X41629Y21197D01*
X42041Y21395D02*
X42214Y21395D01*
X42239Y21594D02*
X45634Y21594D01*
X45634Y21792D02*
X42438Y21792D01*
X42636Y21990D02*
X45632Y21990D01*
X45433Y22189D02*
X42835Y22189D01*
X43033Y22387D02*
X45235Y22387D01*
X45036Y22586D02*
X43232Y22586D01*
X43430Y22784D02*
X44984Y22784D01*
X44984Y22983D02*
X43629Y22983D01*
X43827Y23181D02*
X44984Y23181D01*
X44984Y23380D02*
X44026Y23380D01*
X44224Y23578D02*
X44984Y23578D01*
X44984Y23777D02*
X44423Y23777D01*
X44621Y23975D02*
X44984Y23975D01*
X44984Y24174D02*
X44820Y24174D01*
X44584Y25104D02*
X41634Y22154D01*
X40984Y22154D01*
X40034Y21204D01*
X40034Y20104D01*
X40034Y19654D01*
X41934Y17754D01*
X41934Y16954D01*
X41934Y16154D01*
X40984Y15204D01*
X41218Y16004D02*
X40385Y16004D01*
X40209Y15828D01*
X40209Y14580D01*
X40335Y14454D01*
X40033Y14454D01*
X40159Y14580D01*
X40159Y15828D01*
X39983Y16004D01*
X38785Y16004D01*
X38609Y15828D01*
X38433Y16004D01*
X38384Y16004D01*
X38384Y16294D01*
X38658Y16294D01*
X38834Y16470D01*
X38834Y17428D01*
X38678Y17584D01*
X38834Y17740D01*
X38834Y18698D01*
X38678Y18854D01*
X38834Y19010D01*
X38834Y19538D01*
X39384Y20088D01*
X39384Y19975D01*
X39483Y19736D01*
X39634Y19585D01*
X39634Y19488D01*
X39868Y19254D01*
X39868Y19254D01*
X41534Y17588D01*
X41534Y16320D01*
X41218Y16004D01*
X41250Y16035D02*
X38384Y16035D01*
X38384Y16234D02*
X41448Y16234D01*
X41534Y16433D02*
X38797Y16433D01*
X38834Y16631D02*
X41534Y16631D01*
X41534Y16830D02*
X38834Y16830D01*
X38834Y17028D02*
X41534Y17028D01*
X41534Y17227D02*
X38834Y17227D01*
X38834Y17425D02*
X41534Y17425D01*
X41499Y17624D02*
X38718Y17624D01*
X38834Y17822D02*
X41300Y17822D01*
X41102Y18021D02*
X38834Y18021D01*
X38834Y18219D02*
X40903Y18219D01*
X40705Y18418D02*
X38834Y18418D01*
X38834Y18616D02*
X40506Y18616D01*
X40308Y18815D02*
X38718Y18815D01*
X38834Y19013D02*
X40109Y19013D01*
X39911Y19212D02*
X38834Y19212D01*
X38834Y19410D02*
X39712Y19410D01*
X39610Y19609D02*
X38904Y19609D01*
X39103Y19807D02*
X39453Y19807D01*
X39384Y20006D02*
X39301Y20006D01*
X39084Y20354D02*
X38219Y19489D01*
X37859Y19489D01*
X37844Y19504D01*
X36884Y19504D01*
X36584Y19804D01*
X36584Y20654D01*
X35684Y21554D01*
X26634Y21554D01*
X25754Y20674D01*
X27407Y19212D02*
X29134Y19212D01*
X29134Y19410D02*
X27606Y19410D01*
X27804Y19609D02*
X29134Y19609D01*
X29134Y19807D02*
X28003Y19807D01*
X28201Y20006D02*
X29134Y20006D01*
X29134Y20035D02*
X29134Y17076D01*
X29456Y16754D01*
X29456Y16754D01*
X36606Y09604D01*
X37705Y09604D01*
X37643Y09454D01*
X36585Y09454D01*
X36409Y09278D01*
X36409Y08630D01*
X36410Y08629D01*
X36409Y08628D01*
X36409Y08042D01*
X36379Y07991D01*
X36355Y07901D01*
X36355Y07654D01*
X37184Y07654D01*
X38013Y07654D01*
X38013Y07901D01*
X38009Y07914D01*
X38450Y08354D01*
X38667Y08572D01*
X38785Y08454D01*
X39983Y08454D01*
X40130Y08601D01*
X40130Y08404D01*
X40884Y08404D01*
X40884Y08204D01*
X41084Y08204D01*
X41084Y08404D01*
X41838Y08404D01*
X41838Y08826D01*
X41814Y08916D01*
X41767Y08996D01*
X41701Y09062D01*
X41621Y09109D01*
X41546Y09129D01*
X41608Y09129D01*
X41784Y09305D01*
X41784Y09604D01*
X42459Y09604D01*
X42459Y08903D01*
X42384Y08828D01*
X42384Y07104D01*
X40000Y07104D01*
X39950Y07154D01*
X39983Y07154D01*
X40159Y07330D01*
X40159Y07684D01*
X40201Y07612D01*
X40267Y07546D01*
X40347Y07499D01*
X40437Y07475D01*
X40884Y07475D01*
X40884Y08204D01*
X40130Y08204D01*
X40130Y08007D01*
X39983Y08154D01*
X38785Y08154D01*
X38609Y07978D01*
X38609Y07330D01*
X38785Y07154D01*
X38984Y07154D01*
X38984Y06988D01*
X39434Y06538D01*
X39668Y06304D01*
X42968Y06304D01*
X42618Y05954D01*
X40068Y05954D01*
X38868Y04754D01*
X36018Y04754D01*
X35618Y04354D01*
X33718Y04354D01*
X33318Y03954D01*
X31368Y03954D01*
X30968Y03554D01*
X29068Y03554D01*
X28668Y03154D01*
X26718Y03154D01*
X26238Y02674D01*
X25084Y02674D01*
X25084Y14716D01*
X25175Y14650D01*
X25330Y14571D01*
X25495Y14517D01*
X25654Y14492D01*
X25654Y15494D01*
X25854Y15494D01*
X25854Y15694D01*
X25654Y15694D01*
X25654Y16696D01*
X25495Y16671D01*
X25330Y16617D01*
X25175Y16538D01*
X25084Y16472D01*
X25084Y17319D01*
X25159Y17244D01*
X25545Y17084D01*
X25963Y17084D01*
X26349Y17244D01*
X26644Y17539D01*
X26804Y17925D01*
X26804Y18343D01*
X26726Y18531D01*
X28950Y20754D01*
X29125Y20754D01*
X29034Y20533D01*
X29034Y20275D01*
X29133Y20036D01*
X29134Y20035D01*
X29063Y20204D02*
X28400Y20204D01*
X28598Y20403D02*
X29034Y20403D01*
X29062Y20601D02*
X28797Y20601D01*
X28784Y21154D02*
X35434Y21154D01*
X35934Y20654D01*
X35934Y20104D01*
X37859Y19489D02*
X37924Y19554D01*
X39084Y20354D02*
X39084Y20854D01*
X40784Y22554D01*
X41434Y22554D01*
X44184Y25304D01*
X44184Y27004D01*
X46284Y29104D01*
X52034Y29104D01*
X52034Y28604D02*
X46384Y28604D01*
X44584Y26804D01*
X44584Y25104D01*
X42584Y26159D02*
X41509Y26159D01*
X41509Y25960D02*
X42475Y25960D01*
X42276Y25762D02*
X41509Y25762D01*
X41509Y25563D02*
X42078Y25563D01*
X41879Y25365D02*
X41509Y25365D01*
X41509Y25166D02*
X41681Y25166D01*
X41405Y26357D02*
X42584Y26357D01*
X42584Y26556D02*
X41487Y26556D01*
X41563Y26754D02*
X42584Y26754D01*
X42584Y26953D02*
X41563Y26953D01*
X41563Y27151D02*
X42584Y27151D01*
X39834Y24571D02*
X39225Y24571D01*
X39284Y24769D02*
X39544Y24769D01*
X39459Y24968D02*
X39284Y24968D01*
X39876Y24372D02*
X34585Y24372D01*
X34667Y24174D02*
X39995Y24174D01*
X37940Y23975D02*
X34684Y23975D01*
X34644Y23777D02*
X37741Y23777D01*
X37543Y23578D02*
X34528Y23578D01*
X34364Y24571D02*
X35043Y24571D01*
X34984Y24769D02*
X34749Y24769D01*
X34809Y24968D02*
X34984Y24968D01*
X33704Y24571D02*
X31814Y24571D01*
X31719Y24769D02*
X31599Y24769D01*
X31659Y24830D02*
X31659Y25004D01*
X31659Y24830D01*
X31659Y24968D02*
X31659Y24968D01*
X31659Y25004D02*
X31659Y25004D01*
X31154Y24571D02*
X29095Y24571D01*
X29184Y24769D02*
X29384Y24769D01*
X29384Y24968D02*
X29184Y24968D01*
X29184Y25166D02*
X29384Y25166D01*
X29384Y25554D02*
X29184Y25554D01*
X29184Y26275D01*
X29334Y26275D01*
X29334Y27104D01*
X29534Y27104D01*
X29534Y26308D01*
X29384Y26308D01*
X29384Y25554D01*
X29384Y25563D02*
X29184Y25563D01*
X29184Y25762D02*
X29384Y25762D01*
X29384Y25960D02*
X29184Y25960D01*
X29184Y26159D02*
X29384Y26159D01*
X29334Y26357D02*
X29534Y26357D01*
X29534Y26556D02*
X29334Y26556D01*
X29334Y26754D02*
X29534Y26754D01*
X29534Y26953D02*
X29334Y26953D01*
X31484Y26357D02*
X34984Y26357D01*
X34984Y26159D02*
X34728Y26159D01*
X34809Y25960D02*
X34984Y25960D01*
X35062Y26556D02*
X34765Y26556D01*
X34888Y27747D02*
X35067Y27747D01*
X34984Y27945D02*
X34888Y27945D01*
X34888Y28144D02*
X34984Y28144D01*
X34984Y28342D02*
X34888Y28342D01*
X33303Y26556D02*
X31965Y26556D01*
X31740Y26159D02*
X31578Y26159D01*
X31659Y26078D02*
X31659Y25904D01*
X31659Y25904D01*
X31659Y26078D01*
X31659Y25960D02*
X31659Y25960D01*
X33128Y26159D02*
X33340Y26159D01*
X33259Y25960D02*
X33209Y25960D01*
X33209Y25762D02*
X33259Y25762D01*
X33259Y25563D02*
X33209Y25563D01*
X33209Y25365D02*
X33259Y25365D01*
X33259Y25166D02*
X33209Y25166D01*
X33209Y24968D02*
X33259Y24968D01*
X33319Y24769D02*
X33149Y24769D01*
X30933Y24372D02*
X30135Y24372D01*
X30276Y24174D02*
X30851Y24174D01*
X30834Y23975D02*
X30334Y23975D01*
X30334Y23777D02*
X30874Y23777D01*
X30990Y23578D02*
X30253Y23578D01*
X30169Y24769D02*
X30061Y24769D01*
X26884Y24354D02*
X26884Y27204D01*
X25794Y28294D01*
X25754Y28294D01*
X25754Y25754D02*
X25784Y25754D01*
X25784Y24854D01*
X28284Y22354D01*
X38984Y22354D01*
X37859Y20759D02*
X37854Y20754D01*
X41384Y20403D02*
X42080Y20403D01*
X42080Y20601D02*
X41450Y20601D01*
X41384Y20204D02*
X42141Y20204D01*
X42171Y20006D02*
X41384Y20006D01*
X41384Y19807D02*
X42134Y19807D01*
X42134Y19609D02*
X41384Y19609D01*
X41444Y19410D02*
X42134Y19410D01*
X42134Y19212D02*
X41642Y19212D01*
X41841Y19013D02*
X42134Y19013D01*
X42039Y18815D02*
X42250Y18815D01*
X44077Y20204D02*
X44135Y20204D01*
X44138Y20998D02*
X45634Y20998D01*
X45634Y21197D02*
X44128Y21197D01*
X44004Y21395D02*
X45634Y21395D01*
X47634Y21970D02*
X47634Y22920D01*
X47400Y23154D01*
X46984Y23570D01*
X46984Y25638D01*
X47350Y26004D01*
X47555Y26004D01*
X47555Y25704D01*
X48284Y25704D01*
X48284Y25504D01*
X47555Y25504D01*
X47555Y25057D01*
X47579Y24967D01*
X47626Y24887D01*
X47692Y24821D01*
X47721Y24804D01*
X47692Y24787D01*
X47626Y24721D01*
X47579Y24641D01*
X47555Y24551D01*
X47555Y24104D01*
X48284Y24104D01*
X48284Y24858D01*
X48284Y25504D01*
X48484Y25504D01*
X48484Y24104D01*
X48284Y24104D01*
X48284Y23904D01*
X48484Y23904D01*
X48484Y23150D01*
X48784Y23150D01*
X48784Y23120D01*
X47634Y21970D01*
X47634Y21990D02*
X47655Y21990D01*
X47634Y22189D02*
X47853Y22189D01*
X48052Y22387D02*
X47634Y22387D01*
X47634Y22586D02*
X48250Y22586D01*
X48449Y22784D02*
X47634Y22784D01*
X47571Y22983D02*
X48647Y22983D01*
X48484Y23181D02*
X48284Y23181D01*
X48284Y23150D02*
X48284Y23904D01*
X47555Y23904D01*
X47555Y23457D01*
X47579Y23367D01*
X47626Y23287D01*
X47692Y23221D01*
X47772Y23174D01*
X47862Y23150D01*
X48284Y23150D01*
X48284Y23380D02*
X48484Y23380D01*
X48484Y23578D02*
X48284Y23578D01*
X48284Y23777D02*
X48484Y23777D01*
X48284Y23975D02*
X46984Y23975D01*
X46984Y23777D02*
X47555Y23777D01*
X47555Y23578D02*
X46984Y23578D01*
X47174Y23380D02*
X47576Y23380D01*
X47760Y23181D02*
X47372Y23181D01*
X47555Y24174D02*
X46984Y24174D01*
X46984Y24372D02*
X47555Y24372D01*
X47560Y24571D02*
X46984Y24571D01*
X46984Y24769D02*
X47674Y24769D01*
X47579Y24968D02*
X46984Y24968D01*
X46984Y25166D02*
X47555Y25166D01*
X47555Y25365D02*
X46984Y25365D01*
X46984Y25563D02*
X48284Y25563D01*
X48284Y25365D02*
X48484Y25365D01*
X48484Y25166D02*
X48284Y25166D01*
X48284Y24968D02*
X48484Y24968D01*
X48484Y24769D02*
X48284Y24769D01*
X48284Y24571D02*
X48484Y24571D01*
X48484Y24372D02*
X48284Y24372D01*
X48284Y24174D02*
X48484Y24174D01*
X47555Y25762D02*
X47108Y25762D01*
X47306Y25960D02*
X47555Y25960D01*
X49650Y30004D02*
X51150Y31504D01*
X51334Y31688D01*
X51334Y30315D01*
X51309Y30290D01*
X51309Y30004D01*
X49650Y30004D01*
X49775Y30129D02*
X51309Y30129D01*
X51334Y30327D02*
X49973Y30327D01*
X50172Y30526D02*
X51334Y30526D01*
X51334Y30724D02*
X50370Y30724D01*
X50569Y30923D02*
X51334Y30923D01*
X51334Y31121D02*
X50767Y31121D01*
X50966Y31320D02*
X51334Y31320D01*
X51334Y31518D02*
X51164Y31518D01*
X49184Y33404D02*
X49884Y34104D01*
X49984Y34104D01*
X50084Y34004D01*
X50984Y34004D01*
X50759Y34695D02*
X51334Y34695D01*
X51329Y34893D02*
X50594Y34893D01*
X50932Y35290D02*
X44749Y35290D01*
X44859Y35092D02*
X51131Y35092D01*
X50734Y35489D02*
X41755Y35489D01*
X41953Y35687D02*
X50535Y35687D01*
X50337Y35886D02*
X42152Y35886D01*
X42350Y36084D02*
X50138Y36084D01*
X49940Y36283D02*
X42549Y36283D01*
X42747Y36481D02*
X49741Y36481D01*
X49543Y36680D02*
X42946Y36680D01*
X43627Y36878D02*
X49344Y36878D01*
X49146Y37077D02*
X43773Y37077D01*
X43834Y37275D02*
X48947Y37275D01*
X47399Y37474D02*
X43834Y37474D01*
X43756Y37672D02*
X47200Y37672D01*
X47002Y37871D02*
X43587Y37871D01*
X43684Y38375D02*
X43684Y39104D01*
X42930Y39104D01*
X42930Y38682D01*
X42954Y38592D01*
X43001Y38512D01*
X43067Y38446D01*
X43147Y38399D01*
X43237Y38375D01*
X43684Y38375D01*
X43684Y38466D02*
X43884Y38466D01*
X43884Y38375D02*
X44331Y38375D01*
X44421Y38399D01*
X44501Y38446D01*
X44559Y38503D01*
X44617Y38446D01*
X44697Y38399D01*
X44787Y38375D01*
X45234Y38375D01*
X45234Y39104D01*
X43884Y39104D01*
X43884Y38375D01*
X43884Y38665D02*
X43684Y38665D01*
X43684Y38863D02*
X43884Y38863D01*
X43884Y39062D02*
X43684Y39062D01*
X43684Y39260D02*
X42534Y39260D01*
X42534Y39459D02*
X42930Y39459D01*
X42930Y39657D02*
X42534Y39657D01*
X42534Y39856D02*
X42977Y39856D01*
X43135Y40054D02*
X42620Y40054D01*
X42819Y40253D02*
X42984Y40253D01*
X42340Y41047D02*
X41834Y41047D01*
X41834Y41245D02*
X42539Y41245D01*
X43024Y41444D02*
X41834Y41444D01*
X41834Y41642D02*
X44684Y41642D01*
X44687Y41841D02*
X41834Y41841D01*
X41834Y42039D02*
X44769Y42039D01*
X44948Y42238D02*
X42067Y42238D01*
X42084Y42436D02*
X46000Y42436D01*
X46134Y42635D02*
X42084Y42635D01*
X42084Y42833D02*
X46134Y42833D01*
X46134Y43032D02*
X42084Y43032D01*
X42084Y43230D02*
X46134Y43230D01*
X46159Y43429D02*
X42084Y43429D01*
X44544Y41444D02*
X44574Y41444D01*
X45720Y42238D02*
X45802Y42238D01*
X46934Y42804D02*
X46934Y42854D01*
X49334Y42004D02*
X50134Y42804D01*
X50934Y42635D02*
X50934Y42635D01*
X54121Y45016D02*
X54147Y45016D01*
X55721Y45016D02*
X55747Y45016D01*
X57321Y45016D02*
X57347Y45016D01*
X57334Y43854D02*
X57334Y43805D01*
X57334Y43854D01*
X57334Y43854D01*
X57334Y43825D02*
X57334Y43825D01*
X57309Y43429D02*
X57359Y43429D01*
X57334Y43403D02*
X57334Y42570D01*
X57334Y42570D01*
X57334Y43403D01*
X57334Y43230D02*
X57334Y43230D01*
X57334Y43032D02*
X57334Y43032D01*
X57334Y42833D02*
X57334Y42833D01*
X57334Y42635D02*
X57334Y42635D01*
X56534Y42804D02*
X55734Y42004D01*
X58934Y42004D02*
X58934Y38104D01*
X59284Y37754D01*
X59284Y32154D01*
X58734Y31604D01*
X58084Y31604D01*
X57734Y31254D01*
X57734Y30804D01*
X58934Y30104D02*
X59384Y30104D01*
X60684Y31404D01*
X62034Y31404D01*
X62584Y31954D01*
X62584Y34954D01*
X60534Y37004D01*
X60534Y42004D01*
X59734Y42804D02*
X58934Y42004D01*
X58934Y42635D02*
X58934Y42635D01*
X62134Y42104D02*
X62834Y42804D01*
X61334Y39204D02*
X61384Y39154D01*
X61384Y38304D01*
X60134Y38268D02*
X59336Y38268D01*
X59334Y38270D02*
X59334Y38375D01*
X59634Y38375D01*
X59634Y39104D01*
X59834Y39104D01*
X59834Y38375D01*
X60134Y38375D01*
X60134Y36838D01*
X61884Y35088D01*
X61884Y34404D01*
X61684Y34404D01*
X61684Y35133D01*
X61237Y35133D01*
X61147Y35109D01*
X61067Y35062D01*
X61001Y34996D01*
X60954Y34916D01*
X60934Y34841D01*
X60914Y34916D01*
X60867Y34996D01*
X60801Y35062D01*
X60721Y35109D01*
X60631Y35133D01*
X60184Y35133D01*
X60184Y34404D01*
X59984Y34404D01*
X59984Y35133D01*
X59684Y35133D01*
X59684Y37920D01*
X59334Y38270D01*
X59535Y38069D02*
X60134Y38069D01*
X60134Y37871D02*
X59684Y37871D01*
X59684Y37672D02*
X60134Y37672D01*
X60134Y37474D02*
X59684Y37474D01*
X59684Y37275D02*
X60134Y37275D01*
X60134Y37077D02*
X59684Y37077D01*
X59684Y36878D02*
X60134Y36878D01*
X60293Y36680D02*
X59684Y36680D01*
X59684Y36481D02*
X60491Y36481D01*
X60690Y36283D02*
X59684Y36283D01*
X59684Y36084D02*
X60888Y36084D01*
X61087Y35886D02*
X59684Y35886D01*
X59684Y35687D02*
X61285Y35687D01*
X61484Y35489D02*
X59684Y35489D01*
X59684Y35290D02*
X61682Y35290D01*
X61684Y35092D02*
X61881Y35092D01*
X61884Y34893D02*
X61684Y34893D01*
X61684Y34695D02*
X61884Y34695D01*
X61884Y34496D02*
X61684Y34496D01*
X61684Y34404D02*
X61684Y34204D01*
X60938Y34204D01*
X60184Y34204D01*
X60184Y34404D01*
X61684Y34404D01*
X61684Y34298D02*
X60184Y34298D01*
X60184Y34496D02*
X59984Y34496D01*
X59984Y34695D02*
X60184Y34695D01*
X60184Y34893D02*
X59984Y34893D01*
X59984Y35092D02*
X60184Y35092D01*
X60751Y35092D02*
X61117Y35092D01*
X60948Y34893D02*
X60920Y34893D01*
X57784Y35092D02*
X57584Y35092D01*
X57584Y35290D02*
X57784Y35290D01*
X57784Y35489D02*
X57584Y35489D01*
X56896Y35489D02*
X56772Y35489D01*
X54057Y34496D02*
X53734Y34496D01*
X53734Y34298D02*
X53902Y34298D01*
X53834Y34099D02*
X53734Y34099D01*
X53734Y33901D02*
X53834Y33901D01*
X53906Y33702D02*
X53734Y33702D01*
X53734Y33504D02*
X54065Y33504D01*
X53984Y32804D02*
X53984Y32504D01*
X54534Y31954D01*
X54534Y31554D01*
X54734Y31354D01*
X54734Y30804D01*
X58934Y28104D02*
X58984Y28154D01*
X58934Y25104D02*
X61084Y25104D01*
X62084Y24104D01*
X60484Y20403D02*
X60082Y20403D01*
X60060Y20204D02*
X60484Y20204D01*
X60484Y20006D02*
X60180Y20006D01*
X60188Y19807D02*
X60484Y19807D01*
X60484Y19609D02*
X60188Y19609D01*
X59434Y19013D02*
X59234Y19013D01*
X59234Y18815D02*
X59434Y18815D01*
X55884Y18815D02*
X55684Y18815D01*
X55684Y18625D02*
X55684Y19354D01*
X54384Y19354D01*
X54384Y18625D01*
X54831Y18625D01*
X54921Y18649D01*
X55001Y18696D01*
X55034Y18728D01*
X55067Y18696D01*
X55147Y18649D01*
X55237Y18625D01*
X55684Y18625D01*
X55684Y19013D02*
X55884Y19013D01*
X55884Y19212D02*
X55684Y19212D01*
X55684Y19410D02*
X54384Y19410D01*
X54384Y19212D02*
X54184Y19212D01*
X54184Y19013D02*
X54384Y19013D01*
X54384Y18815D02*
X54184Y18815D01*
X53450Y18219D02*
X53418Y18219D01*
X52184Y18354D02*
X52085Y18354D01*
X51909Y18178D01*
X51909Y18116D01*
X51889Y18191D01*
X51842Y18271D01*
X51776Y18337D01*
X51696Y18384D01*
X51606Y18408D01*
X51184Y18408D01*
X51184Y17654D01*
X50984Y17654D01*
X50984Y18408D01*
X50562Y18408D01*
X50472Y18384D01*
X50392Y18337D01*
X50384Y18330D01*
X50384Y21188D01*
X50484Y21288D01*
X50484Y20455D01*
X50660Y20279D01*
X51908Y20279D01*
X52034Y20405D01*
X52160Y20279D01*
X53408Y20279D01*
X53534Y20405D01*
X53660Y20279D01*
X53722Y20279D01*
X53647Y20259D01*
X53567Y20212D01*
X53501Y20146D01*
X53497Y20140D01*
X53408Y20229D01*
X52160Y20229D01*
X52034Y20103D01*
X51908Y20229D01*
X50660Y20229D01*
X50484Y20053D01*
X50484Y18855D01*
X50660Y18679D01*
X51908Y18679D01*
X52034Y18805D01*
X52160Y18679D01*
X52184Y18679D01*
X52184Y18354D01*
X52184Y18418D02*
X50384Y18418D01*
X50384Y18616D02*
X52184Y18616D01*
X51950Y18219D02*
X51872Y18219D01*
X51184Y18219D02*
X50984Y18219D01*
X50984Y18021D02*
X51184Y18021D01*
X51184Y17822D02*
X50984Y17822D01*
X50984Y17425D02*
X51184Y17425D01*
X51184Y17227D02*
X50984Y17227D01*
X50984Y17028D02*
X51184Y17028D01*
X51184Y16830D02*
X50984Y16830D01*
X51835Y16830D02*
X52009Y16830D01*
X53359Y16830D02*
X53509Y16830D01*
X54859Y16830D02*
X55033Y16830D01*
X54818Y16035D02*
X55459Y16035D01*
X55459Y15837D02*
X55017Y15837D01*
X55215Y15638D02*
X55459Y15638D01*
X55459Y15440D02*
X55414Y15440D01*
X54481Y15241D02*
X51684Y15241D01*
X50884Y15241D02*
X49412Y15241D01*
X49234Y15440D02*
X50582Y15440D01*
X50384Y15638D02*
X49234Y15638D01*
X49234Y15837D02*
X50185Y15837D01*
X49987Y16035D02*
X49234Y16035D01*
X49234Y16234D02*
X49788Y16234D01*
X49590Y16433D02*
X49234Y16433D01*
X49234Y16631D02*
X49584Y16631D01*
X49584Y16830D02*
X49234Y16830D01*
X49234Y17028D02*
X49584Y17028D01*
X49584Y17227D02*
X49234Y17227D01*
X49234Y17425D02*
X49584Y17425D01*
X49584Y17624D02*
X49234Y17624D01*
X49234Y17822D02*
X49584Y17822D01*
X49584Y18021D02*
X49234Y18021D01*
X49234Y18219D02*
X49584Y18219D01*
X49584Y18418D02*
X49234Y18418D01*
X49234Y18616D02*
X49584Y18616D01*
X49584Y18815D02*
X49234Y18815D01*
X49234Y19013D02*
X49584Y19013D01*
X49584Y19212D02*
X49234Y19212D01*
X49234Y19410D02*
X49584Y19410D01*
X49584Y19609D02*
X49234Y19609D01*
X49234Y19807D02*
X49584Y19807D01*
X49584Y20006D02*
X49234Y20006D01*
X49234Y20204D02*
X49584Y20204D01*
X49584Y20403D02*
X49234Y20403D01*
X49234Y20601D02*
X49584Y20601D01*
X49584Y20800D02*
X49395Y20800D01*
X50384Y20800D02*
X50484Y20800D01*
X50484Y20998D02*
X50384Y20998D01*
X50392Y21197D02*
X50484Y21197D01*
X50484Y20601D02*
X50384Y20601D01*
X50384Y20403D02*
X50536Y20403D01*
X50635Y20204D02*
X50384Y20204D01*
X50384Y20006D02*
X50484Y20006D01*
X50484Y19807D02*
X50384Y19807D01*
X50384Y19609D02*
X50484Y19609D01*
X50484Y19410D02*
X50384Y19410D01*
X50384Y19212D02*
X50484Y19212D01*
X50484Y19013D02*
X50384Y19013D01*
X50384Y18815D02*
X50524Y18815D01*
X51933Y20204D02*
X52135Y20204D01*
X52036Y20403D02*
X52032Y20403D01*
X53433Y20204D02*
X53558Y20204D01*
X53532Y20403D02*
X53536Y20403D01*
X54918Y18219D02*
X54995Y18219D01*
X54237Y14844D02*
X54231Y14844D01*
X53921Y14844D02*
X53896Y14844D01*
X53896Y14646D02*
X53921Y14646D01*
X53921Y14447D02*
X53896Y14447D01*
X53896Y14249D02*
X53921Y14249D01*
X53921Y14050D02*
X53896Y14050D01*
X53896Y13852D02*
X53921Y13852D01*
X53884Y13779D02*
X53909Y13754D01*
X53896Y13653D02*
X53921Y13653D01*
X53921Y13455D02*
X53896Y13455D01*
X53896Y13256D02*
X53921Y13256D01*
X53921Y13058D02*
X53896Y13058D01*
X53896Y12859D02*
X53921Y12859D01*
X53921Y12661D02*
X53896Y12661D01*
X54222Y12661D02*
X54246Y12661D01*
X55577Y12065D02*
X69604Y12065D01*
X69604Y11867D02*
X55787Y11867D01*
X55869Y11668D02*
X69604Y11668D01*
X69604Y11470D02*
X63746Y11470D01*
X63944Y11271D02*
X69604Y11271D01*
X69604Y11073D02*
X64143Y11073D01*
X64284Y10875D02*
X69604Y10875D01*
X69604Y10676D02*
X64284Y10676D01*
X64284Y10478D02*
X69604Y10478D01*
X69604Y10279D02*
X64284Y10279D01*
X64284Y10081D02*
X69604Y10081D01*
X69604Y09882D02*
X64284Y09882D01*
X64284Y09684D02*
X69604Y09684D01*
X69604Y09485D02*
X64284Y09485D01*
X64284Y09287D02*
X69604Y09287D01*
X69604Y09088D02*
X64284Y09088D01*
X64284Y08890D02*
X69604Y08890D01*
X69604Y08691D02*
X64284Y08691D01*
X64284Y08493D02*
X69604Y08493D01*
X69604Y08294D02*
X64284Y08294D01*
X64284Y08095D02*
X69604Y08095D01*
X69604Y07897D02*
X64284Y07897D01*
X64156Y07698D02*
X69604Y07698D01*
X69604Y07500D02*
X63958Y07500D01*
X63759Y07301D02*
X69604Y07301D01*
X69604Y07103D02*
X63282Y07103D01*
X61686Y07103D02*
X61584Y07103D01*
X61584Y07301D02*
X61684Y07301D01*
X61684Y07500D02*
X61584Y07500D01*
X61409Y06904D02*
X69604Y06904D01*
X69604Y06706D02*
X60159Y06706D01*
X60159Y06507D02*
X69604Y06507D01*
X69604Y06309D02*
X68434Y06309D01*
X68704Y06185D02*
X68141Y06443D01*
X67527Y06355D01*
X67059Y05949D01*
X66884Y05354D01*
X67059Y04759D01*
X67527Y04353D01*
X68141Y04265D01*
X68704Y04523D01*
X69039Y05044D01*
X69039Y05664D01*
X68704Y06185D01*
X68752Y06110D02*
X69604Y06110D01*
X69604Y05912D02*
X68880Y05912D01*
X69008Y05713D02*
X69604Y05713D01*
X69604Y05515D02*
X69039Y05515D01*
X69039Y05317D02*
X69604Y05317D01*
X69604Y05118D02*
X69039Y05118D01*
X68959Y04920D02*
X69604Y04920D01*
X69604Y04721D02*
X68832Y04721D01*
X68704Y04523D02*
X69604Y04523D01*
X69604Y04324D02*
X68269Y04324D01*
X67732Y04324D02*
X61980Y04324D01*
X62178Y04126D02*
X69604Y04126D01*
X69604Y03927D02*
X62377Y03927D01*
X62575Y03728D02*
X69604Y03728D01*
X69604Y03530D02*
X64674Y03530D01*
X64872Y03331D02*
X69604Y03331D01*
X69604Y03133D02*
X65071Y03133D01*
X64934Y02704D02*
X66884Y02704D01*
X67834Y01754D01*
X68804Y01754D01*
X68934Y01624D01*
X68164Y02339D02*
X67815Y02339D01*
X67616Y02538D02*
X68396Y02538D01*
X67418Y02736D02*
X69604Y02736D01*
X69604Y02934D02*
X67219Y02934D01*
X66314Y01704D02*
X66394Y01624D01*
X66314Y01704D02*
X65334Y01704D01*
X64284Y02754D01*
X62384Y02754D01*
X59109Y06029D01*
X59109Y07954D01*
X58459Y07954D02*
X58459Y06029D01*
X62784Y01704D01*
X63774Y01704D01*
X63854Y01624D01*
X64934Y02704D02*
X64484Y03154D01*
X62584Y03154D01*
X59759Y05979D01*
X59759Y07954D01*
X60396Y07967D02*
X60396Y09058D01*
X60137Y09058D01*
X60047Y09034D01*
X59996Y09004D01*
X55813Y09004D01*
X55884Y09175D01*
X55884Y09433D01*
X55813Y09604D01*
X61262Y09604D01*
X61584Y09926D01*
X62212Y10554D01*
X63106Y10554D01*
X63184Y10476D01*
X63184Y10072D01*
X63121Y10109D01*
X63031Y10133D01*
X62584Y10133D01*
X62584Y09404D01*
X62384Y09404D01*
X62384Y10133D01*
X61937Y10133D01*
X61847Y10109D01*
X61767Y10062D01*
X61701Y09996D01*
X61654Y09916D01*
X61630Y09826D01*
X61630Y09404D01*
X62384Y09404D01*
X62384Y09204D01*
X61630Y09204D01*
X61630Y08782D01*
X61654Y08692D01*
X61701Y08612D01*
X61767Y08546D01*
X61847Y08499D01*
X61922Y08479D01*
X61860Y08479D01*
X61785Y08404D01*
X61584Y08404D01*
X61584Y08828D01*
X61408Y09004D01*
X60822Y09004D01*
X60771Y09034D01*
X60681Y09058D01*
X60421Y09058D01*
X60421Y07967D01*
X60396Y07967D01*
X60396Y07897D02*
X60421Y07897D01*
X60421Y08095D02*
X60396Y08095D01*
X60396Y08294D02*
X60421Y08294D01*
X60421Y08493D02*
X60396Y08493D01*
X60396Y08691D02*
X60421Y08691D01*
X60421Y08890D02*
X60396Y08890D01*
X61341Y09684D02*
X61630Y09684D01*
X61645Y09882D02*
X61540Y09882D01*
X61738Y10081D02*
X61798Y10081D01*
X61937Y10279D02*
X63184Y10279D01*
X63170Y10081D02*
X63184Y10081D01*
X63183Y10478D02*
X62135Y10478D01*
X62384Y10081D02*
X62584Y10081D01*
X62584Y09882D02*
X62384Y09882D01*
X62384Y09684D02*
X62584Y09684D01*
X62584Y09485D02*
X62384Y09485D01*
X62384Y09287D02*
X55884Y09287D01*
X55863Y09485D02*
X61630Y09485D01*
X61630Y09088D02*
X55848Y09088D01*
X55234Y09304D02*
X55209Y09279D01*
X55209Y07954D01*
X55209Y04729D01*
X52134Y01654D01*
X51184Y01654D01*
X51154Y01624D01*
X50634Y02704D02*
X49634Y01704D01*
X48694Y01704D01*
X48614Y01624D01*
X49384Y02339D02*
X49703Y02339D01*
X49504Y02219D02*
X49527Y02163D01*
X50468Y03104D01*
X52418Y03104D01*
X54159Y04845D01*
X54159Y06904D01*
X53560Y06904D01*
X53384Y07080D01*
X53384Y08828D01*
X53560Y09004D01*
X54655Y09004D01*
X54584Y09175D01*
X54584Y09433D01*
X54655Y09604D01*
X43359Y09604D01*
X43359Y09004D01*
X48996Y09004D01*
X49047Y09034D01*
X49137Y09058D01*
X49396Y09058D01*
X49396Y07967D01*
X49421Y07967D01*
X49421Y09058D01*
X49681Y09058D01*
X49734Y09044D01*
X49787Y09058D01*
X50046Y09058D01*
X50046Y07967D01*
X50071Y07967D01*
X50071Y09058D01*
X50331Y09058D01*
X50421Y09034D01*
X50501Y08987D01*
X50567Y08921D01*
X50614Y08841D01*
X50638Y08751D01*
X50638Y07966D01*
X50072Y07966D01*
X50072Y07941D01*
X50638Y07941D01*
X50638Y07157D01*
X50614Y07067D01*
X50567Y06987D01*
X50501Y06921D01*
X50421Y06874D01*
X50331Y06850D01*
X50071Y06850D01*
X50071Y07941D01*
X50046Y07941D01*
X50046Y06850D01*
X49787Y06850D01*
X49734Y06864D01*
X49681Y06850D01*
X49421Y06850D01*
X49421Y07941D01*
X49396Y07941D01*
X49396Y06850D01*
X49159Y06850D01*
X49159Y06813D01*
X44465Y02120D01*
X44584Y01833D01*
X44584Y01415D01*
X44424Y01029D01*
X44349Y00954D01*
X45196Y00954D01*
X45130Y01045D01*
X45051Y01200D01*
X44997Y01365D01*
X44972Y01524D01*
X45974Y01524D01*
X45974Y01724D01*
X45974Y02726D01*
X45815Y02701D01*
X45650Y02647D01*
X45495Y02568D01*
X45355Y02466D01*
X45232Y02343D01*
X45130Y02203D01*
X45051Y02048D01*
X44997Y01883D01*
X44972Y01724D01*
X45974Y01724D01*
X46174Y01724D01*
X46174Y02726D01*
X46333Y02701D01*
X46498Y02647D01*
X46653Y02568D01*
X46793Y02466D01*
X46916Y02343D01*
X47018Y02203D01*
X47097Y02048D01*
X47151Y01883D01*
X47176Y01724D01*
X46174Y01724D01*
X46174Y01524D01*
X47176Y01524D01*
X47151Y01365D01*
X47097Y01200D01*
X47018Y01045D01*
X46952Y00954D01*
X47799Y00954D01*
X47724Y01029D01*
X47564Y01415D01*
X47564Y01833D01*
X47724Y02219D01*
X48019Y02514D01*
X48405Y02674D01*
X48823Y02674D01*
X49209Y02514D01*
X49504Y02219D01*
X49152Y02538D02*
X49902Y02538D01*
X50100Y02736D02*
X45082Y02736D01*
X45280Y02934D02*
X50299Y02934D01*
X50634Y02704D02*
X52584Y02704D01*
X54559Y04679D01*
X54559Y07954D01*
X54620Y09088D02*
X43359Y09088D01*
X43359Y09287D02*
X54584Y09287D01*
X54605Y09485D02*
X43359Y09485D01*
X42459Y09485D02*
X41784Y09485D01*
X41766Y09287D02*
X42459Y09287D01*
X42459Y09088D02*
X41657Y09088D01*
X41821Y08890D02*
X42445Y08890D01*
X42384Y08691D02*
X41838Y08691D01*
X41838Y08493D02*
X42384Y08493D01*
X42384Y08294D02*
X41084Y08294D01*
X41084Y08204D02*
X41838Y08204D01*
X41838Y07782D01*
X41814Y07692D01*
X41767Y07612D01*
X41701Y07546D01*
X41621Y07499D01*
X41531Y07475D01*
X41084Y07475D01*
X41084Y08204D01*
X41084Y08095D02*
X40884Y08095D01*
X40884Y07897D02*
X41084Y07897D01*
X41084Y07698D02*
X40884Y07698D01*
X40884Y07500D02*
X41084Y07500D01*
X41622Y07500D02*
X42384Y07500D01*
X42384Y07698D02*
X41816Y07698D01*
X41838Y07897D02*
X42384Y07897D01*
X42384Y08095D02*
X41838Y08095D01*
X42384Y07301D02*
X40131Y07301D01*
X40159Y07500D02*
X40346Y07500D01*
X40130Y08095D02*
X40042Y08095D01*
X40022Y08493D02*
X40130Y08493D01*
X40884Y08294D02*
X38390Y08294D01*
X38588Y08493D02*
X38746Y08493D01*
X38726Y08095D02*
X38191Y08095D01*
X38013Y07897D02*
X38609Y07897D01*
X38609Y07698D02*
X38013Y07698D01*
X38013Y07654D02*
X37184Y07654D01*
X37184Y07654D01*
X37184Y07654D01*
X37184Y07100D01*
X37706Y07100D01*
X37796Y07124D01*
X37876Y07171D01*
X37942Y07237D01*
X37989Y07317D01*
X38013Y07407D01*
X38013Y07654D01*
X38013Y07500D02*
X38609Y07500D01*
X38637Y07301D02*
X37980Y07301D01*
X37717Y07103D02*
X38984Y07103D01*
X39068Y06904D02*
X25084Y06904D01*
X25084Y06706D02*
X39266Y06706D01*
X39465Y06507D02*
X25084Y06507D01*
X25084Y06309D02*
X26474Y06309D01*
X26527Y06355D02*
X26059Y05949D01*
X25884Y05354D01*
X26059Y04759D01*
X26527Y04353D01*
X27141Y04265D01*
X27704Y04523D01*
X28039Y05044D01*
X28039Y05664D01*
X27704Y06185D01*
X27141Y06443D01*
X26527Y06355D01*
X26245Y06110D02*
X25084Y06110D01*
X25084Y05912D02*
X26048Y05912D01*
X25990Y05713D02*
X25084Y05713D01*
X25084Y05515D02*
X25931Y05515D01*
X25895Y05317D02*
X25084Y05317D01*
X25084Y05118D02*
X25953Y05118D01*
X26012Y04920D02*
X25084Y04920D01*
X25084Y04721D02*
X26103Y04721D01*
X26332Y04523D02*
X25084Y04523D01*
X25084Y04324D02*
X26732Y04324D01*
X27269Y04324D02*
X33688Y04324D01*
X33490Y04126D02*
X25084Y04126D01*
X25084Y03927D02*
X31341Y03927D01*
X31143Y03728D02*
X25084Y03728D01*
X25084Y03530D02*
X29044Y03530D01*
X28846Y03331D02*
X25084Y03331D01*
X25084Y03133D02*
X26697Y03133D01*
X26499Y02934D02*
X25084Y02934D01*
X25084Y02736D02*
X26300Y02736D01*
X26884Y02754D02*
X25754Y01624D01*
X26884Y02754D02*
X28834Y02754D01*
X29234Y03154D01*
X31134Y03154D01*
X31534Y03554D01*
X33484Y03554D01*
X33884Y03954D01*
X35784Y03954D01*
X36184Y04354D01*
X39034Y04354D01*
X40234Y05554D01*
X42784Y05554D01*
X44209Y06979D01*
X44209Y07954D01*
X43559Y07954D02*
X43559Y06979D01*
X43284Y06704D01*
X39834Y06704D01*
X39384Y07154D01*
X39384Y07654D01*
X38284Y08754D02*
X38284Y09304D01*
X37655Y09485D02*
X25084Y09485D01*
X25084Y09684D02*
X36527Y09684D01*
X36328Y09882D02*
X25084Y09882D01*
X25084Y10081D02*
X36130Y10081D01*
X35931Y10279D02*
X25084Y10279D01*
X25084Y10478D02*
X35733Y10478D01*
X35534Y10676D02*
X25084Y10676D01*
X25084Y10875D02*
X35336Y10875D01*
X35137Y11073D02*
X25084Y11073D01*
X25084Y11271D02*
X34939Y11271D01*
X34740Y11470D02*
X25084Y11470D01*
X25084Y11668D02*
X34542Y11668D01*
X34343Y11867D02*
X25084Y11867D01*
X25084Y12065D02*
X34145Y12065D01*
X33946Y12264D02*
X25084Y12264D01*
X25084Y12462D02*
X33748Y12462D01*
X33549Y12661D02*
X25084Y12661D01*
X25084Y12859D02*
X33351Y12859D01*
X33152Y13058D02*
X25084Y13058D01*
X25084Y13256D02*
X32954Y13256D01*
X32755Y13455D02*
X25084Y13455D01*
X25084Y13653D02*
X32557Y13653D01*
X32358Y13852D02*
X25084Y13852D01*
X25084Y14050D02*
X32160Y14050D01*
X31961Y14249D02*
X25084Y14249D01*
X25084Y14447D02*
X31763Y14447D01*
X31564Y14646D02*
X26325Y14646D01*
X26333Y14650D02*
X26473Y14752D01*
X26596Y14875D01*
X26698Y15015D01*
X26777Y15170D01*
X26831Y15335D01*
X26856Y15494D01*
X25854Y15494D01*
X25854Y14492D01*
X26013Y14517D01*
X26178Y14571D01*
X26333Y14650D01*
X26566Y14844D02*
X31366Y14844D01*
X31167Y15043D02*
X26712Y15043D01*
X26800Y15241D02*
X30969Y15241D01*
X30770Y15440D02*
X26847Y15440D01*
X26856Y15694D02*
X26831Y15853D01*
X26777Y16018D01*
X26698Y16173D01*
X26596Y16313D01*
X26473Y16436D01*
X26333Y16538D01*
X26178Y16617D01*
X26013Y16671D01*
X25854Y16696D01*
X25854Y15694D01*
X26856Y15694D01*
X26833Y15837D02*
X30373Y15837D01*
X30175Y16035D02*
X26768Y16035D01*
X26654Y16234D02*
X29976Y16234D01*
X29778Y16433D02*
X26477Y16433D01*
X26135Y16631D02*
X29579Y16631D01*
X29381Y16830D02*
X25084Y16830D01*
X25084Y17028D02*
X29182Y17028D01*
X29134Y17227D02*
X26307Y17227D01*
X26530Y17425D02*
X29134Y17425D01*
X29134Y17624D02*
X26679Y17624D01*
X26761Y17822D02*
X29134Y17822D01*
X29134Y18021D02*
X26804Y18021D01*
X26804Y18219D02*
X29134Y18219D01*
X29134Y18418D02*
X26773Y18418D01*
X26812Y18616D02*
X29134Y18616D01*
X29134Y18815D02*
X27010Y18815D01*
X27209Y19013D02*
X29134Y19013D01*
X30234Y19013D02*
X33484Y19013D01*
X33484Y18815D02*
X30234Y18815D01*
X30234Y18616D02*
X33484Y18616D01*
X33484Y18418D02*
X30234Y18418D01*
X30234Y18219D02*
X33484Y18219D01*
X33484Y18021D02*
X30234Y18021D01*
X30234Y17822D02*
X33484Y17822D01*
X33487Y17624D02*
X30234Y17624D01*
X30341Y17425D02*
X33685Y17425D01*
X33884Y17227D02*
X30539Y17227D01*
X30738Y17028D02*
X34082Y17028D01*
X34281Y16830D02*
X30936Y16830D01*
X31135Y16631D02*
X34479Y16631D01*
X34678Y16433D02*
X31333Y16433D01*
X31532Y16234D02*
X34876Y16234D01*
X35503Y16035D02*
X31730Y16035D01*
X31929Y15837D02*
X35428Y15837D01*
X35405Y15638D02*
X32127Y15638D01*
X32326Y15440D02*
X35405Y15440D01*
X35405Y15104D02*
X35405Y14657D01*
X35429Y14567D01*
X35476Y14487D01*
X35542Y14421D01*
X35622Y14374D01*
X35712Y14350D01*
X36134Y14350D01*
X36134Y15104D01*
X35405Y15104D01*
X35405Y15043D02*
X32723Y15043D01*
X32921Y14844D02*
X35405Y14844D01*
X35408Y14646D02*
X33120Y14646D01*
X33318Y14447D02*
X35515Y14447D01*
X36134Y14447D02*
X36334Y14447D01*
X36334Y14646D02*
X36134Y14646D01*
X36134Y14844D02*
X36334Y14844D01*
X36334Y15043D02*
X36134Y15043D01*
X36134Y15241D02*
X32524Y15241D01*
X33517Y14249D02*
X38834Y14249D01*
X38860Y14050D02*
X33715Y14050D01*
X33914Y13852D02*
X39058Y13852D01*
X39257Y13653D02*
X34112Y13653D01*
X34311Y13455D02*
X39022Y13455D01*
X38870Y13256D02*
X34509Y13256D01*
X34708Y13058D02*
X38855Y13058D01*
X38855Y12859D02*
X34906Y12859D01*
X35105Y12661D02*
X39584Y12661D01*
X39584Y12554D02*
X38855Y12554D01*
X38855Y12107D01*
X38879Y12017D01*
X38926Y11937D01*
X38992Y11871D01*
X39072Y11824D01*
X39162Y11800D01*
X39584Y11800D01*
X39584Y12554D01*
X39584Y12462D02*
X39784Y12462D01*
X39784Y12264D02*
X39584Y12264D01*
X39584Y12065D02*
X39784Y12065D01*
X39784Y11867D02*
X39584Y11867D01*
X38998Y11867D02*
X38858Y11867D01*
X38866Y12065D02*
X38692Y12065D01*
X38855Y12264D02*
X35502Y12264D01*
X35700Y12065D02*
X37876Y12065D01*
X37710Y11867D02*
X35899Y11867D01*
X36097Y11668D02*
X37634Y11668D01*
X37634Y11470D02*
X36296Y11470D01*
X36494Y11271D02*
X37697Y11271D01*
X37846Y11073D02*
X36693Y11073D01*
X36891Y10875D02*
X55055Y10875D01*
X55413Y10875D02*
X60977Y10875D01*
X61175Y11073D02*
X55722Y11073D01*
X55841Y11271D02*
X61374Y11271D01*
X61572Y11470D02*
X55884Y11470D01*
X55234Y11504D02*
X55034Y11304D01*
X38534Y11304D01*
X38284Y11554D01*
X38855Y12462D02*
X35303Y12462D01*
X36953Y14447D02*
X37191Y14447D01*
X38477Y14447D02*
X38741Y14447D01*
X38609Y14580D02*
X38609Y14654D01*
X38609Y14654D01*
X38609Y14580D01*
X38609Y14646D02*
X38609Y14646D01*
X40159Y14646D02*
X40209Y14646D01*
X40209Y14844D02*
X40159Y14844D01*
X40159Y15043D02*
X40209Y15043D01*
X40209Y15241D02*
X40159Y15241D01*
X40159Y15440D02*
X40209Y15440D01*
X40209Y15638D02*
X40159Y15638D01*
X40150Y15837D02*
X40218Y15837D01*
X41934Y16954D02*
X43104Y16954D01*
X43109Y16949D01*
X43134Y16924D01*
X44484Y15818D02*
X44484Y15818D01*
X44503Y15837D02*
X45451Y15837D01*
X45634Y16035D02*
X44702Y16035D01*
X44900Y16234D02*
X45634Y16234D01*
X45634Y16433D02*
X45099Y16433D01*
X45284Y16631D02*
X45634Y16631D01*
X45634Y16830D02*
X45284Y16830D01*
X45284Y17028D02*
X45634Y17028D01*
X45634Y17227D02*
X45556Y17227D01*
X45634Y17425D02*
X45634Y17425D01*
X45634Y17624D02*
X45634Y17624D01*
X45634Y17822D02*
X45634Y17822D01*
X45634Y18021D02*
X45634Y18021D01*
X45634Y18219D02*
X45634Y18219D01*
X45634Y18418D02*
X45634Y18418D01*
X43187Y20998D02*
X43031Y20998D01*
X43031Y21197D02*
X43187Y21197D01*
X43187Y21395D02*
X43031Y21395D01*
X38618Y15837D02*
X38600Y15837D01*
X38609Y15828D02*
X38609Y15754D01*
X38609Y15754D01*
X38609Y15828D01*
X42018Y13852D02*
X42384Y13852D01*
X42384Y14050D02*
X42217Y14050D01*
X42384Y14249D02*
X42384Y14249D01*
X42384Y14447D02*
X42384Y14447D01*
X42384Y14646D02*
X42402Y14646D01*
X42384Y14844D02*
X44459Y14844D01*
X44657Y15043D02*
X42409Y15043D01*
X42608Y15241D02*
X44856Y15241D01*
X45054Y15440D02*
X42806Y15440D01*
X44305Y15638D02*
X45253Y15638D01*
X44209Y13754D02*
X44209Y12729D01*
X44834Y12104D01*
X50634Y12104D01*
X49746Y12661D02*
X44843Y12661D01*
X44307Y12065D02*
X42059Y12065D01*
X41896Y11867D02*
X44505Y11867D01*
X44434Y11938D02*
X44434Y11938D01*
X44108Y12264D02*
X43730Y12264D01*
X42384Y13058D02*
X42059Y13058D01*
X42059Y13256D02*
X42384Y13256D01*
X42384Y13455D02*
X41834Y13455D01*
X41961Y13653D02*
X42384Y13653D01*
X40509Y12065D02*
X40502Y12065D01*
X40370Y11867D02*
X40672Y11867D01*
X36417Y09287D02*
X25084Y09287D01*
X25084Y09088D02*
X36409Y09088D01*
X36409Y08890D02*
X25084Y08890D01*
X25084Y08691D02*
X36409Y08691D01*
X36409Y08493D02*
X25084Y08493D01*
X25084Y08294D02*
X36409Y08294D01*
X36409Y08095D02*
X25084Y08095D01*
X25084Y07897D02*
X36355Y07897D01*
X36355Y07698D02*
X25084Y07698D01*
X25084Y07500D02*
X36355Y07500D01*
X36355Y07407D02*
X36379Y07317D01*
X36426Y07237D01*
X36492Y07171D01*
X36572Y07124D01*
X36662Y07100D01*
X37184Y07100D01*
X37184Y07654D01*
X37184Y07654D01*
X36355Y07654D01*
X36355Y07407D01*
X36388Y07301D02*
X25084Y07301D01*
X25084Y07103D02*
X36651Y07103D01*
X37184Y07103D02*
X37184Y07103D01*
X37184Y07301D02*
X37184Y07301D01*
X37184Y07500D02*
X37184Y07500D01*
X37184Y08304D02*
X37834Y08304D01*
X38284Y08754D01*
X39663Y06309D02*
X27434Y06309D01*
X27752Y06110D02*
X42775Y06110D01*
X43034Y05154D02*
X44859Y06979D01*
X44859Y07954D01*
X45509Y07954D02*
X45509Y06979D01*
X43284Y04754D01*
X40634Y04754D01*
X39434Y03554D01*
X36584Y03554D01*
X36184Y03154D01*
X34284Y03154D01*
X33884Y02754D01*
X31964Y02754D01*
X30834Y01624D01*
X31334Y02754D02*
X29424Y02754D01*
X28294Y01624D01*
X31334Y02754D02*
X31734Y03154D01*
X33684Y03154D01*
X34084Y03554D01*
X35984Y03554D01*
X36384Y03954D01*
X39234Y03954D01*
X40434Y05154D01*
X43034Y05154D01*
X43534Y04354D02*
X46159Y06979D01*
X46159Y07954D01*
X46809Y07954D02*
X46809Y06979D01*
X43784Y03954D01*
X41034Y03954D01*
X39834Y02754D01*
X37044Y02754D01*
X35914Y01624D01*
X36384Y02754D02*
X34504Y02754D01*
X33374Y01624D01*
X36384Y02754D02*
X36784Y03154D01*
X39634Y03154D01*
X40834Y04354D01*
X43534Y04354D01*
X44034Y03554D02*
X47459Y06979D01*
X47459Y07954D01*
X48109Y07954D02*
X48109Y06979D01*
X44284Y03154D01*
X42524Y03154D01*
X40994Y01624D01*
X39584Y01904D02*
X38734Y01904D01*
X38454Y01624D01*
X39584Y01904D02*
X41234Y03554D01*
X44034Y03554D01*
X44883Y02538D02*
X45453Y02538D01*
X45229Y02339D02*
X44685Y02339D01*
X44486Y02141D02*
X45098Y02141D01*
X45017Y01942D02*
X44539Y01942D01*
X44584Y01743D02*
X44975Y01743D01*
X45003Y01347D02*
X44556Y01347D01*
X44584Y01545D02*
X45974Y01545D01*
X45974Y01743D02*
X46174Y01743D01*
X46174Y01545D02*
X47564Y01545D01*
X47564Y01743D02*
X47173Y01743D01*
X47131Y01942D02*
X47609Y01942D01*
X47691Y02141D02*
X47050Y02141D01*
X46919Y02339D02*
X47844Y02339D01*
X48076Y02538D02*
X46695Y02538D01*
X46174Y02538D02*
X45974Y02538D01*
X45974Y02339D02*
X46174Y02339D01*
X46174Y02141D02*
X45974Y02141D01*
X45974Y01942D02*
X46174Y01942D01*
X47145Y01347D02*
X47592Y01347D01*
X47675Y01148D02*
X47071Y01148D01*
X45077Y01148D02*
X44473Y01148D01*
X43534Y01624D02*
X43534Y01754D01*
X48759Y06979D01*
X48759Y07954D01*
X49396Y07897D02*
X49421Y07897D01*
X49422Y07941D02*
X49422Y07966D01*
X50046Y07966D01*
X50046Y07941D01*
X49480Y07941D01*
X49422Y07941D01*
X49421Y08095D02*
X49396Y08095D01*
X49396Y08294D02*
X49421Y08294D01*
X49421Y08493D02*
X49396Y08493D01*
X49396Y08691D02*
X49421Y08691D01*
X49421Y08890D02*
X49396Y08890D01*
X50046Y08890D02*
X50071Y08890D01*
X50071Y08691D02*
X50046Y08691D01*
X50046Y08493D02*
X50071Y08493D01*
X50071Y08294D02*
X50046Y08294D01*
X50046Y08095D02*
X50071Y08095D01*
X50071Y07897D02*
X50046Y07897D01*
X50046Y07698D02*
X50071Y07698D01*
X50071Y07500D02*
X50046Y07500D01*
X50046Y07301D02*
X50071Y07301D01*
X50071Y07103D02*
X50046Y07103D01*
X50046Y06904D02*
X50071Y06904D01*
X50473Y06904D02*
X53559Y06904D01*
X53384Y07103D02*
X50623Y07103D01*
X50638Y07301D02*
X53384Y07301D01*
X53384Y07500D02*
X50638Y07500D01*
X50638Y07698D02*
X53384Y07698D01*
X53384Y07897D02*
X50638Y07897D01*
X50638Y08095D02*
X53384Y08095D01*
X53384Y08294D02*
X50638Y08294D01*
X50638Y08493D02*
X53384Y08493D01*
X53384Y08691D02*
X50638Y08691D01*
X50586Y08890D02*
X53445Y08890D01*
X55859Y07954D02*
X55859Y03779D01*
X53734Y01654D01*
X53724Y01654D01*
X53694Y01624D01*
X52447Y03133D02*
X45479Y03133D01*
X45677Y03331D02*
X52646Y03331D01*
X52844Y03530D02*
X45876Y03530D01*
X46074Y03728D02*
X53043Y03728D01*
X53241Y03927D02*
X46273Y03927D01*
X46471Y04126D02*
X53440Y04126D01*
X53638Y04324D02*
X46670Y04324D01*
X46868Y04523D02*
X53837Y04523D01*
X54035Y04721D02*
X47067Y04721D01*
X47265Y04920D02*
X54159Y04920D01*
X54159Y05118D02*
X47464Y05118D01*
X47662Y05317D02*
X54159Y05317D01*
X54159Y05515D02*
X47861Y05515D01*
X48059Y05713D02*
X54159Y05713D01*
X54159Y05912D02*
X48258Y05912D01*
X48456Y06110D02*
X54159Y06110D01*
X54159Y06309D02*
X48655Y06309D01*
X48853Y06507D02*
X54159Y06507D01*
X54159Y06706D02*
X49052Y06706D01*
X49396Y06904D02*
X49421Y06904D01*
X49421Y07103D02*
X49396Y07103D01*
X49396Y07301D02*
X49421Y07301D01*
X49421Y07500D02*
X49396Y07500D01*
X49396Y07698D02*
X49421Y07698D01*
X56484Y07929D02*
X56509Y07954D01*
X56484Y07929D02*
X56484Y01904D01*
X56234Y01654D01*
X56234Y01624D01*
X57159Y03229D02*
X58734Y01654D01*
X58744Y01654D01*
X58774Y01624D01*
X57159Y03229D02*
X57159Y07954D01*
X57809Y07954D02*
X57809Y05129D01*
X61314Y01624D01*
X61781Y04523D02*
X67332Y04523D01*
X67103Y04721D02*
X61583Y04721D01*
X61384Y04920D02*
X67012Y04920D01*
X66953Y05118D02*
X61186Y05118D01*
X60987Y05317D02*
X66895Y05317D01*
X66931Y05515D02*
X60789Y05515D01*
X60590Y05713D02*
X66990Y05713D01*
X67048Y05912D02*
X60392Y05912D01*
X60193Y06110D02*
X67245Y06110D01*
X67474Y06309D02*
X60159Y06309D01*
X60396Y06904D02*
X60421Y06904D01*
X60421Y07103D02*
X60396Y07103D01*
X60396Y07301D02*
X60421Y07301D01*
X60421Y07500D02*
X60396Y07500D01*
X60396Y07698D02*
X60421Y07698D01*
X61584Y08493D02*
X61872Y08493D01*
X61655Y08691D02*
X61584Y08691D01*
X61630Y08890D02*
X61523Y08890D01*
X69472Y02538D02*
X69604Y02538D01*
X50884Y15043D02*
X49611Y15043D01*
X40026Y05912D02*
X27880Y05912D01*
X28008Y05713D02*
X39828Y05713D01*
X39629Y05515D02*
X28039Y05515D01*
X28039Y05317D02*
X39431Y05317D01*
X39232Y05118D02*
X28039Y05118D01*
X27959Y04920D02*
X39034Y04920D01*
X35985Y04721D02*
X27832Y04721D01*
X27704Y04523D02*
X35787Y04523D01*
X25854Y14646D02*
X25654Y14646D01*
X25654Y14844D02*
X25854Y14844D01*
X25854Y15043D02*
X25654Y15043D01*
X25654Y15241D02*
X25854Y15241D01*
X25854Y15440D02*
X25654Y15440D01*
X25854Y15638D02*
X30572Y15638D01*
X25854Y15837D02*
X25654Y15837D01*
X25654Y16035D02*
X25854Y16035D01*
X25854Y16234D02*
X25654Y16234D01*
X25654Y16433D02*
X25854Y16433D01*
X25854Y16631D02*
X25654Y16631D01*
X25373Y16631D02*
X25084Y16631D01*
X25084Y17227D02*
X25201Y17227D01*
X25754Y18134D02*
X25764Y18134D01*
X28784Y21154D01*
X30306Y20601D02*
X33412Y20601D01*
X33384Y20403D02*
X30334Y20403D01*
X30305Y20204D02*
X33413Y20204D01*
X33484Y20006D02*
X30234Y20006D01*
X30234Y19807D02*
X33484Y19807D01*
X33484Y19609D02*
X30234Y19609D01*
X30234Y19410D02*
X33484Y19410D01*
X33484Y19212D02*
X30234Y19212D01*
X25183Y14646D02*
X25084Y14646D01*
X21309Y14646D02*
X21245Y14646D01*
X21253Y14650D02*
X21309Y14691D01*
X21309Y09844D01*
X17742Y09844D01*
X17808Y09935D01*
X17887Y10090D01*
X17941Y10255D01*
X17966Y10414D01*
X16964Y10414D01*
X16964Y10614D01*
X16764Y10614D01*
X16764Y11616D01*
X16605Y11591D01*
X16440Y11537D01*
X16285Y11458D01*
X16145Y11356D01*
X16022Y11233D01*
X15920Y11093D01*
X15841Y10938D01*
X15787Y10773D01*
X15762Y10614D01*
X16764Y10614D01*
X16764Y10414D01*
X15762Y10414D01*
X15787Y10255D01*
X15841Y10090D01*
X15920Y09935D01*
X15986Y09844D01*
X15139Y09844D01*
X15214Y09919D01*
X15374Y10305D01*
X15374Y10723D01*
X15214Y11109D01*
X14919Y11404D01*
X14533Y11564D01*
X14504Y11564D01*
X14504Y21570D01*
X14270Y21804D01*
X14020Y22054D01*
X14278Y22054D01*
X14454Y22230D01*
X14454Y22604D01*
X15038Y22604D01*
X19624Y18018D01*
X19624Y17925D01*
X19784Y17539D01*
X20079Y17244D01*
X20465Y17084D01*
X20883Y17084D01*
X21269Y17244D01*
X21309Y17284D01*
X21309Y16497D01*
X21253Y16538D01*
X21098Y16617D01*
X20933Y16671D01*
X20774Y16696D01*
X20774Y15694D01*
X20574Y15694D01*
X20574Y16696D01*
X20415Y16671D01*
X20250Y16617D01*
X20095Y16538D01*
X19955Y16436D01*
X19832Y16313D01*
X19730Y16173D01*
X19651Y16018D01*
X19597Y15853D01*
X19572Y15694D01*
X20574Y15694D01*
X20574Y15494D01*
X20774Y15494D01*
X20774Y14492D01*
X20933Y14517D01*
X21098Y14571D01*
X21253Y14650D01*
X21309Y14447D02*
X14504Y14447D01*
X14504Y14249D02*
X21309Y14249D01*
X21309Y14050D02*
X14504Y14050D01*
X14504Y13852D02*
X21309Y13852D01*
X21309Y13653D02*
X14504Y13653D01*
X14504Y13455D02*
X21309Y13455D01*
X21309Y13256D02*
X14504Y13256D01*
X14504Y13058D02*
X21309Y13058D01*
X21309Y12859D02*
X14504Y12859D01*
X14504Y12661D02*
X21309Y12661D01*
X21309Y12462D02*
X14504Y12462D01*
X14504Y12264D02*
X21309Y12264D01*
X21309Y12065D02*
X14504Y12065D01*
X14504Y11867D02*
X21309Y11867D01*
X21309Y11668D02*
X14504Y11668D01*
X14760Y11470D02*
X16308Y11470D01*
X16060Y11271D02*
X15051Y11271D01*
X15229Y11073D02*
X15910Y11073D01*
X15820Y10875D02*
X15311Y10875D01*
X15374Y10676D02*
X15772Y10676D01*
X15783Y10279D02*
X15363Y10279D01*
X15374Y10478D02*
X16764Y10478D01*
X16764Y10676D02*
X16964Y10676D01*
X16964Y10614D02*
X16964Y11616D01*
X17123Y11591D01*
X17288Y11537D01*
X17443Y11458D01*
X17583Y11356D01*
X17706Y11233D01*
X17808Y11093D01*
X17887Y10938D01*
X17941Y10773D01*
X17966Y10614D01*
X16964Y10614D01*
X16964Y10478D02*
X21309Y10478D01*
X21309Y10676D02*
X17956Y10676D01*
X17908Y10875D02*
X21309Y10875D01*
X21309Y11073D02*
X17818Y11073D01*
X17668Y11271D02*
X21309Y11271D01*
X21309Y11470D02*
X17420Y11470D01*
X16964Y11470D02*
X16764Y11470D01*
X16764Y11271D02*
X16964Y11271D01*
X16964Y11073D02*
X16764Y11073D01*
X16764Y10875D02*
X16964Y10875D01*
X17945Y10279D02*
X21309Y10279D01*
X21309Y10081D02*
X17882Y10081D01*
X17769Y09882D02*
X21309Y09882D01*
X15959Y09882D02*
X15177Y09882D01*
X15281Y10081D02*
X15846Y10081D01*
X14324Y10514D02*
X14104Y10734D01*
X14104Y21404D01*
X13279Y22229D01*
X13279Y23004D01*
X12629Y23004D02*
X12629Y22229D01*
X13704Y21154D01*
X13704Y12434D01*
X11784Y10514D01*
X10827Y10081D02*
X10294Y10081D01*
X10294Y10279D02*
X10745Y10279D01*
X10734Y10305D02*
X10894Y09919D01*
X10969Y09844D01*
X10294Y09844D01*
X10294Y11388D01*
X10118Y11564D01*
X08370Y11564D01*
X08194Y11388D01*
X08194Y09844D01*
X00954Y09844D01*
X00954Y18354D01*
X02498Y18354D01*
X02674Y18530D01*
X02674Y19818D01*
X03354Y20498D01*
X03354Y23809D01*
X03569Y23594D01*
X03955Y23434D01*
X04373Y23434D01*
X04759Y23594D01*
X05054Y23889D01*
X05205Y24254D01*
X09288Y24254D01*
X09588Y23954D01*
X07730Y23954D01*
X07554Y23778D01*
X07554Y23454D01*
X06368Y23454D01*
X03968Y21054D01*
X03704Y20790D01*
X03704Y20350D01*
X03569Y20294D01*
X03274Y19999D01*
X03114Y19613D01*
X03114Y19195D01*
X03274Y18809D01*
X03569Y18514D01*
X03714Y18454D01*
X03714Y17554D01*
X03105Y17554D01*
X02929Y17378D01*
X02929Y17316D01*
X02909Y17391D01*
X02862Y17471D01*
X02796Y17537D01*
X02716Y17584D01*
X02626Y17608D01*
X02204Y17608D01*
X02204Y16854D01*
X02004Y16854D01*
X02004Y17608D01*
X01582Y17608D01*
X01492Y17584D01*
X01412Y17537D01*
X01346Y17471D01*
X01299Y17391D01*
X01275Y17301D01*
X01275Y16854D01*
X02004Y16854D01*
X02004Y16654D01*
X02204Y16654D01*
X02204Y15900D01*
X02626Y15900D01*
X02716Y15924D01*
X02796Y15971D01*
X02862Y16037D01*
X02909Y16117D01*
X02929Y16192D01*
X02929Y16130D01*
X03105Y15954D01*
X04303Y15954D01*
X04479Y16130D01*
X04479Y16893D01*
X04614Y17028D01*
X05804Y17028D01*
X05804Y16830D02*
X04479Y16830D01*
X04479Y16631D02*
X05804Y16631D01*
X05804Y16433D02*
X04479Y16433D01*
X04479Y16234D02*
X05804Y16234D01*
X05804Y16035D02*
X04385Y16035D01*
X04614Y17028D02*
X04614Y18454D01*
X04759Y18514D01*
X05054Y18809D01*
X05214Y19195D01*
X05214Y19613D01*
X05054Y19999D01*
X04759Y20294D01*
X04604Y20358D01*
X04604Y20418D01*
X06740Y22554D01*
X07554Y22554D01*
X07554Y22230D01*
X07730Y22054D01*
X08354Y22054D01*
X08354Y18970D01*
X07838Y18454D01*
X05980Y18454D01*
X05804Y18278D01*
X05804Y15630D01*
X05980Y15454D01*
X06204Y15454D01*
X06204Y15054D01*
X06005Y15054D01*
X05829Y14878D01*
X05829Y13630D01*
X06005Y13454D01*
X07203Y13454D01*
X07379Y13630D01*
X07379Y13692D01*
X07399Y13617D01*
X07446Y13537D01*
X07512Y13471D01*
X07592Y13424D01*
X07682Y13400D01*
X08104Y13400D01*
X08104Y14154D01*
X08304Y14154D01*
X08304Y14354D01*
X08104Y14354D01*
X08104Y15108D01*
X07682Y15108D01*
X07592Y15084D01*
X07512Y15037D01*
X07446Y14971D01*
X07399Y14891D01*
X07379Y14816D01*
X07379Y14878D01*
X07203Y15054D01*
X07004Y15054D01*
X07004Y15454D01*
X08228Y15454D01*
X08404Y15630D01*
X08404Y17888D01*
X08920Y18404D01*
X08954Y18438D01*
X09254Y18138D01*
X09488Y17904D01*
X09788Y17904D01*
X09804Y17888D01*
X09804Y15630D01*
X09980Y15454D01*
X11214Y15454D01*
X11214Y15044D01*
X11015Y15044D01*
X10839Y14868D01*
X10839Y14806D01*
X10819Y14881D01*
X10772Y14961D01*
X10706Y15027D01*
X10626Y15074D01*
X10536Y15098D01*
X10114Y15098D01*
X10114Y14344D01*
X09914Y14344D01*
X09914Y15098D01*
X09492Y15098D01*
X09402Y15074D01*
X09322Y15027D01*
X09256Y14961D01*
X09209Y14881D01*
X09185Y14791D01*
X09185Y14344D01*
X09914Y14344D01*
X09914Y14144D01*
X10114Y14144D01*
X10114Y13390D01*
X10536Y13390D01*
X10626Y13414D01*
X10706Y13461D01*
X10772Y13527D01*
X10819Y13607D01*
X10839Y13682D01*
X10839Y13620D01*
X11015Y13444D01*
X12213Y13444D01*
X12389Y13620D01*
X12389Y14868D01*
X12213Y15044D01*
X12014Y15044D01*
X12014Y15454D01*
X12228Y15454D01*
X12404Y15630D01*
X12404Y18278D01*
X12228Y18454D01*
X10370Y18454D01*
X10120Y18704D01*
X09820Y18704D01*
X09554Y18970D01*
X09554Y21788D01*
X09779Y22013D01*
X09779Y22054D01*
X10179Y22054D01*
X10179Y22004D01*
X09905Y22004D01*
X09729Y21828D01*
X09729Y20580D01*
X09855Y20454D01*
X09729Y20328D01*
X09729Y19080D01*
X09905Y18904D01*
X11103Y18904D01*
X11279Y19080D01*
X11279Y19142D01*
X11299Y19067D01*
X11346Y18987D01*
X11412Y18921D01*
X11492Y18874D01*
X11582Y18850D01*
X12004Y18850D01*
X12004Y19604D01*
X12204Y19604D01*
X12204Y19804D01*
X12004Y19804D01*
X12004Y20558D01*
X12004Y21104D01*
X12204Y21104D01*
X12204Y21304D01*
X12933Y21304D01*
X12933Y21359D01*
X13304Y20988D01*
X13304Y12600D01*
X12188Y11483D01*
X11993Y11564D01*
X11575Y11564D01*
X11189Y11404D01*
X10894Y11109D01*
X10734Y10723D01*
X10734Y10305D01*
X10734Y10478D02*
X10294Y10478D01*
X10294Y10676D02*
X10734Y10676D01*
X10797Y10875D02*
X10294Y10875D01*
X10294Y11073D02*
X10879Y11073D01*
X11057Y11271D02*
X10294Y11271D01*
X10212Y11470D02*
X11348Y11470D01*
X12373Y11668D02*
X00954Y11668D01*
X00954Y11470D02*
X08276Y11470D01*
X08194Y11271D02*
X00954Y11271D01*
X00954Y11073D02*
X08194Y11073D01*
X08194Y10875D02*
X00954Y10875D01*
X00954Y10676D02*
X08194Y10676D01*
X08194Y10478D02*
X00954Y10478D01*
X00954Y10279D02*
X08194Y10279D01*
X08194Y10081D02*
X00954Y10081D01*
X00954Y09882D02*
X08194Y09882D01*
X10294Y09882D02*
X10931Y09882D01*
X12571Y11867D02*
X00954Y11867D01*
X00954Y12065D02*
X12770Y12065D01*
X12968Y12264D02*
X00954Y12264D01*
X00954Y12462D02*
X13167Y12462D01*
X13304Y12661D02*
X00954Y12661D01*
X00954Y12859D02*
X13304Y12859D01*
X13304Y13058D02*
X00954Y13058D01*
X00954Y13256D02*
X13304Y13256D01*
X13304Y13455D02*
X12224Y13455D01*
X12389Y13653D02*
X13304Y13653D01*
X13304Y13852D02*
X12389Y13852D01*
X12389Y14050D02*
X13304Y14050D01*
X13304Y14249D02*
X12389Y14249D01*
X12389Y14447D02*
X13304Y14447D01*
X13304Y14646D02*
X12389Y14646D01*
X12389Y14844D02*
X13304Y14844D01*
X13304Y15043D02*
X12214Y15043D01*
X12014Y15241D02*
X13304Y15241D01*
X13304Y15440D02*
X12014Y15440D01*
X12404Y15638D02*
X13304Y15638D01*
X13304Y15837D02*
X12404Y15837D01*
X12404Y16035D02*
X13304Y16035D01*
X13304Y16234D02*
X12404Y16234D01*
X12404Y16433D02*
X13304Y16433D01*
X13304Y16631D02*
X12404Y16631D01*
X12404Y16830D02*
X13304Y16830D01*
X13304Y17028D02*
X12404Y17028D01*
X12404Y17227D02*
X13304Y17227D01*
X13304Y17425D02*
X12404Y17425D01*
X12404Y17624D02*
X13304Y17624D01*
X13304Y17822D02*
X12404Y17822D01*
X12404Y18021D02*
X13304Y18021D01*
X13304Y18219D02*
X12404Y18219D01*
X12265Y18418D02*
X13304Y18418D01*
X13304Y18616D02*
X10208Y18616D01*
X09954Y18304D02*
X09654Y18304D01*
X09154Y18804D01*
X09154Y21954D01*
X09379Y22179D01*
X09379Y23004D01*
X08754Y22979D02*
X08729Y23004D01*
X08754Y22979D02*
X08754Y18804D01*
X07104Y17154D01*
X07104Y16954D01*
X06604Y16454D01*
X06604Y14254D01*
X05829Y14249D02*
X00954Y14249D01*
X00954Y14447D02*
X05829Y14447D01*
X05829Y14646D02*
X00954Y14646D01*
X00954Y14844D02*
X05829Y14844D01*
X05994Y15043D02*
X00954Y15043D01*
X00954Y15241D02*
X06204Y15241D01*
X06204Y15440D02*
X00954Y15440D01*
X00954Y15638D02*
X05804Y15638D01*
X05804Y15837D02*
X00954Y15837D01*
X00954Y16035D02*
X01347Y16035D01*
X01346Y16037D02*
X01412Y15971D01*
X01492Y15924D01*
X01582Y15900D01*
X02004Y15900D01*
X02004Y16654D01*
X01275Y16654D01*
X01275Y16207D01*
X01299Y16117D01*
X01346Y16037D01*
X01275Y16234D02*
X00954Y16234D01*
X00954Y16433D02*
X01275Y16433D01*
X01275Y16631D02*
X00954Y16631D01*
X00954Y16830D02*
X02004Y16830D01*
X02004Y17028D02*
X02204Y17028D01*
X02204Y17227D02*
X02004Y17227D01*
X02004Y17425D02*
X02204Y17425D01*
X02889Y17425D02*
X02976Y17425D01*
X03714Y17624D02*
X00954Y17624D01*
X00954Y17822D02*
X03714Y17822D01*
X03714Y18021D02*
X00954Y18021D01*
X00954Y18219D02*
X03714Y18219D01*
X03714Y18418D02*
X02562Y18418D01*
X02674Y18616D02*
X03467Y18616D01*
X03272Y18815D02*
X02674Y18815D01*
X02674Y19013D02*
X03189Y19013D01*
X03114Y19212D02*
X02674Y19212D01*
X02674Y19410D02*
X03114Y19410D01*
X03114Y19609D02*
X02674Y19609D01*
X02674Y19807D02*
X03194Y19807D01*
X03281Y20006D02*
X02862Y20006D01*
X03060Y20204D02*
X03479Y20204D01*
X03259Y20403D02*
X03704Y20403D01*
X03704Y20601D02*
X03354Y20601D01*
X03354Y20800D02*
X03713Y20800D01*
X03912Y20998D02*
X03354Y20998D01*
X03354Y21197D02*
X04110Y21197D01*
X04309Y21395D02*
X03354Y21395D01*
X03354Y21594D02*
X04507Y21594D01*
X04706Y21792D02*
X03354Y21792D01*
X03354Y21990D02*
X04904Y21990D01*
X05103Y22189D02*
X03354Y22189D01*
X03354Y22387D02*
X05301Y22387D01*
X05500Y22586D02*
X03354Y22586D01*
X03354Y22784D02*
X05698Y22784D01*
X05897Y22983D02*
X03354Y22983D01*
X03354Y23181D02*
X06095Y23181D01*
X06294Y23380D02*
X03354Y23380D01*
X03354Y23578D02*
X03606Y23578D01*
X03386Y23777D02*
X03354Y23777D01*
X02454Y23777D02*
X02402Y23777D01*
X02454Y23829D02*
X02454Y20870D01*
X02038Y20454D01*
X00954Y20454D01*
X00954Y23669D01*
X01029Y23594D01*
X01415Y23434D01*
X01833Y23434D01*
X02219Y23594D01*
X02454Y23829D01*
X02454Y23578D02*
X02182Y23578D01*
X02454Y23380D02*
X00954Y23380D01*
X00954Y23181D02*
X02454Y23181D01*
X02454Y22983D02*
X00954Y22983D01*
X00954Y22784D02*
X02454Y22784D01*
X02454Y22586D02*
X00954Y22586D01*
X00954Y22387D02*
X02454Y22387D01*
X02454Y22189D02*
X00954Y22189D01*
X00954Y21990D02*
X02454Y21990D01*
X02454Y21792D02*
X00954Y21792D01*
X00954Y21594D02*
X02454Y21594D01*
X02454Y21395D02*
X00954Y21395D01*
X00954Y21197D02*
X02454Y21197D01*
X02454Y20998D02*
X00954Y20998D01*
X00954Y20800D02*
X02383Y20800D01*
X02185Y20601D02*
X00954Y20601D01*
X04604Y20403D02*
X08354Y20403D01*
X08354Y20601D02*
X04787Y20601D01*
X04986Y20800D02*
X08354Y20800D01*
X08354Y20998D02*
X05184Y20998D01*
X05383Y21197D02*
X08354Y21197D01*
X08354Y21395D02*
X05581Y21395D01*
X05780Y21594D02*
X08354Y21594D01*
X08354Y21792D02*
X05978Y21792D01*
X06177Y21990D02*
X08354Y21990D01*
X07595Y22189D02*
X06375Y22189D01*
X06574Y22387D02*
X07554Y22387D01*
X07554Y23578D02*
X04722Y23578D01*
X04942Y23777D02*
X07554Y23777D01*
X09368Y24174D02*
X05172Y24174D01*
X05090Y23975D02*
X09567Y23975D01*
X10029Y24079D02*
X09454Y24654D01*
X04334Y24654D01*
X04164Y24484D01*
X02454Y25139D02*
X02219Y25374D01*
X01833Y25534D01*
X01415Y25534D01*
X01029Y25374D01*
X00954Y25299D01*
X00954Y26146D01*
X01045Y26080D01*
X01200Y26001D01*
X01365Y25947D01*
X01524Y25922D01*
X01524Y26924D01*
X01724Y26924D01*
X01724Y25922D01*
X01883Y25947D01*
X02048Y26001D01*
X02203Y26080D01*
X02343Y26182D01*
X02454Y26293D01*
X02454Y25139D01*
X02454Y25166D02*
X02426Y25166D01*
X02454Y25365D02*
X02228Y25365D01*
X02454Y25563D02*
X00954Y25563D01*
X00954Y25365D02*
X01020Y25365D01*
X00954Y25762D02*
X02454Y25762D01*
X02454Y25960D02*
X01923Y25960D01*
X01724Y25960D02*
X01524Y25960D01*
X01524Y26159D02*
X01724Y26159D01*
X01724Y26357D02*
X01524Y26357D01*
X01524Y26556D02*
X01724Y26556D01*
X01724Y26754D02*
X01524Y26754D01*
X01524Y27124D02*
X01524Y28126D01*
X01365Y28101D01*
X01200Y28047D01*
X01045Y27968D01*
X00954Y27902D01*
X00954Y28749D01*
X01029Y28674D01*
X01415Y28514D01*
X01833Y28514D01*
X01978Y28574D01*
X02454Y28098D01*
X02454Y27755D01*
X02343Y27866D01*
X02203Y27968D01*
X02048Y28047D01*
X01883Y28101D01*
X01724Y28126D01*
X01724Y27124D01*
X01524Y27124D01*
X01524Y27151D02*
X01724Y27151D01*
X01724Y27350D02*
X01524Y27350D01*
X01524Y27548D02*
X01724Y27548D01*
X01724Y27747D02*
X01524Y27747D01*
X01524Y27945D02*
X01724Y27945D01*
X02234Y27945D02*
X02454Y27945D01*
X02408Y28144D02*
X00954Y28144D01*
X00954Y28342D02*
X02209Y28342D01*
X02011Y28541D02*
X01898Y28541D01*
X01350Y28541D02*
X00954Y28541D01*
X00954Y28739D02*
X00964Y28739D01*
X00954Y27945D02*
X01014Y27945D01*
X02614Y29210D02*
X03090Y28734D01*
X03354Y28470D01*
X03354Y27699D01*
X03569Y27914D01*
X03955Y28074D01*
X04373Y28074D01*
X04759Y27914D01*
X05054Y27619D01*
X05122Y27454D01*
X07838Y27454D01*
X08138Y27754D01*
X07730Y27754D01*
X07554Y27930D01*
X07554Y28304D01*
X04858Y28304D01*
X04568Y28595D01*
X04373Y28514D01*
X03955Y28514D01*
X03569Y28674D01*
X03274Y28969D01*
X03114Y29355D01*
X03114Y29773D01*
X03274Y30159D01*
X03569Y30454D01*
X03955Y30614D01*
X04373Y30614D01*
X04759Y30454D01*
X05054Y30159D01*
X05214Y29773D01*
X05214Y29355D01*
X05133Y29160D01*
X05190Y29104D01*
X07554Y29104D01*
X07554Y29478D01*
X07730Y29654D01*
X08904Y29654D01*
X08904Y35894D01*
X08442Y35894D01*
X08391Y35864D01*
X08301Y35840D01*
X08054Y35840D01*
X08054Y36869D01*
X08054Y36869D01*
X08054Y37898D01*
X08301Y37898D01*
X08391Y37874D01*
X08442Y37844D01*
X09028Y37844D01*
X09029Y37843D01*
X09030Y37844D01*
X09678Y37844D01*
X09679Y37843D01*
X09680Y37844D01*
X10328Y37844D01*
X10329Y37843D01*
X10330Y37844D01*
X10978Y37844D01*
X11154Y37668D01*
X11154Y35861D01*
X11336Y35679D01*
X12353Y35679D01*
X12529Y35503D01*
X12529Y35304D01*
X12875Y35304D01*
X13030Y35459D01*
X13154Y35459D01*
X13154Y35661D01*
X13447Y35954D01*
X15814Y38321D01*
X15814Y38663D01*
X15974Y39049D01*
X16269Y39344D01*
X16655Y39504D01*
X17073Y39504D01*
X17459Y39344D01*
X17754Y39049D01*
X17914Y38663D01*
X17914Y38245D01*
X17754Y37859D01*
X17459Y37564D01*
X17073Y37404D01*
X16655Y37404D01*
X16412Y37505D01*
X14322Y35415D01*
X14454Y35283D01*
X14454Y35204D01*
X14470Y35204D01*
X14720Y34954D01*
X14848Y34826D01*
X14976Y34954D01*
X15376Y35354D01*
X15725Y35354D01*
X15830Y35459D01*
X17078Y35459D01*
X17154Y35383D01*
X17154Y35403D01*
X17330Y35579D01*
X18578Y35579D01*
X18754Y35403D01*
X18754Y34205D01*
X18578Y34029D01*
X18516Y34029D01*
X18591Y34009D01*
X18671Y33962D01*
X18737Y33896D01*
X18784Y33816D01*
X18808Y33726D01*
X18808Y33304D01*
X18054Y33304D01*
X18054Y33104D01*
X18808Y33104D01*
X18808Y32682D01*
X18784Y32592D01*
X18737Y32512D01*
X18671Y32446D01*
X18591Y32399D01*
X18501Y32375D01*
X18054Y32375D01*
X18054Y33104D01*
X17854Y33104D01*
X17854Y32375D01*
X17407Y32375D01*
X17317Y32399D01*
X17254Y32436D01*
X17254Y32425D01*
X17078Y32249D01*
X17004Y32249D01*
X17004Y32104D01*
X17073Y32104D01*
X17249Y31928D01*
X17249Y31866D01*
X17269Y31941D01*
X17316Y32021D01*
X17382Y32087D01*
X17462Y32134D01*
X17552Y32158D01*
X17974Y32158D01*
X17974Y31404D01*
X18174Y31404D01*
X18174Y32158D01*
X18596Y32158D01*
X18686Y32134D01*
X18766Y32087D01*
X18832Y32021D01*
X18879Y31941D01*
X18903Y31851D01*
X18903Y31404D01*
X18174Y31404D01*
X18174Y31204D01*
X18903Y31204D01*
X18903Y30757D01*
X18879Y30667D01*
X18832Y30587D01*
X18766Y30521D01*
X18686Y30474D01*
X18596Y30450D01*
X18174Y30450D01*
X18174Y31204D01*
X17974Y31204D01*
X17974Y30450D01*
X17552Y30450D01*
X17462Y30474D01*
X17382Y30521D01*
X17316Y30587D01*
X17269Y30667D01*
X17249Y30742D01*
X17249Y30680D01*
X17073Y30504D01*
X15875Y30504D01*
X15699Y30680D01*
X15699Y31321D01*
X15432Y31054D01*
X15311Y31054D01*
X15111Y30854D01*
X13383Y30854D01*
X13383Y30504D01*
X12654Y30504D01*
X12654Y30304D01*
X13383Y30304D01*
X13383Y29857D01*
X13359Y29767D01*
X13312Y29687D01*
X13280Y29654D01*
X14278Y29654D01*
X14454Y29478D01*
X14454Y27930D01*
X14329Y27805D01*
X14329Y27745D01*
X14704Y27370D01*
X14704Y27383D01*
X14803Y27622D01*
X14986Y27805D01*
X15225Y27904D01*
X15438Y27904D01*
X17288Y29754D01*
X18488Y29754D01*
X19624Y30890D01*
X19624Y31043D01*
X19784Y31429D01*
X20079Y31724D01*
X20465Y31884D01*
X20883Y31884D01*
X21269Y31724D01*
X21309Y31684D01*
X21309Y32324D01*
X19800Y32324D01*
X19624Y32500D01*
X19624Y34248D01*
X19800Y34424D01*
X20174Y34424D01*
X20174Y36977D01*
X19747Y37404D01*
X18530Y37404D01*
X18354Y37580D01*
X18354Y39328D01*
X18530Y39504D01*
X20278Y39504D01*
X20454Y39328D01*
X20454Y38111D01*
X20881Y37684D01*
X21174Y37391D01*
X21174Y34424D01*
X21309Y34424D01*
X21309Y40394D01*
X13289Y40394D01*
X13544Y40139D01*
X13704Y39753D01*
X13704Y39335D01*
X13544Y38949D01*
X13249Y38654D01*
X13204Y38635D01*
X13204Y38119D01*
X13478Y38119D01*
X13654Y37943D01*
X13654Y36295D01*
X13478Y36119D01*
X11630Y36119D01*
X11454Y36295D01*
X11454Y37943D01*
X11630Y38119D01*
X12104Y38119D01*
X12104Y38635D01*
X12059Y38654D01*
X11764Y38949D01*
X11745Y38994D01*
X06963Y38994D01*
X06944Y38949D01*
X06649Y38654D01*
X06604Y38635D01*
X06604Y38119D01*
X07078Y38119D01*
X07254Y37943D01*
X07254Y36295D01*
X07078Y36119D01*
X05230Y36119D01*
X05054Y36295D01*
X05054Y37943D01*
X05230Y38119D01*
X05504Y38119D01*
X05504Y38635D01*
X05459Y38654D01*
X05164Y38949D01*
X05104Y39094D01*
X04154Y39094D01*
X04154Y38555D01*
X03978Y38379D01*
X03916Y38379D01*
X03991Y38359D01*
X04071Y38312D01*
X04137Y38246D01*
X04184Y38166D01*
X04208Y38076D01*
X04208Y37654D01*
X03454Y37654D01*
X03454Y37454D01*
X04208Y37454D01*
X04208Y37032D01*
X04184Y36942D01*
X04137Y36862D01*
X04071Y36796D01*
X03991Y36749D01*
X03901Y36725D01*
X03454Y36725D01*
X03454Y37454D01*
X03254Y37454D01*
X03254Y36725D01*
X02807Y36725D01*
X02717Y36749D01*
X02637Y36796D01*
X02571Y36862D01*
X02524Y36942D01*
X02500Y37032D01*
X02500Y37454D01*
X03254Y37454D01*
X03254Y37654D01*
X02500Y37654D01*
X02500Y38076D01*
X02524Y38166D01*
X02571Y38246D01*
X02637Y38312D01*
X02717Y38359D01*
X02792Y38379D01*
X02730Y38379D01*
X02554Y38555D01*
X02554Y39753D01*
X02730Y39929D01*
X03493Y39929D01*
X03558Y39994D01*
X05104Y39994D01*
X05164Y40139D01*
X05419Y40394D01*
X00954Y40394D01*
X00954Y30379D01*
X01029Y30454D01*
X01415Y30614D01*
X01833Y30614D01*
X02219Y30454D01*
X02514Y30159D01*
X02674Y29773D01*
X02674Y29355D01*
X02614Y29210D01*
X02688Y29136D02*
X03205Y29136D01*
X03122Y29335D02*
X02666Y29335D01*
X02674Y29533D02*
X03114Y29533D01*
X03114Y29732D02*
X02674Y29732D01*
X02609Y29930D02*
X03179Y29930D01*
X03262Y30129D02*
X02526Y30129D01*
X02345Y30327D02*
X03443Y30327D01*
X03743Y30526D02*
X02045Y30526D01*
X01203Y30526D02*
X00954Y30526D01*
X00954Y30724D02*
X08904Y30724D01*
X08904Y30526D02*
X04585Y30526D01*
X04885Y30327D02*
X08904Y30327D01*
X08904Y30129D02*
X05066Y30129D01*
X05149Y29930D02*
X08904Y29930D01*
X08904Y29732D02*
X05214Y29732D01*
X05214Y29533D02*
X07609Y29533D01*
X07554Y29335D02*
X05206Y29335D01*
X05157Y29136D02*
X07554Y29136D01*
X08079Y28704D02*
X05024Y28704D01*
X04164Y29564D01*
X03305Y28938D02*
X02886Y28938D01*
X03085Y28739D02*
X03504Y28739D01*
X03283Y28541D02*
X03890Y28541D01*
X04438Y28541D02*
X04621Y28541D01*
X04820Y28342D02*
X03354Y28342D01*
X03354Y28144D02*
X07554Y28144D01*
X07554Y27945D02*
X04683Y27945D01*
X04926Y27747D02*
X08131Y27747D01*
X07933Y27548D02*
X05083Y27548D01*
X05147Y26654D02*
X08170Y26654D01*
X08404Y26888D01*
X09129Y27613D01*
X09129Y27754D01*
X10179Y27754D01*
X10179Y26204D01*
X04829Y26204D01*
X05054Y26429D01*
X05147Y26654D01*
X05107Y26556D02*
X10179Y26556D01*
X10179Y26754D02*
X08270Y26754D01*
X08469Y26953D02*
X10179Y26953D01*
X10179Y27151D02*
X08667Y27151D01*
X08866Y27350D02*
X10179Y27350D01*
X10179Y27548D02*
X09064Y27548D01*
X09129Y27747D02*
X10179Y27747D01*
X11179Y27700D02*
X11179Y25961D01*
X11179Y24495D01*
X11188Y24504D01*
X12588Y25904D01*
X13085Y25904D01*
X13236Y26055D01*
X13475Y26154D01*
X13588Y26154D01*
X12463Y27279D01*
X12463Y27279D01*
X12229Y27513D01*
X12229Y27754D01*
X11742Y27754D01*
X11691Y27724D01*
X11601Y27700D01*
X11341Y27700D01*
X11341Y28691D01*
X11316Y28691D01*
X11316Y27700D01*
X11179Y27700D01*
X11316Y27747D02*
X11341Y27747D01*
X11341Y27945D02*
X11316Y27945D01*
X11316Y28144D02*
X11341Y28144D01*
X11341Y28342D02*
X11316Y28342D01*
X11316Y28541D02*
X11341Y28541D01*
X12629Y28704D02*
X12629Y27679D01*
X14954Y25354D01*
X18454Y25354D01*
X20604Y23204D01*
X20664Y23204D01*
X20674Y23214D01*
X18554Y22794D02*
X20674Y20674D01*
X19784Y20079D02*
X20079Y19784D01*
X20465Y19624D01*
X20883Y19624D01*
X21269Y19784D01*
X21309Y19824D01*
X21309Y18984D01*
X21269Y19024D01*
X20883Y19184D01*
X20465Y19184D01*
X20079Y19024D01*
X19914Y18859D01*
X15370Y23404D01*
X15038Y23404D01*
X14454Y23404D01*
X14454Y23778D01*
X14278Y23954D01*
X12570Y23954D01*
X12820Y24204D01*
X14135Y24204D01*
X14286Y24053D01*
X14525Y23954D01*
X14783Y23954D01*
X15022Y24053D01*
X15205Y24236D01*
X15304Y24475D01*
X15304Y24733D01*
X15213Y24954D01*
X18288Y24954D01*
X18399Y24843D01*
X18186Y24755D01*
X18003Y24572D01*
X17904Y24333D01*
X17904Y24075D01*
X18003Y23836D01*
X18154Y23685D01*
X18154Y22628D01*
X19705Y21078D01*
X19624Y20883D01*
X19624Y20465D01*
X19784Y20079D01*
X19858Y20006D02*
X18768Y20006D01*
X18570Y20204D02*
X19732Y20204D01*
X19650Y20403D02*
X18371Y20403D01*
X18173Y20601D02*
X19624Y20601D01*
X19624Y20800D02*
X17974Y20800D01*
X17776Y20998D02*
X19672Y20998D01*
X19586Y21197D02*
X17577Y21197D01*
X17379Y21395D02*
X19387Y21395D01*
X19189Y21594D02*
X17180Y21594D01*
X16982Y21792D02*
X18990Y21792D01*
X18792Y21990D02*
X16783Y21990D01*
X16585Y22189D02*
X18593Y22189D01*
X18395Y22387D02*
X16386Y22387D01*
X16188Y22586D02*
X18196Y22586D01*
X18154Y22784D02*
X15989Y22784D01*
X15791Y22983D02*
X18154Y22983D01*
X18154Y23181D02*
X15592Y23181D01*
X15394Y23380D02*
X18154Y23380D01*
X18154Y23578D02*
X14454Y23578D01*
X14454Y23777D02*
X18062Y23777D01*
X17945Y23975D02*
X14835Y23975D01*
X14473Y23975D02*
X12591Y23975D01*
X12790Y24174D02*
X14165Y24174D01*
X14654Y24604D02*
X12654Y24604D01*
X12004Y23954D01*
X12004Y23029D01*
X11979Y23004D01*
X11354Y23029D02*
X11329Y23004D01*
X11354Y23029D02*
X11354Y24104D01*
X12754Y25504D01*
X13604Y25504D01*
X13141Y25960D02*
X11179Y25960D01*
X11179Y25762D02*
X12446Y25762D01*
X12248Y25563D02*
X11179Y25563D01*
X11179Y25365D02*
X12049Y25365D01*
X11851Y25166D02*
X11179Y25166D01*
X11179Y24968D02*
X11652Y24968D01*
X11454Y24769D02*
X11179Y24769D01*
X11179Y24571D02*
X11255Y24571D01*
X10029Y24079D02*
X10029Y23004D01*
X09891Y21990D02*
X09756Y21990D01*
X09729Y21792D02*
X09558Y21792D01*
X09554Y21594D02*
X09729Y21594D01*
X09729Y21395D02*
X09554Y21395D01*
X09554Y21197D02*
X09729Y21197D01*
X09729Y20998D02*
X09554Y20998D01*
X09554Y20800D02*
X09729Y20800D01*
X09729Y20601D02*
X09554Y20601D01*
X09554Y20403D02*
X09803Y20403D01*
X09729Y20204D02*
X09554Y20204D01*
X09554Y20006D02*
X09729Y20006D01*
X09729Y19807D02*
X09554Y19807D01*
X09554Y19609D02*
X09729Y19609D01*
X09729Y19410D02*
X09554Y19410D01*
X09554Y19212D02*
X09729Y19212D01*
X09796Y19013D02*
X09554Y19013D01*
X09709Y18815D02*
X13304Y18815D01*
X13304Y19013D02*
X12877Y19013D01*
X12862Y18987D02*
X12909Y19067D01*
X12933Y19157D01*
X12933Y19604D01*
X12204Y19604D01*
X12204Y18850D01*
X12626Y18850D01*
X12716Y18874D01*
X12796Y18921D01*
X12862Y18987D01*
X12933Y19212D02*
X13304Y19212D01*
X13304Y19410D02*
X12933Y19410D01*
X12933Y19804D02*
X12204Y19804D01*
X12204Y21104D01*
X12933Y21104D01*
X12933Y20657D01*
X12909Y20567D01*
X12862Y20487D01*
X12830Y20454D01*
X12862Y20421D01*
X12909Y20341D01*
X12933Y20251D01*
X12933Y19804D01*
X12933Y19807D02*
X13304Y19807D01*
X13304Y20006D02*
X12933Y20006D01*
X12933Y20204D02*
X13304Y20204D01*
X13304Y20403D02*
X12873Y20403D01*
X12918Y20601D02*
X13304Y20601D01*
X13304Y20800D02*
X12933Y20800D01*
X12933Y20998D02*
X13294Y20998D01*
X13096Y21197D02*
X12204Y21197D01*
X12204Y20998D02*
X12004Y20998D01*
X12004Y20800D02*
X12204Y20800D01*
X12204Y20601D02*
X12004Y20601D01*
X12004Y20403D02*
X12204Y20403D01*
X12204Y20204D02*
X12004Y20204D01*
X12004Y20006D02*
X12204Y20006D01*
X12204Y19807D02*
X12004Y19807D01*
X12204Y19609D02*
X13304Y19609D01*
X12204Y19410D02*
X12004Y19410D01*
X12004Y19212D02*
X12204Y19212D01*
X12204Y19013D02*
X12004Y19013D01*
X11331Y19013D02*
X11212Y19013D01*
X09954Y18304D02*
X11104Y17154D01*
X11104Y16954D01*
X11614Y16444D01*
X11614Y14244D01*
X10839Y14844D02*
X10829Y14844D01*
X10679Y15043D02*
X11014Y15043D01*
X11214Y15241D02*
X07004Y15241D01*
X07004Y15440D02*
X11214Y15440D01*
X10114Y15043D02*
X09914Y15043D01*
X09914Y14844D02*
X10114Y14844D01*
X10114Y14646D02*
X09914Y14646D01*
X09914Y14447D02*
X10114Y14447D01*
X09914Y14249D02*
X08304Y14249D01*
X08304Y14154D02*
X09033Y14154D01*
X09033Y13707D01*
X09009Y13617D01*
X08962Y13537D01*
X08896Y13471D01*
X08816Y13424D01*
X08726Y13400D01*
X08304Y13400D01*
X08304Y14154D01*
X08304Y14050D02*
X08104Y14050D01*
X08104Y13852D02*
X08304Y13852D01*
X08304Y13653D02*
X08104Y13653D01*
X08104Y13455D02*
X08304Y13455D01*
X08869Y13455D02*
X09332Y13455D01*
X09322Y13461D02*
X09402Y13414D01*
X09492Y13390D01*
X09914Y13390D01*
X09914Y14144D01*
X09185Y14144D01*
X09185Y13697D01*
X09209Y13607D01*
X09256Y13527D01*
X09322Y13461D01*
X09197Y13653D02*
X09019Y13653D01*
X09033Y13852D02*
X09185Y13852D01*
X09185Y14050D02*
X09033Y14050D01*
X09033Y14354D02*
X08304Y14354D01*
X08304Y15108D01*
X08726Y15108D01*
X08816Y15084D01*
X08896Y15037D01*
X08962Y14971D01*
X09009Y14891D01*
X09033Y14801D01*
X09033Y14354D01*
X09033Y14447D02*
X09185Y14447D01*
X09185Y14646D02*
X09033Y14646D01*
X09021Y14844D02*
X09199Y14844D01*
X09349Y15043D02*
X08886Y15043D01*
X08304Y15043D02*
X08104Y15043D01*
X08104Y14844D02*
X08304Y14844D01*
X08304Y14646D02*
X08104Y14646D01*
X08104Y14447D02*
X08304Y14447D01*
X07522Y15043D02*
X07214Y15043D01*
X07379Y14844D02*
X07387Y14844D01*
X08404Y15638D02*
X09804Y15638D01*
X09804Y15837D02*
X08404Y15837D01*
X08404Y16035D02*
X09804Y16035D01*
X09804Y16234D02*
X08404Y16234D01*
X08404Y16433D02*
X09804Y16433D01*
X09804Y16631D02*
X08404Y16631D01*
X08404Y16830D02*
X09804Y16830D01*
X09804Y17028D02*
X08404Y17028D01*
X08404Y17227D02*
X09804Y17227D01*
X09804Y17425D02*
X08404Y17425D01*
X08404Y17624D02*
X09804Y17624D01*
X09804Y17822D02*
X08404Y17822D01*
X08536Y18021D02*
X09372Y18021D01*
X09173Y18219D02*
X08735Y18219D01*
X08920Y18404D02*
X08920Y18404D01*
X08933Y18418D02*
X08975Y18418D01*
X08354Y19013D02*
X05139Y19013D01*
X05214Y19212D02*
X08354Y19212D01*
X08354Y19410D02*
X05214Y19410D01*
X05214Y19609D02*
X08354Y19609D01*
X08354Y19807D02*
X05134Y19807D01*
X05047Y20006D02*
X08354Y20006D01*
X08354Y20204D02*
X04849Y20204D01*
X05056Y18815D02*
X08199Y18815D01*
X08000Y18616D02*
X04861Y18616D01*
X04614Y18418D02*
X05943Y18418D01*
X05804Y18219D02*
X04614Y18219D01*
X04614Y18021D02*
X05804Y18021D01*
X05804Y17822D02*
X04614Y17822D01*
X04614Y17624D02*
X05804Y17624D01*
X05804Y17425D02*
X04614Y17425D01*
X04614Y17227D02*
X05804Y17227D01*
X03023Y16035D02*
X02861Y16035D01*
X02204Y16035D02*
X02004Y16035D01*
X02004Y16234D02*
X02204Y16234D01*
X02204Y16433D02*
X02004Y16433D01*
X02004Y16631D02*
X02204Y16631D01*
X01275Y17028D02*
X00954Y17028D01*
X00954Y17227D02*
X01275Y17227D01*
X01319Y17425D02*
X00954Y17425D01*
X00954Y14050D02*
X05829Y14050D01*
X05829Y13852D02*
X00954Y13852D01*
X00954Y13653D02*
X05829Y13653D01*
X06004Y13455D02*
X00954Y13455D01*
X07204Y13455D02*
X07539Y13455D01*
X07389Y13653D02*
X07379Y13653D01*
X09914Y13653D02*
X10114Y13653D01*
X10114Y13455D02*
X09914Y13455D01*
X09914Y13852D02*
X10114Y13852D01*
X10114Y14050D02*
X09914Y14050D01*
X10696Y13455D02*
X11004Y13455D01*
X10839Y13653D02*
X10831Y13653D01*
X14504Y14646D02*
X20103Y14646D01*
X20095Y14650D02*
X20250Y14571D01*
X20415Y14517D01*
X20574Y14492D01*
X20574Y15494D01*
X19572Y15494D01*
X19597Y15335D01*
X19651Y15170D01*
X19730Y15015D01*
X19832Y14875D01*
X19955Y14752D01*
X20095Y14650D01*
X19862Y14844D02*
X14504Y14844D01*
X14504Y15043D02*
X19716Y15043D01*
X19628Y15241D02*
X14504Y15241D01*
X14504Y15440D02*
X19581Y15440D01*
X19595Y15837D02*
X14504Y15837D01*
X14504Y16035D02*
X19660Y16035D01*
X19774Y16234D02*
X14504Y16234D01*
X14504Y16433D02*
X19951Y16433D01*
X20293Y16631D02*
X14504Y16631D01*
X14504Y16830D02*
X21309Y16830D01*
X21309Y17028D02*
X14504Y17028D01*
X14504Y17227D02*
X20121Y17227D01*
X19898Y17425D02*
X14504Y17425D01*
X14504Y17624D02*
X19749Y17624D01*
X19667Y17822D02*
X14504Y17822D01*
X14504Y18021D02*
X19622Y18021D01*
X19423Y18219D02*
X14504Y18219D01*
X14504Y18418D02*
X19225Y18418D01*
X19026Y18616D02*
X14504Y18616D01*
X14504Y18815D02*
X18828Y18815D01*
X18629Y19013D02*
X14504Y19013D01*
X14504Y19212D02*
X18431Y19212D01*
X18232Y19410D02*
X14504Y19410D01*
X14504Y19609D02*
X18034Y19609D01*
X17835Y19807D02*
X14504Y19807D01*
X14504Y20006D02*
X17637Y20006D01*
X17438Y20204D02*
X14504Y20204D01*
X14504Y20403D02*
X17240Y20403D01*
X17041Y20601D02*
X14504Y20601D01*
X14504Y20800D02*
X16843Y20800D01*
X16644Y20998D02*
X14504Y20998D01*
X14504Y21197D02*
X16446Y21197D01*
X16247Y21395D02*
X14504Y21395D01*
X14480Y21594D02*
X16049Y21594D01*
X15850Y21792D02*
X14282Y21792D01*
X14083Y21990D02*
X15652Y21990D01*
X15453Y22189D02*
X14413Y22189D01*
X14454Y22387D02*
X15255Y22387D01*
X15056Y22586D02*
X14454Y22586D01*
X13929Y23004D02*
X15204Y23004D01*
X20054Y18154D01*
X20654Y18154D01*
X20674Y18134D01*
X20068Y19013D02*
X19761Y19013D01*
X19562Y19212D02*
X21309Y19212D01*
X21309Y19410D02*
X19364Y19410D01*
X19165Y19609D02*
X21309Y19609D01*
X21292Y19807D02*
X21309Y19807D01*
X21280Y19013D02*
X21309Y19013D01*
X20056Y19807D02*
X18967Y19807D01*
X21227Y17227D02*
X21309Y17227D01*
X21309Y16631D02*
X21055Y16631D01*
X20774Y16631D02*
X20574Y16631D01*
X20574Y16433D02*
X20774Y16433D01*
X20774Y16234D02*
X20574Y16234D01*
X20574Y16035D02*
X20774Y16035D01*
X20774Y15837D02*
X20574Y15837D01*
X20574Y15638D02*
X14504Y15638D01*
X20574Y15440D02*
X20774Y15440D01*
X20774Y15241D02*
X20574Y15241D01*
X20574Y15043D02*
X20774Y15043D01*
X20774Y14844D02*
X20574Y14844D01*
X20574Y14646D02*
X20774Y14646D01*
X18554Y22794D02*
X18554Y24204D01*
X17904Y24174D02*
X15143Y24174D01*
X15262Y24372D02*
X17920Y24372D01*
X18002Y24571D02*
X15304Y24571D01*
X15289Y24769D02*
X18221Y24769D01*
X18254Y26154D02*
X18554Y26454D01*
X18254Y26154D02*
X15354Y26154D01*
X13929Y27579D01*
X13929Y28704D01*
X14454Y28739D02*
X16274Y28739D01*
X16075Y28541D02*
X14454Y28541D01*
X14454Y28342D02*
X15877Y28342D01*
X15678Y28144D02*
X14454Y28144D01*
X14454Y27945D02*
X15480Y27945D01*
X14928Y27747D02*
X14329Y27747D01*
X14525Y27548D02*
X14772Y27548D01*
X15354Y27254D02*
X17454Y29354D01*
X18654Y29354D01*
X20134Y30834D01*
X20674Y30834D01*
X19944Y30079D02*
X20079Y29944D01*
X20465Y29784D01*
X20883Y29784D01*
X21269Y29944D01*
X21309Y29984D01*
X21309Y29144D01*
X21269Y29184D01*
X20883Y29344D01*
X20465Y29344D01*
X20079Y29184D01*
X19784Y28889D01*
X19707Y28704D01*
X18638Y28704D01*
X17256Y27321D01*
X17222Y27355D01*
X16983Y27454D01*
X16725Y27454D01*
X16486Y27355D01*
X16303Y27172D01*
X16204Y26933D01*
X16204Y26675D01*
X16254Y26554D01*
X15520Y26554D01*
X15470Y26604D01*
X15483Y26604D01*
X15722Y26703D01*
X15905Y26886D01*
X16004Y27125D01*
X16004Y27338D01*
X17620Y28954D01*
X18820Y28954D01*
X19054Y29188D01*
X19944Y30079D01*
X19796Y29930D02*
X20111Y29930D01*
X19598Y29732D02*
X21309Y29732D01*
X21309Y29533D02*
X19399Y29533D01*
X19201Y29335D02*
X20443Y29335D01*
X20032Y29136D02*
X19002Y29136D01*
X18475Y28541D02*
X17207Y28541D01*
X17405Y28739D02*
X19722Y28739D01*
X19833Y28938D02*
X17604Y28938D01*
X17068Y29533D02*
X14399Y29533D01*
X14454Y29335D02*
X16869Y29335D01*
X16671Y29136D02*
X14454Y29136D01*
X14454Y28938D02*
X16472Y28938D01*
X17266Y29732D02*
X13338Y29732D01*
X13383Y29930D02*
X18665Y29930D01*
X18863Y30129D02*
X13383Y30129D01*
X13383Y30526D02*
X15853Y30526D01*
X15699Y30724D02*
X13383Y30724D01*
X12654Y30327D02*
X19062Y30327D01*
X19260Y30526D02*
X18772Y30526D01*
X18894Y30724D02*
X19459Y30724D01*
X19624Y30923D02*
X18903Y30923D01*
X18903Y31121D02*
X19657Y31121D01*
X19739Y31320D02*
X18174Y31320D01*
X18174Y31121D02*
X17974Y31121D01*
X17974Y30923D02*
X18174Y30923D01*
X18174Y30724D02*
X17974Y30724D01*
X17974Y30526D02*
X18174Y30526D01*
X17376Y30526D02*
X17095Y30526D01*
X17249Y30724D02*
X17254Y30724D01*
X17974Y31518D02*
X18174Y31518D01*
X18174Y31717D02*
X17974Y31717D01*
X17974Y31915D02*
X18174Y31915D01*
X18174Y32114D02*
X17974Y32114D01*
X18054Y32511D02*
X17854Y32511D01*
X17854Y32709D02*
X18054Y32709D01*
X18054Y32908D02*
X17854Y32908D01*
X18054Y33107D02*
X19624Y33107D01*
X19624Y33305D02*
X18808Y33305D01*
X18808Y33504D02*
X19624Y33504D01*
X19624Y33702D02*
X18808Y33702D01*
X18733Y33901D02*
X19624Y33901D01*
X19624Y34099D02*
X18648Y34099D01*
X18754Y34298D02*
X19673Y34298D01*
X20174Y34496D02*
X18754Y34496D01*
X18754Y34695D02*
X20174Y34695D01*
X20174Y34893D02*
X18754Y34893D01*
X18754Y35092D02*
X20174Y35092D01*
X20174Y35290D02*
X18754Y35290D01*
X18669Y35489D02*
X20174Y35489D01*
X20174Y35687D02*
X14594Y35687D01*
X14396Y35489D02*
X17239Y35489D01*
X15587Y36680D02*
X20174Y36680D01*
X20174Y36878D02*
X15785Y36878D01*
X15984Y37077D02*
X20074Y37077D01*
X19876Y37275D02*
X16182Y37275D01*
X16381Y37474D02*
X16487Y37474D01*
X17241Y37474D02*
X18460Y37474D01*
X18354Y37672D02*
X17567Y37672D01*
X17759Y37871D02*
X18354Y37871D01*
X18354Y38069D02*
X17841Y38069D01*
X17914Y38268D02*
X18354Y38268D01*
X18354Y38466D02*
X17914Y38466D01*
X17913Y38665D02*
X18354Y38665D01*
X18354Y38863D02*
X17831Y38863D01*
X17741Y39062D02*
X18354Y39062D01*
X18354Y39260D02*
X17543Y39260D01*
X17183Y39459D02*
X18484Y39459D01*
X20324Y39459D02*
X21309Y39459D01*
X21309Y39657D02*
X13704Y39657D01*
X13704Y39459D02*
X16545Y39459D01*
X16185Y39260D02*
X13673Y39260D01*
X13591Y39062D02*
X15987Y39062D01*
X15897Y38863D02*
X13458Y38863D01*
X13259Y38665D02*
X15815Y38665D01*
X15814Y38466D02*
X13204Y38466D01*
X13204Y38268D02*
X15760Y38268D01*
X15562Y38069D02*
X13528Y38069D01*
X13654Y37871D02*
X15363Y37871D01*
X15165Y37672D02*
X13654Y37672D01*
X13654Y37474D02*
X14966Y37474D01*
X14768Y37275D02*
X13654Y37275D01*
X13654Y37077D02*
X14569Y37077D01*
X14371Y36878D02*
X13654Y36878D01*
X13654Y36680D02*
X14172Y36680D01*
X13974Y36481D02*
X13654Y36481D01*
X13642Y36283D02*
X13775Y36283D01*
X13577Y36084D02*
X11154Y36084D01*
X11154Y35886D02*
X13378Y35886D01*
X13180Y35687D02*
X11328Y35687D01*
X12529Y35489D02*
X13154Y35489D01*
X13654Y34804D02*
X14304Y34804D01*
X14554Y34554D01*
X14554Y33154D01*
X14304Y32904D01*
X13654Y32904D01*
X12854Y32908D02*
X11604Y32908D01*
X11604Y32904D02*
X11604Y33104D01*
X12583Y33104D01*
X12583Y33626D01*
X12559Y33716D01*
X12512Y33796D01*
X12446Y33862D01*
X12366Y33909D01*
X12291Y33929D01*
X12353Y33929D01*
X12529Y34105D01*
X12529Y34304D01*
X12813Y34304D01*
X12800Y34256D01*
X12800Y33932D01*
X13576Y33932D01*
X13576Y33776D01*
X12800Y33776D01*
X12800Y33452D01*
X12824Y33362D01*
X12854Y33311D01*
X12854Y32425D01*
X13030Y32249D01*
X14278Y32249D01*
X14454Y32425D01*
X14454Y32504D01*
X14470Y32504D01*
X14654Y32688D01*
X14654Y31854D01*
X11697Y31854D01*
X11404Y31561D01*
X11047Y31204D01*
X10454Y31204D01*
X10454Y32284D01*
X10496Y32212D01*
X10562Y32146D01*
X10642Y32099D01*
X10732Y32075D01*
X11404Y32075D01*
X11404Y32904D01*
X11604Y32904D01*
X12583Y32904D01*
X12583Y32382D01*
X12559Y32292D01*
X12512Y32212D01*
X12446Y32146D01*
X12366Y32099D01*
X12276Y32075D01*
X11604Y32075D01*
X11604Y32904D01*
X11604Y32709D02*
X11404Y32709D01*
X11404Y32511D02*
X11604Y32511D01*
X11604Y32312D02*
X11404Y32312D01*
X11404Y32114D02*
X11604Y32114D01*
X11560Y31717D02*
X10454Y31717D01*
X10454Y31518D02*
X11361Y31518D01*
X11163Y31320D02*
X10454Y31320D01*
X10454Y31915D02*
X14654Y31915D01*
X14654Y32114D02*
X12391Y32114D01*
X12564Y32312D02*
X12966Y32312D01*
X12854Y32511D02*
X12583Y32511D01*
X12583Y32709D02*
X12854Y32709D01*
X12854Y33107D02*
X12583Y33107D01*
X12583Y33305D02*
X12854Y33305D01*
X12800Y33504D02*
X12583Y33504D01*
X12563Y33702D02*
X12800Y33702D01*
X12800Y34099D02*
X12523Y34099D01*
X12529Y34298D02*
X12811Y34298D01*
X12380Y33901D02*
X13576Y33901D01*
X14582Y35092D02*
X15114Y35092D01*
X15312Y35290D02*
X14447Y35290D01*
X14781Y34893D02*
X14915Y34893D01*
X14793Y35886D02*
X20174Y35886D01*
X20174Y36084D02*
X14991Y36084D01*
X15190Y36283D02*
X20174Y36283D01*
X20174Y36481D02*
X15388Y36481D01*
X12104Y38268D02*
X06604Y38268D01*
X06604Y38466D02*
X12104Y38466D01*
X12049Y38665D02*
X06659Y38665D01*
X06858Y38863D02*
X11850Y38863D01*
X11580Y38069D02*
X07128Y38069D01*
X07254Y37871D02*
X07712Y37871D01*
X07717Y37874D02*
X07637Y37827D01*
X07571Y37761D01*
X07524Y37681D01*
X07500Y37591D01*
X07500Y36869D01*
X08054Y36869D01*
X08054Y36869D01*
X08054Y36869D01*
X08054Y37898D01*
X07807Y37898D01*
X07717Y37874D01*
X07522Y37672D02*
X07254Y37672D01*
X07254Y37474D02*
X07500Y37474D01*
X07500Y37275D02*
X07254Y37275D01*
X07254Y37077D02*
X07500Y37077D01*
X07500Y36878D02*
X07254Y36878D01*
X07254Y36680D02*
X07500Y36680D01*
X07500Y36869D02*
X07500Y36147D01*
X07524Y36057D01*
X07571Y35977D01*
X07637Y35911D01*
X07717Y35864D01*
X07807Y35840D01*
X08054Y35840D01*
X08054Y36869D01*
X07500Y36869D01*
X07500Y36481D02*
X07254Y36481D01*
X07242Y36283D02*
X07500Y36283D01*
X07517Y36084D02*
X00954Y36084D01*
X00954Y35886D02*
X07680Y35886D01*
X08054Y35886D02*
X08054Y35886D01*
X08054Y36084D02*
X08054Y36084D01*
X08054Y36283D02*
X08054Y36283D01*
X08054Y36481D02*
X08054Y36481D01*
X08054Y36680D02*
X08054Y36680D01*
X08054Y36878D02*
X08054Y36878D01*
X08054Y37077D02*
X08054Y37077D01*
X08054Y37275D02*
X08054Y37275D01*
X08054Y37474D02*
X08054Y37474D01*
X08054Y37672D02*
X08054Y37672D01*
X08054Y37871D02*
X08054Y37871D01*
X08396Y37871D02*
X11454Y37871D01*
X11454Y37672D02*
X11150Y37672D01*
X11154Y37474D02*
X11454Y37474D01*
X11454Y37275D02*
X11154Y37275D01*
X11154Y37077D02*
X11454Y37077D01*
X11454Y36878D02*
X11154Y36878D01*
X11154Y36680D02*
X11454Y36680D01*
X11454Y36481D02*
X11154Y36481D01*
X11154Y36283D02*
X11466Y36283D01*
X08904Y35886D02*
X08428Y35886D01*
X08904Y35687D02*
X00954Y35687D01*
X00954Y35489D02*
X08904Y35489D01*
X08904Y35290D02*
X00954Y35290D01*
X00954Y35092D02*
X08904Y35092D01*
X08904Y34893D02*
X00954Y34893D01*
X00954Y34695D02*
X08904Y34695D01*
X08904Y34496D02*
X00954Y34496D01*
X00954Y34298D02*
X08904Y34298D01*
X08904Y34099D02*
X00954Y34099D01*
X00954Y33901D02*
X08904Y33901D01*
X08904Y33702D02*
X00954Y33702D01*
X00954Y33504D02*
X08904Y33504D01*
X08904Y33305D02*
X00954Y33305D01*
X00954Y33107D02*
X08904Y33107D01*
X08904Y32908D02*
X00954Y32908D01*
X00954Y32709D02*
X08904Y32709D01*
X08904Y32511D02*
X00954Y32511D01*
X00954Y32312D02*
X08904Y32312D01*
X08904Y32114D02*
X00954Y32114D01*
X00954Y31915D02*
X08904Y31915D01*
X08904Y31717D02*
X00954Y31717D01*
X00954Y31518D02*
X08904Y31518D01*
X08904Y31320D02*
X00954Y31320D01*
X00954Y31121D02*
X08904Y31121D01*
X08904Y30923D02*
X00954Y30923D01*
X03354Y27945D02*
X03645Y27945D01*
X03402Y27747D02*
X03354Y27747D01*
X04164Y27024D02*
X04194Y27054D01*
X08004Y27054D01*
X08729Y27779D01*
X08729Y28704D01*
X11179Y27548D02*
X12229Y27548D01*
X12229Y27747D02*
X11730Y27747D01*
X11179Y27350D02*
X12392Y27350D01*
X12591Y27151D02*
X11179Y27151D01*
X11179Y26953D02*
X12789Y26953D01*
X12988Y26754D02*
X11179Y26754D01*
X11179Y26556D02*
X13186Y26556D01*
X13385Y26357D02*
X11179Y26357D01*
X11179Y26159D02*
X13583Y26159D01*
X13279Y27629D02*
X15154Y25754D01*
X20674Y25754D01*
X17681Y27747D02*
X16413Y27747D01*
X16611Y27945D02*
X17880Y27945D01*
X18078Y28144D02*
X16810Y28144D01*
X17008Y28342D02*
X18277Y28342D01*
X18804Y28304D02*
X20664Y28304D01*
X20674Y28294D01*
X20905Y29335D02*
X21309Y29335D01*
X21309Y29930D02*
X21237Y29930D01*
X21276Y31717D02*
X21309Y31717D01*
X21309Y31915D02*
X18886Y31915D01*
X18903Y31717D02*
X20072Y31717D01*
X19874Y31518D02*
X18903Y31518D01*
X18720Y32114D02*
X21309Y32114D01*
X21309Y32312D02*
X17142Y32312D01*
X17004Y32114D02*
X17428Y32114D01*
X17262Y31915D02*
X17249Y31915D01*
X18737Y32511D02*
X19624Y32511D01*
X19624Y32709D02*
X18808Y32709D01*
X18808Y32908D02*
X19624Y32908D01*
X21174Y34496D02*
X21309Y34496D01*
X21309Y34695D02*
X21174Y34695D01*
X21174Y34893D02*
X21309Y34893D01*
X21309Y35092D02*
X21174Y35092D01*
X21174Y35290D02*
X21309Y35290D01*
X21309Y35489D02*
X21174Y35489D01*
X21174Y35687D02*
X21309Y35687D01*
X21309Y35886D02*
X21174Y35886D01*
X21174Y36084D02*
X21309Y36084D01*
X21309Y36283D02*
X21174Y36283D01*
X21174Y36481D02*
X21309Y36481D01*
X21309Y36680D02*
X21174Y36680D01*
X21174Y36878D02*
X21309Y36878D01*
X21309Y37077D02*
X21174Y37077D01*
X21174Y37275D02*
X21309Y37275D01*
X21309Y37474D02*
X21092Y37474D01*
X20893Y37672D02*
X21309Y37672D01*
X21309Y37871D02*
X20695Y37871D01*
X20496Y38069D02*
X21309Y38069D01*
X21309Y38268D02*
X20454Y38268D01*
X20454Y38466D02*
X21309Y38466D01*
X21309Y38665D02*
X20454Y38665D01*
X20454Y38863D02*
X21309Y38863D01*
X21309Y39062D02*
X20454Y39062D01*
X20454Y39260D02*
X21309Y39260D01*
X21309Y39856D02*
X13661Y39856D01*
X13579Y40054D02*
X21309Y40054D01*
X21309Y40253D02*
X13430Y40253D01*
X05504Y38466D02*
X04065Y38466D01*
X04116Y38268D02*
X05504Y38268D01*
X05180Y38069D02*
X04208Y38069D01*
X04208Y37871D02*
X05054Y37871D01*
X05054Y37672D02*
X04208Y37672D01*
X04208Y37275D02*
X05054Y37275D01*
X05054Y37474D02*
X03454Y37474D01*
X03454Y37275D02*
X03254Y37275D01*
X03254Y37474D02*
X00954Y37474D01*
X00954Y37672D02*
X02500Y37672D01*
X02500Y37871D02*
X00954Y37871D01*
X00954Y38069D02*
X02500Y38069D01*
X02592Y38268D02*
X00954Y38268D01*
X00954Y38466D02*
X02643Y38466D01*
X02554Y38665D02*
X00954Y38665D01*
X00954Y38863D02*
X02554Y38863D01*
X02554Y39062D02*
X00954Y39062D01*
X00954Y39260D02*
X02554Y39260D01*
X02554Y39459D02*
X00954Y39459D01*
X00954Y39657D02*
X02554Y39657D01*
X02656Y39856D02*
X00954Y39856D01*
X00954Y40054D02*
X05129Y40054D01*
X05278Y40253D02*
X00954Y40253D01*
X04154Y39062D02*
X05117Y39062D01*
X05250Y38863D02*
X04154Y38863D01*
X04154Y38665D02*
X05449Y38665D01*
X05054Y37077D02*
X04208Y37077D01*
X04147Y36878D02*
X05054Y36878D01*
X05054Y36680D02*
X00954Y36680D01*
X00954Y36878D02*
X02561Y36878D01*
X02500Y37077D02*
X00954Y37077D01*
X00954Y37275D02*
X02500Y37275D01*
X03254Y37077D02*
X03454Y37077D01*
X03454Y36878D02*
X03254Y36878D01*
X05054Y36481D02*
X00954Y36481D01*
X00954Y36283D02*
X05066Y36283D01*
X10454Y32114D02*
X10617Y32114D01*
X14342Y32312D02*
X14654Y32312D01*
X14654Y32511D02*
X14477Y32511D01*
X15698Y31320D02*
X15699Y31320D01*
X15699Y31121D02*
X15499Y31121D01*
X15699Y30923D02*
X15180Y30923D01*
X13279Y28704D02*
X13279Y27629D01*
X15518Y26556D02*
X16253Y26556D01*
X16204Y26754D02*
X15774Y26754D01*
X15933Y26953D02*
X16212Y26953D01*
X16294Y27151D02*
X16004Y27151D01*
X16016Y27350D02*
X16481Y27350D01*
X16214Y27548D02*
X17483Y27548D01*
X17284Y27350D02*
X17227Y27350D01*
X17304Y26804D02*
X16854Y26804D01*
X17304Y26804D02*
X18804Y28304D01*
X10179Y26357D02*
X04982Y26357D01*
X02454Y26159D02*
X02312Y26159D01*
X01324Y25960D02*
X00954Y25960D01*
X00954Y23578D02*
X01066Y23578D01*
X30284Y33107D02*
X30484Y33107D01*
X30484Y33305D02*
X30284Y33305D01*
X30284Y33504D02*
X30484Y33504D01*
X30484Y33702D02*
X30284Y33702D01*
X30284Y33901D02*
X30484Y33901D01*
X32802Y34298D02*
X37541Y34298D01*
X37368Y33702D02*
X37060Y33702D01*
X40405Y35489D02*
X40482Y35489D01*
X40603Y35687D02*
X40681Y35687D01*
X40802Y35886D02*
X40879Y35886D01*
X41000Y36084D02*
X41078Y36084D01*
X41199Y36283D02*
X41276Y36283D01*
X41397Y36481D02*
X41475Y36481D01*
X41596Y36680D02*
X41673Y36680D01*
X41794Y36878D02*
X41872Y36878D01*
X41993Y37077D02*
X42070Y37077D01*
X42191Y37275D02*
X42269Y37275D01*
X42390Y37474D02*
X42467Y37474D01*
X42534Y37672D02*
X42612Y37672D01*
X42534Y37871D02*
X42781Y37871D01*
X42534Y38069D02*
X46803Y38069D01*
X46605Y38268D02*
X42534Y38268D01*
X42534Y38466D02*
X43046Y38466D01*
X42935Y38665D02*
X42534Y38665D01*
X42534Y38863D02*
X42930Y38863D01*
X42930Y39062D02*
X42534Y39062D01*
X41634Y39062D02*
X40069Y39062D01*
X40268Y39260D02*
X41634Y39260D01*
X41634Y39459D02*
X40466Y39459D01*
X40665Y39657D02*
X41634Y39657D01*
X41634Y39856D02*
X40863Y39856D01*
X41062Y40054D02*
X41634Y40054D01*
X41634Y40253D02*
X41260Y40253D01*
X41459Y40451D02*
X41745Y40451D01*
X41657Y40650D02*
X41943Y40650D01*
X41834Y40848D02*
X42142Y40848D01*
X43884Y39260D02*
X45234Y39260D01*
X45234Y39062D02*
X45434Y39062D01*
X45434Y38863D02*
X45234Y38863D01*
X45234Y38665D02*
X45434Y38665D01*
X45434Y38466D02*
X45234Y38466D01*
X44596Y38466D02*
X44522Y38466D01*
X46072Y38466D02*
X46273Y38466D01*
X43884Y35290D02*
X43684Y35290D01*
X43684Y35092D02*
X43884Y35092D01*
X43884Y34893D02*
X43684Y34893D01*
X43684Y34695D02*
X43884Y34695D01*
X44863Y34893D02*
X44924Y34893D01*
X46244Y34893D02*
X47774Y34893D01*
X47609Y34695D02*
X46384Y34695D01*
X46384Y34496D02*
X47609Y34496D01*
X47609Y34298D02*
X46568Y34298D01*
X46767Y34099D02*
X47609Y34099D01*
X47609Y33901D02*
X46965Y33901D01*
X47164Y33702D02*
X47609Y33702D01*
X47609Y33504D02*
X47284Y33504D01*
X47284Y33305D02*
X47736Y33305D01*
X47609Y33107D02*
X47284Y33107D01*
X49159Y34099D02*
X49209Y34099D01*
X49209Y34298D02*
X49159Y34298D01*
X49159Y34496D02*
X49209Y34496D01*
X49209Y34695D02*
X49159Y34695D01*
X48994Y34893D02*
X49374Y34893D01*
X44823Y31915D02*
X44770Y31915D01*
X40467Y37077D02*
X40311Y37077D01*
X40311Y37275D02*
X40467Y37275D01*
X40467Y37474D02*
X40311Y37474D01*
X40311Y37672D02*
X40467Y37672D01*
X40467Y37871D02*
X40311Y37871D01*
X40311Y38069D02*
X40467Y38069D01*
X40467Y38057D02*
X40467Y39008D01*
X40791Y39008D01*
X40881Y38984D01*
X40961Y38937D01*
X41027Y38871D01*
X41074Y38791D01*
X41098Y38701D01*
X41098Y38057D01*
X40467Y38057D01*
X40467Y38268D02*
X40311Y38268D01*
X40311Y38466D02*
X40467Y38466D01*
X40467Y38665D02*
X40311Y38665D01*
X40311Y38863D02*
X40467Y38863D01*
X41032Y38863D02*
X41634Y38863D01*
X41634Y38665D02*
X41098Y38665D01*
X41098Y38466D02*
X41634Y38466D01*
X41634Y38268D02*
X41098Y38268D01*
X41098Y38069D02*
X41634Y38069D01*
X41514Y37871D02*
X41098Y37871D01*
X41098Y37672D02*
X41316Y37672D01*
X41117Y37474D02*
X41098Y37474D01*
X39761Y37077D02*
X39671Y37077D01*
X38567Y37077D02*
X38401Y37077D01*
X37297Y37077D02*
X37131Y37077D01*
X37260Y43627D02*
X37558Y43627D01*
X37413Y43825D02*
X37405Y43825D01*
X39532Y47597D02*
X39962Y47597D01*
X40045Y47795D02*
X39463Y47795D01*
X39346Y47994D02*
X40159Y47994D01*
X41829Y47994D02*
X42642Y47994D01*
X42525Y47795D02*
X41943Y47795D01*
X42026Y47597D02*
X42456Y47597D01*
X49449Y47994D02*
X50262Y47994D01*
X50145Y47795D02*
X49563Y47795D01*
X49646Y47597D02*
X50076Y47597D01*
X51976Y46604D02*
X52784Y46604D01*
X52782Y46803D02*
X52117Y46803D01*
X52204Y47001D02*
X52699Y47001D01*
X62206Y47994D02*
X63019Y47994D01*
X62905Y47795D02*
X62323Y47795D01*
X59834Y39062D02*
X59634Y39062D01*
X59634Y38863D02*
X59834Y38863D01*
X59834Y38665D02*
X59634Y38665D01*
X59634Y38466D02*
X59834Y38466D01*
D37*
X20674Y37184D02*
X20674Y33374D01*
X17954Y34804D02*
X16454Y34804D01*
X13654Y34804D02*
X11504Y34804D01*
X10654Y35654D01*
X10654Y36869D01*
X11404Y34804D02*
X11504Y34804D01*
X13654Y34804D02*
X13654Y35454D01*
X16654Y38454D01*
X16854Y38454D01*
X16854Y38444D01*
X16864Y38454D01*
X19404Y38454D02*
X20674Y37184D01*
X15204Y31654D02*
X14904Y31354D01*
X11904Y31354D01*
X10954Y30404D01*
X10679Y30129D01*
X10679Y28704D01*
X10679Y25754D01*
X10679Y23004D01*
X10679Y21379D01*
X10504Y21204D01*
X12104Y21204D02*
X12354Y20954D01*
X12954Y20954D01*
X08054Y35704D02*
X08054Y36869D01*
X39384Y10154D02*
X39384Y08954D01*
M02*
